<svg width="30" height="30" viewBox="0 0 30 30" fill="none" xmlns="http://www.w3.org/2000/svg">
  <rect width="30" height="30" rx="15" fill="#0090BA"/>
  <path d="M11.125 21H8.21875V11.6562H11.125V21ZM9.65625 10.4062C8.75 10.4062 8 9.625 8 8.6875C8 7.78125 8.75 7.03125 9.65625 7.03125C10.5938 7.03125 11.3438 7.78125 11.3438 8.6875C11.3438 9.625 10.5938 10.4062 9.65625 10.4062ZM21.9688 21H19.0938V16.4688C19.0938 15.375 19.0625 14 17.5625 14C16.0625 14 15.8438 15.1562 15.8438 16.375V21H12.9375V11.6562H15.7188V12.9375H15.75C16.1562 12.2188 17.0938 11.4375 18.5 11.4375C21.4375 11.4375 22 13.375 22 15.875V21H21.9688Z" fill="white"/>
</svg>