<svg width="30" height="30" viewBox="0 0 30 30" fill="none" xmlns="http://www.w3.org/2000/svg">
  <rect width="30" height="30" rx="15" fill="#0090BA"/>
  <path d="M21.3438 11.75C21.3438 11.9062 21.3438 12.0312 21.3438 12.1875C21.3438 16.5312 18.0625 21.5 12.0312 21.5C10.1562 21.5 8.4375 20.9688 7 20.0312C7.25 20.0625 7.5 20.0938 7.78125 20.0938C9.3125 20.0938 10.7188 19.5625 11.8438 18.6875C10.4062 18.6562 9.1875 17.7188 8.78125 16.4062C9 16.4375 9.1875 16.4688 9.40625 16.4688C9.6875 16.4688 10 16.4062 10.25 16.3438C8.75 16.0312 7.625 14.7188 7.625 13.125V13.0938C8.0625 13.3438 8.59375 13.4688 9.125 13.5C8.21875 12.9062 7.65625 11.9062 7.65625 10.7812C7.65625 10.1562 7.8125 9.59375 8.09375 9.125C9.71875 11.0938 12.1562 12.4062 14.875 12.5625C14.8125 12.3125 14.7812 12.0625 14.7812 11.8125C14.7812 10 16.25 8.53125 18.0625 8.53125C19 8.53125 19.8438 8.90625 20.4688 9.5625C21.1875 9.40625 21.9062 9.125 22.5312 8.75C22.2812 9.53125 21.7812 10.1562 21.0938 10.5625C21.75 10.5 22.4062 10.3125 22.9688 10.0625C22.5312 10.7188 21.9688 11.2812 21.3438 11.75Z" fill="white"/>
</svg>