<svg width="144" height="134" viewBox="0 0 144 134" fill="none" xmlns="http://www.w3.org/2000/svg">
<g clip-path="url(#clip0_2403_4860)">
<path d="M123.402 52.0402C117.978 56.0157 111.462 58.3645 104.226 58.3645C96.9896 58.3645 90.4786 56.0157 85.0501 52.0402C73.1105 58.0034 64.9678 70.2906 64.9678 84.3849V102.093C64.9678 106.611 68.5885 110.044 72.9292 110.044H94.638V99.9247C90.6599 97.2142 87.9456 92.3354 87.9456 86.9148C87.9456 78.0605 95.1819 70.6522 104.226 70.6522C113.275 70.6522 120.511 77.8799 120.511 86.9148C120.511 92.3354 117.797 97.0336 113.814 100.105V110.225H135.523C140.05 110.225 143.484 106.611 143.484 102.274V84.5654C143.484 70.2906 135.341 58.0034 123.402 52.0402Z" fill="#3C5D67"/>
<path d="M104.226 52.0401C118.517 52.0401 130.281 40.4758 130.281 26.0198C130.281 11.7449 118.699 0 104.226 0C89.7535 0 78.1765 11.5644 78.1765 26.0198C78.1765 40.2952 89.9348 52.0401 104.226 52.0401Z" fill="#3C5D67"/>
<path d="M26.0724 105.346L16.8471 95.4075H35.3029L26.0724 105.346ZM104.226 76.9765C98.8028 76.9765 94.2756 81.4937 94.2756 86.9148C94.2756 91.2514 97.1711 95.0458 100.973 96.3108V118.175C100.973 123.415 96.6272 127.752 91.3852 127.752H38.9184C33.6713 127.752 29.3305 123.415 29.3305 118.175V111.308L44.3469 95.2264C48.1438 91.0708 50.4954 85.8303 50.858 80.2287L52.3084 61.6172C52.4897 58.9067 51.5832 56.0156 49.5941 54.0279C47.6051 52.0401 44.8908 50.7751 42.1766 50.7751H39.8249C39.8249 48.9684 38.3746 47.7035 36.7481 47.7035C34.9403 47.7035 33.49 49.149 33.49 50.9562V57.2806C33.49 59.0873 34.9403 60.5328 36.7481 60.5328C38.5559 60.5328 39.8249 59.0873 39.8249 57.4611H42.1766C43.2592 57.4611 44.1656 57.8223 44.8908 58.7261C45.6108 59.4489 45.9734 60.5328 45.9734 61.6172L44.5282 79.6865C44.3469 83.1198 43.0779 86.3726 41.0888 89.0831H11.2425C9.24823 86.3726 7.98435 83.1198 7.80305 79.6865L6.35787 61.075C6.35787 59.9911 6.71528 58.9067 7.44046 58.1839C8.16564 57.4611 9.06694 56.9189 10.1547 56.9189H12.5064C12.5064 58.7261 13.9515 59.9911 15.5832 59.9911C17.391 59.9911 18.8361 58.5456 18.8361 56.7384V50.414C18.8361 48.6068 17.391 47.1613 15.5832 47.1613C13.7702 47.1613 12.5064 48.6068 12.5064 50.2334H10.1547C7.25917 50.2334 4.72622 51.4984 2.73715 53.4856C0.748089 55.4734 -0.158386 58.3645 0.022909 61.075L1.47327 79.6865C1.83068 85.2881 4.18233 90.5286 7.98435 94.6847L23.0007 110.767V117.633C23.0007 126.487 30.237 133.534 38.9184 133.534H91.5613C100.429 133.534 107.484 126.307 107.484 117.633V96.3108C111.462 95.0458 114.177 91.2514 114.177 86.9148C114.177 81.4937 109.655 76.9765 104.226 76.9765Z" fill="#3C5D67"/>
<path d="M35.0543 68.1868H29.5843V62.726C29.5843 60.8417 28.0563 59.3134 26.1708 59.3134C24.2853 59.3134 22.7521 60.8417 22.7521 62.726V68.1868H17.2874C15.3967 68.1868 13.8687 69.7152 13.8687 71.5994C13.8687 73.4848 15.3967 75.0126 17.2874 75.0126H22.7521V80.4735C22.7521 82.3583 24.2853 83.8861 26.1708 83.8861C28.0563 83.8861 29.5843 82.3583 29.5843 80.4735V75.0126H35.0543C36.9397 75.0126 38.473 73.4848 38.473 71.5994C38.473 69.7152 36.9397 68.1868 35.0543 68.1868Z" fill="#0090BA"/>
</g>
<defs>
<clipPath id="clip0_2403_4860">
<rect width="144" height="134" fill="white"/>
</clipPath>
</defs>
</svg>
