<svg width="134" height="134" viewBox="0 0 134 134" fill="none" xmlns="http://www.w3.org/2000/svg">
<g clip-path="url(#clip0_2403_4878)">
<path d="M121.291 88.0792L104.685 104.69L82.9408 82.946L99.5465 66.3403C102.098 63.7891 105.504 62.3821 109.143 62.3821C112.787 62.3821 116.193 63.7891 118.745 66.3403L121.291 68.8811C123.842 71.4323 125.244 74.8441 125.244 78.4827C125.244 82.1214 123.842 85.528 121.291 88.0792ZM127.166 63.0057L124.625 60.4597C120.502 56.3367 115.003 54.069 109.143 54.069C103.283 54.069 97.7839 56.3367 93.6659 60.4597L60.4545 93.6711C51.9198 102.206 51.9198 116.096 60.4545 124.63L62.9954 127.176C67.1185 131.294 72.6176 133.562 78.4775 133.562C84.3375 133.562 89.8366 131.294 93.9545 127.176L127.166 93.9597C131.289 89.8418 133.557 84.3427 133.557 78.4827C133.557 72.6228 131.289 67.1237 127.166 63.0057Z" fill="#0090BA"/>
<path d="M101.835 71.1746L95.4493 77.5602C93.8258 79.1836 93.8258 81.8173 95.4493 83.4407C96.2584 84.2499 97.3253 84.657 98.387 84.657C99.4538 84.657 100.516 84.2499 101.33 83.4407L107.715 77.05C108.427 76.3439 109.859 76.3439 110.571 77.05C112.194 78.6786 114.828 78.6786 116.451 77.05C118.075 75.4265 118.075 72.798 116.451 71.1746C112.591 67.3092 105.69 67.3143 101.835 71.1746Z" fill="#0090BA"/>
<path d="M62.8718 52.1002H46.9052C44.0293 52.1002 41.7049 49.781 41.7049 46.9052V22.1358C41.7049 19.2599 44.0293 16.9407 46.9052 16.9407C49.781 16.9407 52.1002 19.2599 52.1002 22.1358V41.7101H62.8718C65.7476 41.7101 68.0668 44.0293 68.0668 46.9052C68.0668 49.781 65.7476 52.1002 62.8718 52.1002ZM93.7742 48.3276C93.8052 47.8432 93.8052 47.3896 93.8052 46.9052C93.8052 20.9968 72.8135 0 46.9052 0C20.9916 0 0 20.9968 0 46.9052C0 72.8187 20.9916 93.8103 46.9052 93.8103C47.3896 93.8103 47.8741 93.8103 48.3585 93.7742C49.7449 91.2798 51.4766 88.9245 53.5897 86.8114L86.8114 53.5897C88.9245 51.4766 91.2437 49.714 93.7742 48.3276Z" fill="#3C5D67"/>
</g>
<defs>
<clipPath id="clip0_2403_4878">
<rect width="134" height="134" fill="white"/>
</clipPath>
</defs>
</svg>
