<svg width="153" height="134" viewBox="0 0 154 134" fill="none" xmlns="http://www.w3.org/2000/svg">
<g clip-path="url(#clip0_2396_4709)">
<path d="M111.848 86.2126L98.151 90.3191C97.3004 92.5541 95.8638 94.4917 93.9604 96.0226L78.1729 108.584C79.4228 111.774 82.9444 113.474 86.217 112.493L86.3052 112.467C89.6504 111.419 91.7976 108.308 91.7095 104.969C93.3587 105.936 95.4022 106.236 97.3782 105.645L97.4612 105.621C101.232 104.444 103.332 100.418 102.155 96.6734L102.139 96.6165C103.768 97.5618 105.765 97.8469 107.71 97.2622L107.793 97.2384C111.563 96.0624 113.664 92.0373 112.486 88.2915L111.848 86.2126Z" fill="#3C5D67"/>
<path d="M92.5187 79.7445C89.4172 75.8621 83.6965 75.219 79.8067 78.3129L64.7971 90.2477C58.7186 95.0815 49.6735 92.2613 47.4381 84.837L38.6834 55.7968C28.8707 60.4852 12.2637 91.9695 12.2637 91.9695L3.24446 96.6564C1.20619 97.7155 0.132598 99.9981 0.614937 102.233L8.67467 130.228C9.35928 132.61 11.745 134.089 14.1827 133.633C18.809 132.764 26.3967 131.644 32.9835 132.093C38.0299 132.437 45.0887 129.01 46.406 127.963C50.3529 124.824 91.0872 92.4269 91.0872 92.4269C94.977 89.333 95.6202 83.6253 92.5187 79.7445Z" fill="#3C5D67"/>
<path d="M112.061 39.9387C112.289 40.7163 113.026 41.2544 113.84 41.2544L114.364 41.1799L119.483 39.6443C120.448 39.3556 120.987 38.3287 120.697 37.357L118.944 31.5407L124.804 29.7811C125.266 29.6466 125.65 29.3377 125.878 28.9088C126.111 28.4804 126.163 27.9869 126.018 27.5186L124.483 22.4147C124.249 21.6371 123.523 21.0939 122.724 21.0939L122.206 21.1689L116.35 22.9233L114.597 17.1116C114.369 16.3345 113.669 15.811 112.86 15.811L112.331 15.8906L107.207 17.4257C106.74 17.5654 106.356 17.8794 106.118 18.3032C105.874 18.7367 105.822 19.2303 105.962 19.6985L107.715 25.5102L101.885 27.2594C100.921 27.5486 100.381 28.5751 100.672 29.5473L102.212 34.6558C102.446 35.4329 103.146 35.9513 103.955 35.9513L104.473 35.8768L110.308 34.1322L112.061 39.9387ZM69.8332 27.0582C68.9152 27.0582 67.9972 27.1963 67.1051 27.4617C64.683 28.186 62.6863 29.8142 61.4882 32.0395C60.2849 34.2693 60.0256 36.8262 60.7517 39.2403C61.9498 43.2106 65.684 45.9822 69.8384 45.9822C70.7615 45.9822 71.6744 45.844 72.5664 45.5786C77.5713 44.0782 80.4239 38.7912 78.9198 33.8001C77.7217 29.8297 73.9875 27.0582 69.8332 27.0582ZM132.418 43.9473C132.107 43.9473 131.79 43.9934 131.49 44.085L106.74 51.5057C104.987 52.0313 103.986 53.8685 104.51 55.5986C104.935 57.0173 106.211 57.9666 107.689 57.9666C108.011 57.9666 108.332 57.9154 108.648 57.8233L133.393 50.4031C134.223 50.1532 134.913 49.5919 135.328 48.8158C135.753 48.0351 135.846 47.137 135.587 46.2848C135.172 44.9117 133.87 43.9473 132.418 43.9473ZM65.6996 48.4656C61.9446 51.0633 59.9686 55.655 60.6687 60.1619L61.5452 65.6331C61.7475 67.0595 63.0026 68.1413 64.46 68.1413C64.7453 68.1413 65.0305 68.0989 65.3106 68.0141L91.0146 60.3103C91.8392 60.061 92.5135 59.467 92.861 58.6822C93.2136 57.903 93.2033 57.0121 92.8402 56.2433L90.5374 51.1802C88.6444 47.0656 84.4745 44.3142 79.9104 44.1708C77.8618 46.2015 75.7457 47.5534 73.3703 48.2638C72.1152 48.6404 70.829 48.8314 69.5375 48.8314C68.3965 48.8314 67.2555 48.6829 66.1508 48.3859L65.907 48.3223L65.6996 48.4656ZM136.443 57.2878C136.126 57.2878 135.81 57.3334 135.504 57.4255L110.759 64.841C109.909 65.0961 109.209 65.6626 108.789 66.4433C108.368 67.2188 108.28 68.117 108.534 68.9645C108.949 70.3422 110.251 71.302 111.703 71.302C112.03 71.302 112.352 71.2507 112.663 71.1587L137.407 63.7436C139.145 63.218 140.135 61.386 139.612 59.6559C139.197 58.2574 137.89 57.2878 136.443 57.2878ZM58.0185 87.4989C55.9957 87.4989 53.304 86.4171 52.386 83.3682L37.8536 35.1256C36.614 31.0114 38.9479 26.6639 43.0504 25.4336L126.811 0.32905C127.538 0.111753 128.295 0 129.047 0C132.449 0 135.514 2.28524 136.5 5.55143L153.019 60.3843C153.765 62.8708 153.262 65.4846 151.639 67.5526C150.633 68.7508 149.305 69.6309 147.816 70.0763L99.6137 84.5188C99.5722 83.9037 99.4996 83.2942 99.3855 82.679C98.9913 80.5055 98.0422 78.4479 96.5693 76.5554C93.836 73.1464 89.7906 71.1949 85.4651 71.1949C84.0751 71.1949 82.6852 71.4018 81.3367 71.8049C79.6304 72.3191 78.0329 73.1568 76.5859 74.2965L61.6075 86.2313C60.8814 86.7513 60.2434 87.085 59.6159 87.2707C59.1076 87.4192 58.5734 87.4989 58.0185 87.4989Z" fill="#0090BA"/>
</g>
<defs>
<clipPath id="clip0_2396_4709">
<rect width="153" height="134" fill="white" transform="translate(0.5)"/>
</clipPath>
</defs>
</svg>
