<svg width="106" height="134" viewBox="0 0 106 134" fill="none" xmlns="http://www.w3.org/2000/svg">
<g clip-path="url(#clip0_2403_4840)">
<path d="M98.3985 32.6118L95.8153 33.038C86.8722 34.5782 77.358 34.686 67.4835 33.3974C58.5455 32.2165 47.4155 32.2165 38.4416 33.3974C28.6031 34.686 19.0528 34.5782 10.1149 33.038L7.5266 32.6118C4.01213 32.0009 0.672619 34.3677 0.0963085 37.8743C-0.516022 41.386 1.85611 44.718 5.37573 45.329L7.95883 45.7551C17.4011 47.3672 27.3836 47.5469 37.6543 46.438L37.397 78.177L36.4296 89.9238C40.0933 91.2843 42.7124 94.7961 42.7124 98.9547C42.7124 103.647 39.3369 107.513 34.8859 108.376L33.4143 126.032C33.0901 129.975 36.0334 133.415 39.9852 133.774C43.9371 134.092 47.4155 131.156 47.7397 127.218L51.5835 81.2215H54.3827L58.2214 127.218C58.5095 130.94 61.6689 133.774 65.3686 133.774H65.9758C69.9277 133.415 72.835 129.975 72.5159 126.032L68.5281 78.177L68.492 74.9887C64.1852 73.9824 60.9897 70.1524 60.9897 65.5676C60.9897 61.0188 64.1491 57.2196 68.384 56.2184L68.312 46.438C72.5159 46.9052 76.7148 47.1875 80.8055 47.1875C86.6921 47.1875 92.4398 46.7255 98.0022 45.7551L100.59 45.329C104.11 44.718 106.477 41.386 105.87 37.8743C105.258 34.3677 101.954 32.0009 98.3985 32.6118Z" fill="#3C5D67"/>
<path d="M38.6934 15.6641C39.3005 23.011 45.4444 28.7766 52.9828 28.7766C60.9122 28.7766 67.3391 22.3641 67.3391 14.4473C67.3391 6.53053 60.9122 0.118042 52.9828 0.118042C50.8628 0.118042 48.8508 0.585245 47.055 1.4067C47.8114 2.76724 48.2437 4.34341 48.2437 6.02739C48.2437 11.295 43.9676 15.6282 38.6934 15.6641Z" fill="#3C5D67"/>
<path d="M70.6221 59.535C67.2825 59.535 64.5708 62.2407 64.5708 65.5779C64.5708 68.9099 67.2825 71.6156 70.6221 71.6156C73.9667 71.6156 76.6733 68.9099 76.6733 65.5779C76.6733 62.2407 73.9667 59.535 70.6221 59.535Z" fill="#0090BA"/>
<path d="M39.1209 98.9341C39.1209 95.602 36.4091 92.8964 33.0696 92.8964C29.7249 92.8964 27.0132 95.602 27.0132 98.9341C27.0132 102.271 29.7249 104.977 33.0696 104.977C36.4091 104.977 39.1209 102.271 39.1209 98.9341Z" fill="#0090BA"/>
<path d="M38.6062 12.0805C41.9457 12.0805 44.6575 9.37487 44.6575 6.0377C44.6575 2.70054 41.9457 0 38.6062 0C35.2616 0 32.5498 2.70054 32.5498 6.0377C32.5498 9.37487 35.2616 12.0805 38.6062 12.0805Z" fill="#0090BA"/>
</g>
<defs>
<clipPath id="clip0_2403_4840">
<rect width="106" height="134" fill="white"/>
</clipPath>
</defs>
</svg>
