<svg width="198" height="60" viewBox="0 0 198 60" fill="none" xmlns="http://www.w3.org/2000/svg">
  <rect width="198" height="60" rx="10" fill="black"/>
  <g clip-path="url(#clip0_820_54)">
  <path d="M34.966 25.3147L22.2849 18.0669C22.1255 17.9744 21.925 17.9795 21.7708 18.072C21.6115 18.1645 21.5138 18.329 21.5138 18.5141C21.5138 18.5141 21.519 19.1823 21.5241 20.2823L30.7612 29.5194L34.966 25.3147Z" fill="url(#paint0_linear_820_54)"/>
  <path d="M21.5241 20.2822C21.5395 24.2505 21.5858 33.8834 21.6064 38.6793L30.7663 29.5193L21.5241 20.2822Z" fill="url(#paint1_linear_820_54)"/>
  <path d="M42.224 29.4627L34.9659 25.3145L30.756 29.5192L35.5057 34.2688L42.2292 30.3519C42.3885 30.2594 42.4862 30.0898 42.4862 29.9099C42.4862 29.7248 42.3834 29.5552 42.224 29.4627Z" fill="url(#paint2_linear_820_54)"/>
  <path d="M21.6012 38.6793C21.6115 40.391 21.6166 41.4859 21.6166 41.4859C21.6166 41.6709 21.7143 41.8405 21.8736 41.9279C22.033 42.0205 22.2283 42.0205 22.3877 41.9279L35.5108 34.274L30.7612 29.5244L21.6012 38.6793Z" fill="url(#paint3_linear_820_54)"/>
  </g>
  <path d="M62.6712 16.07C62.4005 15.5007 62.0085 15.062 61.4952 14.754C60.9818 14.4367 60.3845 14.278 59.7032 14.278C59.0218 14.278 58.4058 14.4367 57.8552 14.754C57.3138 15.062 56.8845 15.51 56.5672 16.098C56.2592 16.6767 56.1052 17.3487 56.1052 18.114C56.1052 18.8793 56.2592 19.5513 56.5672 20.13C56.8845 20.7087 57.3138 21.1567 57.8552 21.474C58.4058 21.782 59.0218 21.936 59.7032 21.936C60.6552 21.936 61.4392 21.6513 62.0552 21.082C62.6712 20.5127 63.0305 19.7427 63.1332 18.772H59.2412V17.736H64.4912V18.716C64.4165 19.5187 64.1645 20.256 63.7352 20.928C63.3058 21.5907 62.7412 22.118 62.0412 22.51C61.3412 22.8927 60.5618 23.084 59.7032 23.084C58.7978 23.084 57.9718 22.874 57.2252 22.454C56.4785 22.0247 55.8858 21.432 55.4472 20.676C55.0178 19.92 54.8032 19.066 54.8032 18.114C54.8032 17.162 55.0178 16.308 55.4472 15.552C55.8858 14.7867 56.4785 14.194 57.2252 13.774C57.9718 13.3447 58.7978 13.13 59.7032 13.13C60.7392 13.13 61.6538 13.3867 62.4472 13.9C63.2498 14.4133 63.8332 15.1367 64.1972 16.07H62.6712ZM73.1757 18.87C73.1757 19.1127 73.1617 19.3693 73.1337 19.64H67.0017C67.0483 20.396 67.305 20.9887 67.7717 21.418C68.2477 21.838 68.8217 22.048 69.4937 22.048C70.0443 22.048 70.5017 21.922 70.8657 21.67C71.239 21.4087 71.5003 21.0633 71.6497 20.634H73.0217C72.8163 21.3713 72.4057 21.9733 71.7897 22.44C71.1737 22.8973 70.4083 23.126 69.4937 23.126C68.7657 23.126 68.1123 22.9627 67.5337 22.636C66.9643 22.3093 66.5163 21.8473 66.1897 21.25C65.863 20.6433 65.6997 19.9433 65.6997 19.15C65.6997 18.3567 65.8583 17.6613 66.1757 17.064C66.493 16.4667 66.9363 16.0093 67.5057 15.692C68.0843 15.3653 68.747 15.202 69.4937 15.202C70.2217 15.202 70.8657 15.3607 71.4257 15.678C71.9857 15.9953 72.415 16.434 72.7137 16.994C73.0217 17.5447 73.1757 18.17 73.1757 18.87ZM71.8597 18.604C71.8597 18.1187 71.7523 17.7033 71.5377 17.358C71.323 17.0033 71.029 16.7373 70.6557 16.56C70.2917 16.3733 69.8857 16.28 69.4377 16.28C68.7937 16.28 68.243 16.4853 67.7857 16.896C67.3377 17.3067 67.081 17.876 67.0157 18.604H71.8597ZM76.4113 16.378V20.9C76.4113 21.2733 76.4906 21.5393 76.6493 21.698C76.808 21.8473 77.0833 21.922 77.4753 21.922H78.4133V23H77.2653C76.556 23 76.024 22.8367 75.6693 22.51C75.3146 22.1833 75.1373 21.6467 75.1373 20.9V16.378H74.1433V15.328H75.1373V13.396H76.4113V15.328H78.4133V16.378H76.4113ZM84.3473 14.082C84.1047 14.082 83.8993 13.998 83.7313 13.83C83.5633 13.662 83.4793 13.4567 83.4793 13.214C83.4793 12.9713 83.5633 12.766 83.7313 12.598C83.8993 12.43 84.1047 12.346 84.3473 12.346C84.5807 12.346 84.7767 12.43 84.9353 12.598C85.1033 12.766 85.1873 12.9713 85.1873 13.214C85.1873 13.4567 85.1033 13.662 84.9353 13.83C84.7767 13.998 84.5807 14.082 84.3473 14.082ZM84.9633 15.328V23H83.6893V15.328H84.9633ZM88.6886 16.378V20.9C88.6886 21.2733 88.768 21.5393 88.9266 21.698C89.0853 21.8473 89.3606 21.922 89.7526 21.922H90.6906V23H89.5426C88.8333 23 88.3013 22.8367 87.9466 22.51C87.592 22.1833 87.4146 21.6467 87.4146 20.9V16.378H86.4206V15.328H87.4146V13.396H88.6886V15.328H90.6906V16.378H88.6886ZM99.3127 23.126C98.594 23.126 97.9407 22.9627 97.3527 22.636C96.774 22.3093 96.3167 21.8473 95.9807 21.25C95.654 20.6433 95.4907 19.9433 95.4907 19.15C95.4907 18.366 95.6587 17.6753 95.9947 17.078C96.34 16.4713 96.8067 16.0093 97.3947 15.692C97.9827 15.3653 98.6407 15.202 99.3687 15.202C100.097 15.202 100.755 15.3653 101.343 15.692C101.931 16.0093 102.393 16.4667 102.729 17.064C103.074 17.6613 103.247 18.3567 103.247 19.15C103.247 19.9433 103.069 20.6433 102.715 21.25C102.369 21.8473 101.898 22.3093 101.301 22.636C100.703 22.9627 100.041 23.126 99.3127 23.126ZM99.3127 22.006C99.77 22.006 100.199 21.8987 100.601 21.684C101.002 21.4693 101.324 21.1473 101.567 20.718C101.819 20.2887 101.945 19.766 101.945 19.15C101.945 18.534 101.823 18.0113 101.581 17.582C101.338 17.1527 101.021 16.8353 100.629 16.63C100.237 16.4153 99.812 16.308 99.3547 16.308C98.888 16.308 98.4587 16.4153 98.0667 16.63C97.684 16.8353 97.376 17.1527 97.1427 17.582C96.9093 18.0113 96.7927 18.534 96.7927 19.15C96.7927 19.7753 96.9047 20.3027 97.1287 20.732C97.362 21.1613 97.67 21.4833 98.0527 21.698C98.4353 21.9033 98.8553 22.006 99.3127 22.006ZM108.66 15.188C109.593 15.188 110.349 15.4727 110.928 16.042C111.506 16.602 111.796 17.414 111.796 18.478V23H110.536V18.66C110.536 17.8947 110.344 17.3113 109.962 16.91C109.579 16.4993 109.056 16.294 108.394 16.294C107.722 16.294 107.185 16.504 106.784 16.924C106.392 17.344 106.196 17.9553 106.196 18.758V23H104.922V15.328H106.196V16.42C106.448 16.028 106.788 15.7247 107.218 15.51C107.656 15.2953 108.137 15.188 108.66 15.188Z" fill="white"/>
  <path d="M68.6053 33.576C68.6053 34.552 68.3813 35.448 67.9333 36.264C67.4853 37.064 66.7973 37.712 65.8693 38.208C64.9413 38.704 63.7893 38.952 62.4133 38.952H59.8693V45H55.7653V28.152H62.4133C63.7573 28.152 64.8933 28.384 65.8213 28.848C66.7493 29.312 67.4453 29.952 67.9093 30.768C68.3733 31.584 68.6053 32.52 68.6053 33.576ZM62.1013 35.688C62.8853 35.688 63.4693 35.504 63.8533 35.136C64.2373 34.768 64.4293 34.248 64.4293 33.576C64.4293 32.904 64.2373 32.384 63.8533 32.016C63.4693 31.648 62.8853 31.464 62.1013 31.464H59.8693V35.688H62.1013ZM74.8459 27.24V45H70.7419V27.24H74.8459ZM77.004 38.28C77.004 36.904 77.26 35.696 77.772 34.656C78.3 33.616 79.012 32.816 79.908 32.256C80.804 31.696 81.804 31.416 82.908 31.416C83.852 31.416 84.676 31.608 85.38 31.992C86.1 32.376 86.652 32.88 87.036 33.504V31.608H91.14V45H87.036V43.104C86.636 43.728 86.076 44.232 85.356 44.616C84.652 45 83.828 45.192 82.884 45.192C81.796 45.192 80.804 44.912 79.908 44.352C79.012 43.776 78.3 42.968 77.772 41.928C77.26 40.872 77.004 39.656 77.004 38.28ZM87.036 38.304C87.036 37.28 86.748 36.472 86.172 35.88C85.612 35.288 84.924 34.992 84.108 34.992C83.292 34.992 82.596 35.288 82.02 35.88C81.46 36.456 81.18 37.256 81.18 38.28C81.18 39.304 81.46 40.12 82.02 40.728C82.596 41.32 83.292 41.616 84.108 41.616C84.924 41.616 85.612 41.32 86.172 40.728C86.748 40.136 87.036 39.328 87.036 38.304ZM107.789 31.608L99.3891 51.36H94.9731L98.0451 44.544L92.5971 31.608H97.1811L100.277 39.984L103.349 31.608H107.789ZM120.455 45.168C119.223 45.168 118.119 44.968 117.143 44.568C116.167 44.168 115.383 43.576 114.791 42.792C114.215 42.008 113.911 41.064 113.879 39.96H118.247C118.311 40.584 118.527 41.064 118.895 41.4C119.263 41.72 119.743 41.88 120.335 41.88C120.943 41.88 121.423 41.744 121.775 41.472C122.127 41.184 122.303 40.792 122.303 40.296C122.303 39.88 122.159 39.536 121.871 39.264C121.599 38.992 121.255 38.768 120.839 38.592C120.439 38.416 119.863 38.216 119.111 37.992C118.023 37.656 117.135 37.32 116.447 36.984C115.759 36.648 115.167 36.152 114.671 35.496C114.175 34.84 113.927 33.984 113.927 32.928C113.927 31.36 114.495 30.136 115.631 29.256C116.767 28.36 118.247 27.912 120.071 27.912C121.927 27.912 123.423 28.36 124.559 29.256C125.695 30.136 126.303 31.368 126.383 32.952H121.943C121.911 32.408 121.711 31.984 121.343 31.68C120.975 31.36 120.503 31.2 119.927 31.2C119.431 31.2 119.031 31.336 118.727 31.608C118.423 31.864 118.271 32.24 118.271 32.736C118.271 33.28 118.527 33.704 119.039 34.008C119.551 34.312 120.351 34.64 121.439 34.992C122.527 35.36 123.407 35.712 124.079 36.048C124.767 36.384 125.359 36.872 125.855 37.512C126.351 38.152 126.599 38.976 126.599 39.984C126.599 40.944 126.351 41.816 125.855 42.6C125.375 43.384 124.671 44.008 123.743 44.472C122.815 44.936 121.719 45.168 120.455 45.168ZM136.589 41.52V45H134.501C133.013 45 131.853 44.64 131.021 43.92C130.189 43.184 129.773 41.992 129.773 40.344V35.016H128.141V31.608H129.773V28.344H133.877V31.608H136.565V35.016H133.877V40.392C133.877 40.792 133.973 41.08 134.165 41.256C134.357 41.432 134.677 41.52 135.125 41.52H136.589ZM144.971 45.192C143.659 45.192 142.475 44.912 141.419 44.352C140.379 43.792 139.555 42.992 138.947 41.952C138.355 40.912 138.059 39.696 138.059 38.304C138.059 36.928 138.363 35.72 138.971 34.68C139.579 33.624 140.411 32.816 141.467 32.256C142.523 31.696 143.707 31.416 145.019 31.416C146.331 31.416 147.515 31.696 148.571 32.256C149.627 32.816 150.459 33.624 151.067 34.68C151.675 35.72 151.979 36.928 151.979 38.304C151.979 39.68 151.667 40.896 151.043 41.952C150.435 42.992 149.595 43.792 148.523 44.352C147.467 44.912 146.283 45.192 144.971 45.192ZM144.971 41.64C145.755 41.64 146.419 41.352 146.963 40.776C147.523 40.2 147.803 39.376 147.803 38.304C147.803 37.232 147.531 36.408 146.987 35.832C146.459 35.256 145.803 34.968 145.019 34.968C144.219 34.968 143.555 35.256 143.027 35.832C142.499 36.392 142.235 37.216 142.235 38.304C142.235 39.376 142.491 40.2 143.003 40.776C143.531 41.352 144.187 41.64 144.971 41.64ZM158.26 33.84C158.74 33.104 159.34 32.528 160.06 32.112C160.78 31.68 161.58 31.464 162.46 31.464V35.808H161.332C160.308 35.808 159.54 36.032 159.028 36.48C158.516 36.912 158.26 37.68 158.26 38.784V45H154.156V31.608H158.26V33.84ZM177.046 38.088C177.046 38.472 177.022 38.872 176.974 39.288H167.686C167.75 40.12 168.014 40.76 168.478 41.208C168.958 41.64 169.542 41.856 170.23 41.856C171.254 41.856 171.966 41.424 172.366 40.56H176.734C176.51 41.44 176.102 42.232 175.51 42.936C174.934 43.64 174.206 44.192 173.326 44.592C172.446 44.992 171.462 45.192 170.374 45.192C169.062 45.192 167.894 44.912 166.87 44.352C165.846 43.792 165.046 42.992 164.47 41.952C163.894 40.912 163.606 39.696 163.606 38.304C163.606 36.912 163.886 35.696 164.446 34.656C165.022 33.616 165.822 32.816 166.846 32.256C167.87 31.696 169.046 31.416 170.374 31.416C171.67 31.416 172.822 31.688 173.83 32.232C174.838 32.776 175.622 33.552 176.182 34.56C176.758 35.568 177.046 36.744 177.046 38.088ZM172.846 37.008C172.846 36.304 172.606 35.744 172.126 35.328C171.646 34.912 171.046 34.704 170.326 34.704C169.638 34.704 169.054 34.904 168.574 35.304C168.11 35.704 167.822 36.272 167.71 37.008H172.846Z" fill="white"/>
  <defs>
  <linearGradient id="paint0_linear_820_54" x1="21.5138" y1="23.762" x2="34.9683" y2="23.762" gradientUnits="userSpaceOnUse">
  <stop stop-color="#63BE6B"/>
  <stop offset="0.506" stop-color="#5BBC6A"/>
  <stop offset="1" stop-color="#4AB96A"/>
  </linearGradient>
  <linearGradient id="paint1_linear_820_54" x1="21.5216" y1="29.483" x2="30.761" y2="29.483" gradientUnits="userSpaceOnUse">
  <stop stop-color="#3EC6F2"/>
  <stop offset="1" stop-color="#45AFE3"/>
  </linearGradient>
  <linearGradient id="paint2_linear_820_54" x1="30.761" y1="29.7949" x2="42.4849" y2="29.7949" gradientUnits="userSpaceOnUse">
  <stop stop-color="#FAA51A"/>
  <stop offset="0.387" stop-color="#FAB716"/>
  <stop offset="0.741" stop-color="#FAC412"/>
  <stop offset="1" stop-color="#FAC80F"/>
  </linearGradient>
  <linearGradient id="paint3_linear_820_54" x1="21.6035" y1="35.7607" x2="35.5106" y2="35.7607" gradientUnits="userSpaceOnUse">
  <stop stop-color="#EC3B50"/>
  <stop offset="1" stop-color="#E7515B"/>
  </linearGradient>
  <clipPath id="clip0_820_54">
  <rect width="24" height="24" fill="white" transform="translate(20 18)"/>
  </clipPath>
  </defs>
</svg>