<svg width="191" height="60" viewBox="0 0 191 60" fill="none" xmlns="http://www.w3.org/2000/svg">
  <rect width="191" height="60" rx="10" fill="black"/>
  <path d="M36.3984 30.9102C36.3984 31.0117 36.2461 34.0078 39.5469 35.582C38.9375 37.4609 36.8047 41.625 34.3164 41.625C32.8945 41.625 32.082 40.7109 30.457 40.7109C28.7812 40.7109 27.8672 41.625 26.5977 41.625C24.1602 41.7266 21.8242 37.1562 21.1641 35.2773C20.6562 33.8555 20.4531 32.4844 20.4531 31.1641C20.4531 26.6445 23.4492 24.4609 26.293 24.4102C27.6641 24.4102 29.3906 25.375 30.1523 25.375C30.8633 25.375 32.8438 24.207 34.6719 24.3594C36.5508 24.5117 37.9727 25.2227 38.9375 26.5938C37.2617 27.6602 36.3984 29.0312 36.3984 30.9102ZM33.5547 22.582C32.5391 23.75 31.3203 24.4102 30 24.3086C29.8984 22.9375 30.4062 21.668 31.3203 20.6523C32.1328 19.7383 33.5547 18.9766 34.7734 18.875C34.7734 19.4336 34.9258 20.957 33.5547 22.582Z" fill="white"/>
  <path d="M54.2527 13.242C55.3167 13.242 56.2361 13.4427 57.0107 13.844C57.7947 14.236 58.3921 14.8007 58.8027 15.538C59.2227 16.2753 59.4327 17.1433 59.4327 18.142C59.4327 19.1407 59.2227 20.0087 58.8027 20.746C58.3921 21.474 57.7947 22.034 57.0107 22.426C56.2361 22.8087 55.3167 23 54.2527 23H51.2147V13.242H54.2527ZM54.2527 21.95C55.5127 21.95 56.4741 21.6187 57.1367 20.956C57.7994 20.284 58.1307 19.346 58.1307 18.142C58.1307 16.9287 57.7947 15.9813 57.1227 15.3C56.4601 14.6187 55.5034 14.278 54.2527 14.278H52.4887V21.95H54.2527ZM64.4592 23.126C63.7405 23.126 63.0872 22.9627 62.4992 22.636C61.9205 22.3093 61.4632 21.8473 61.1272 21.25C60.8005 20.6433 60.6372 19.9433 60.6372 19.15C60.6372 18.366 60.8052 17.6753 61.1412 17.078C61.4865 16.4713 61.9532 16.0093 62.5412 15.692C63.1292 15.3653 63.7872 15.202 64.5152 15.202C65.2432 15.202 65.9012 15.3653 66.4892 15.692C67.0772 16.0093 67.5392 16.4667 67.8752 17.064C68.2205 17.6613 68.3932 18.3567 68.3932 19.15C68.3932 19.9433 68.2158 20.6433 67.8612 21.25C67.5158 21.8473 67.0445 22.3093 66.4472 22.636C65.8498 22.9627 65.1872 23.126 64.4592 23.126ZM64.4592 22.006C64.9165 22.006 65.3458 21.8987 65.7472 21.684C66.1485 21.4693 66.4705 21.1473 66.7132 20.718C66.9652 20.2887 67.0912 19.766 67.0912 19.15C67.0912 18.534 66.9698 18.0113 66.7272 17.582C66.4845 17.1527 66.1672 16.8353 65.7752 16.63C65.3832 16.4153 64.9585 16.308 64.5012 16.308C64.0345 16.308 63.6052 16.4153 63.2132 16.63C62.8305 16.8353 62.5225 17.1527 62.2892 17.582C62.0558 18.0113 61.9392 18.534 61.9392 19.15C61.9392 19.7753 62.0512 20.3027 62.2752 20.732C62.5085 21.1613 62.8165 21.4833 63.1992 21.698C63.5818 21.9033 64.0018 22.006 64.4592 22.006ZM80.2882 15.328L77.8942 23H76.5782L74.7302 16.91L72.8822 23H71.5662L69.1582 15.328H70.4602L72.2242 21.768L74.1282 15.328H75.4302L77.2922 21.782L79.0282 15.328H80.2882ZM85.2906 15.188C86.2239 15.188 86.9799 15.4727 87.5586 16.042C88.1373 16.602 88.4266 17.414 88.4266 18.478V23H87.1666V18.66C87.1666 17.8947 86.9753 17.3113 86.5926 16.91C86.2099 16.4993 85.6873 16.294 85.0246 16.294C84.3526 16.294 83.8159 16.504 83.4146 16.924C83.0226 17.344 82.8266 17.9553 82.8266 18.758V23H81.5526V15.328H82.8266V16.42C83.0786 16.028 83.4193 15.7247 83.8486 15.51C84.2873 15.2953 84.7679 15.188 85.2906 15.188ZM91.7817 12.64V23H90.5077V12.64H91.7817ZM97.299 23.126C96.5803 23.126 95.927 22.9627 95.339 22.636C94.7603 22.3093 94.303 21.8473 93.967 21.25C93.6403 20.6433 93.477 19.9433 93.477 19.15C93.477 18.366 93.645 17.6753 93.981 17.078C94.3263 16.4713 94.793 16.0093 95.381 15.692C95.969 15.3653 96.627 15.202 97.355 15.202C98.083 15.202 98.741 15.3653 99.329 15.692C99.917 16.0093 100.379 16.4667 100.715 17.064C101.06 17.6613 101.233 18.3567 101.233 19.15C101.233 19.9433 101.056 20.6433 100.701 21.25C100.356 21.8473 99.8843 22.3093 99.287 22.636C98.6897 22.9627 98.027 23.126 97.299 23.126ZM97.299 22.006C97.7563 22.006 98.1857 21.8987 98.587 21.684C98.9883 21.4693 99.3103 21.1473 99.553 20.718C99.805 20.2887 99.931 19.766 99.931 19.15C99.931 18.534 99.8097 18.0113 99.567 17.582C99.3243 17.1527 99.007 16.8353 98.615 16.63C98.223 16.4153 97.7983 16.308 97.341 16.308C96.8743 16.308 96.445 16.4153 96.053 16.63C95.6703 16.8353 95.3623 17.1527 95.129 17.582C94.8957 18.0113 94.779 18.534 94.779 19.15C94.779 19.7753 94.891 20.3027 95.115 20.732C95.3483 21.1613 95.6563 21.4833 96.039 21.698C96.4217 21.9033 96.8417 22.006 97.299 22.006ZM102.432 19.136C102.432 18.352 102.591 17.666 102.908 17.078C103.225 16.4807 103.659 16.0187 104.21 15.692C104.77 15.3653 105.391 15.202 106.072 15.202C106.744 15.202 107.327 15.3467 107.822 15.636C108.317 15.9253 108.685 16.2893 108.928 16.728V15.328H110.216V23H108.928V21.572C108.676 22.02 108.298 22.3933 107.794 22.692C107.299 22.9813 106.721 23.126 106.058 23.126C105.377 23.126 104.761 22.958 104.21 22.622C103.659 22.286 103.225 21.8147 102.908 21.208C102.591 20.6013 102.432 19.9107 102.432 19.136ZM108.928 19.15C108.928 18.5713 108.811 18.0673 108.578 17.638C108.345 17.2087 108.027 16.882 107.626 16.658C107.234 16.4247 106.8 16.308 106.324 16.308C105.848 16.308 105.414 16.42 105.022 16.644C104.63 16.868 104.317 17.1947 104.084 17.624C103.851 18.0533 103.734 18.5573 103.734 19.136C103.734 19.724 103.851 20.2373 104.084 20.676C104.317 21.1053 104.63 21.4367 105.022 21.67C105.414 21.894 105.848 22.006 106.324 22.006C106.8 22.006 107.234 21.894 107.626 21.67C108.027 21.4367 108.345 21.1053 108.578 20.676C108.811 20.2373 108.928 19.7287 108.928 19.15ZM111.893 19.136C111.893 18.352 112.052 17.666 112.369 17.078C112.686 16.4807 113.12 16.0187 113.671 15.692C114.231 15.3653 114.856 15.202 115.547 15.202C116.144 15.202 116.7 15.342 117.213 15.622C117.726 15.8927 118.118 16.252 118.389 16.7V12.64H119.677V23H118.389V21.558C118.137 22.0153 117.764 22.3933 117.269 22.692C116.774 22.9813 116.196 23.126 115.533 23.126C114.852 23.126 114.231 22.958 113.671 22.622C113.12 22.286 112.686 21.8147 112.369 21.208C112.052 20.6013 111.893 19.9107 111.893 19.136ZM118.389 19.15C118.389 18.5713 118.272 18.0673 118.039 17.638C117.806 17.2087 117.488 16.882 117.087 16.658C116.695 16.4247 116.261 16.308 115.785 16.308C115.309 16.308 114.875 16.42 114.483 16.644C114.091 16.868 113.778 17.1947 113.545 17.624C113.312 18.0533 113.195 18.5573 113.195 19.136C113.195 19.724 113.312 20.2373 113.545 20.676C113.778 21.1053 114.091 21.4367 114.483 21.67C114.875 21.894 115.309 22.006 115.785 22.006C116.261 22.006 116.695 21.894 117.087 21.67C117.488 21.4367 117.806 21.1053 118.039 20.676C118.272 20.2373 118.389 19.7287 118.389 19.15ZM128.908 23.126C128.19 23.126 127.536 22.9627 126.948 22.636C126.37 22.3093 125.912 21.8473 125.576 21.25C125.25 20.6433 125.086 19.9433 125.086 19.15C125.086 18.366 125.254 17.6753 125.59 17.078C125.936 16.4713 126.402 16.0093 126.99 15.692C127.578 15.3653 128.236 15.202 128.964 15.202C129.692 15.202 130.35 15.3653 130.938 15.692C131.526 16.0093 131.988 16.4667 132.324 17.064C132.67 17.6613 132.842 18.3567 132.842 19.15C132.842 19.9433 132.665 20.6433 132.31 21.25C131.965 21.8473 131.494 22.3093 130.896 22.636C130.299 22.9627 129.636 23.126 128.908 23.126ZM128.908 22.006C129.366 22.006 129.795 21.8987 130.196 21.684C130.598 21.4693 130.92 21.1473 131.162 20.718C131.414 20.2887 131.54 19.766 131.54 19.15C131.54 18.534 131.419 18.0113 131.176 17.582C130.934 17.1527 130.616 16.8353 130.224 16.63C129.832 16.4153 129.408 16.308 128.95 16.308C128.484 16.308 128.054 16.4153 127.662 16.63C127.28 16.8353 126.972 17.1527 126.738 17.582C126.505 18.0113 126.388 18.534 126.388 19.15C126.388 19.7753 126.5 20.3027 126.724 20.732C126.958 21.1613 127.266 21.4833 127.648 21.698C128.031 21.9033 128.451 22.006 128.908 22.006ZM138.255 15.188C139.189 15.188 139.945 15.4727 140.523 16.042C141.102 16.602 141.391 17.414 141.391 18.478V23H140.131V18.66C140.131 17.8947 139.94 17.3113 139.557 16.91C139.175 16.4993 138.652 16.294 137.989 16.294C137.317 16.294 136.781 16.504 136.379 16.924C135.987 17.344 135.791 17.9553 135.791 18.758V23H134.517V15.328H135.791V16.42C136.043 16.028 136.384 15.7247 136.813 15.51C137.252 15.2953 137.733 15.188 138.255 15.188ZM148.759 16.378V20.9C148.759 21.2733 148.838 21.5393 148.997 21.698C149.156 21.8473 149.431 21.922 149.823 21.922H150.761V23H149.613C148.904 23 148.372 22.8367 148.017 22.51C147.662 22.1833 147.485 21.6467 147.485 20.9V16.378H146.491V15.328H147.485V13.396H148.759V15.328H150.761V16.378H148.759ZM156.113 15.188C156.691 15.188 157.214 15.314 157.681 15.566C158.147 15.8087 158.511 16.1773 158.773 16.672C159.043 17.1667 159.179 17.7687 159.179 18.478V23H157.919V18.66C157.919 17.8947 157.727 17.3113 157.345 16.91C156.962 16.4993 156.439 16.294 155.777 16.294C155.105 16.294 154.568 16.504 154.167 16.924C153.775 17.344 153.579 17.9553 153.579 18.758V23H152.305V12.64H153.579V16.42C153.831 16.028 154.176 15.7247 154.615 15.51C155.063 15.2953 155.562 15.188 156.113 15.188ZM168.26 18.87C168.26 19.1127 168.246 19.3693 168.218 19.64H162.086C162.132 20.396 162.389 20.9887 162.856 21.418C163.332 21.838 163.906 22.048 164.578 22.048C165.128 22.048 165.586 21.922 165.95 21.67C166.323 21.4087 166.584 21.0633 166.734 20.634H168.106C167.9 21.3713 167.49 21.9733 166.874 22.44C166.258 22.8973 165.492 23.126 164.578 23.126C163.85 23.126 163.196 22.9627 162.618 22.636C162.048 22.3093 161.6 21.8473 161.274 21.25C160.947 20.6433 160.784 19.9433 160.784 19.15C160.784 18.3567 160.942 17.6613 161.26 17.064C161.577 16.4667 162.02 16.0093 162.59 15.692C163.168 15.3653 163.831 15.202 164.578 15.202C165.306 15.202 165.95 15.3607 166.51 15.678C167.07 15.9953 167.499 16.434 167.798 16.994C168.106 17.5447 168.26 18.17 168.26 18.87ZM166.944 18.604C166.944 18.1187 166.836 17.7033 166.622 17.358C166.407 17.0033 166.113 16.7373 165.74 16.56C165.376 16.3733 164.97 16.28 164.522 16.28C163.878 16.28 163.327 16.4853 162.87 16.896C162.422 17.3067 162.165 17.876 162.1 18.604H166.944Z" fill="white"/>
  <path d="M62.3705 42.024H56.0825L55.0745 45H50.7785L56.8745 28.152H61.6265L67.7225 45H63.3785L62.3705 42.024ZM61.3145 38.856L59.2265 32.688L57.1625 38.856H61.3145ZM73.6818 33.504C74.0818 32.88 74.6338 32.376 75.3378 31.992C76.0418 31.608 76.8658 31.416 77.8098 31.416C78.9138 31.416 79.9138 31.696 80.8098 32.256C81.7058 32.816 82.4098 33.616 82.9218 34.656C83.4498 35.696 83.7138 36.904 83.7138 38.28C83.7138 39.656 83.4498 40.872 82.9218 41.928C82.4098 42.968 81.7058 43.776 80.8098 44.352C79.9138 44.912 78.9138 45.192 77.8098 45.192C76.8818 45.192 76.0578 45 75.3378 44.616C74.6338 44.232 74.0818 43.736 73.6818 43.128V51.384H69.5778V31.608H73.6818V33.504ZM79.5378 38.28C79.5378 37.256 79.2498 36.456 78.6738 35.88C78.1138 35.288 77.4178 34.992 76.5858 34.992C75.7698 34.992 75.0738 35.288 74.4978 35.88C73.9378 36.472 73.6578 37.28 73.6578 38.304C73.6578 39.328 73.9378 40.136 74.4978 40.728C75.0738 41.32 75.7698 41.616 76.5858 41.616C77.4018 41.616 78.0978 41.32 78.6738 40.728C79.2498 40.12 79.5378 39.304 79.5378 38.28ZM89.9709 33.504C90.3709 32.88 90.9229 32.376 91.6269 31.992C92.3309 31.608 93.1549 31.416 94.0989 31.416C95.2029 31.416 96.2029 31.696 97.0989 32.256C97.9949 32.816 98.6989 33.616 99.2109 34.656C99.7389 35.696 100.003 36.904 100.003 38.28C100.003 39.656 99.7389 40.872 99.2109 41.928C98.6989 42.968 97.9949 43.776 97.0989 44.352C96.2029 44.912 95.2029 45.192 94.0989 45.192C93.1709 45.192 92.3469 45 91.6269 44.616C90.9229 44.232 90.3709 43.736 89.9709 43.128V51.384H85.8669V31.608H89.9709V33.504ZM95.8269 38.28C95.8269 37.256 95.5389 36.456 94.9629 35.88C94.4029 35.288 93.7069 34.992 92.8749 34.992C92.0589 34.992 91.3629 35.288 90.7869 35.88C90.2269 36.472 89.9469 37.28 89.9469 38.304C89.9469 39.328 90.2269 40.136 90.7869 40.728C91.3629 41.32 92.0589 41.616 92.8749 41.616C93.6909 41.616 94.3869 41.32 94.9629 40.728C95.5389 40.12 95.8269 39.304 95.8269 38.28ZM113.338 45.168C112.106 45.168 111.002 44.968 110.026 44.568C109.05 44.168 108.266 43.576 107.674 42.792C107.098 42.008 106.794 41.064 106.762 39.96H111.13C111.194 40.584 111.41 41.064 111.778 41.4C112.146 41.72 112.626 41.88 113.218 41.88C113.826 41.88 114.306 41.744 114.658 41.472C115.01 41.184 115.186 40.792 115.186 40.296C115.186 39.88 115.042 39.536 114.754 39.264C114.482 38.992 114.138 38.768 113.722 38.592C113.322 38.416 112.746 38.216 111.994 37.992C110.906 37.656 110.018 37.32 109.33 36.984C108.642 36.648 108.05 36.152 107.554 35.496C107.058 34.84 106.81 33.984 106.81 32.928C106.81 31.36 107.378 30.136 108.514 29.256C109.65 28.36 111.13 27.912 112.954 27.912C114.81 27.912 116.306 28.36 117.442 29.256C118.578 30.136 119.186 31.368 119.266 32.952H114.826C114.794 32.408 114.594 31.984 114.226 31.68C113.858 31.36 113.386 31.2 112.81 31.2C112.314 31.2 111.914 31.336 111.61 31.608C111.306 31.864 111.154 32.24 111.154 32.736C111.154 33.28 111.41 33.704 111.922 34.008C112.434 34.312 113.234 34.64 114.322 34.992C115.41 35.36 116.29 35.712 116.962 36.048C117.65 36.384 118.242 36.872 118.738 37.512C119.234 38.152 119.482 38.976 119.482 39.984C119.482 40.944 119.234 41.816 118.738 42.6C118.258 43.384 117.554 44.008 116.626 44.472C115.698 44.936 114.602 45.168 113.338 45.168ZM129.472 41.52V45H127.384C125.896 45 124.736 44.64 123.904 43.92C123.072 43.184 122.656 41.992 122.656 40.344V35.016H121.024V31.608H122.656V28.344H126.76V31.608H129.448V35.016H126.76V40.392C126.76 40.792 126.856 41.08 127.048 41.256C127.24 41.432 127.56 41.52 128.008 41.52H129.472ZM137.854 45.192C136.542 45.192 135.358 44.912 134.302 44.352C133.262 43.792 132.438 42.992 131.83 41.952C131.238 40.912 130.942 39.696 130.942 38.304C130.942 36.928 131.246 35.72 131.854 34.68C132.462 33.624 133.294 32.816 134.35 32.256C135.406 31.696 136.59 31.416 137.902 31.416C139.214 31.416 140.398 31.696 141.454 32.256C142.51 32.816 143.342 33.624 143.95 34.68C144.558 35.72 144.862 36.928 144.862 38.304C144.862 39.68 144.55 40.896 143.926 41.952C143.318 42.992 142.478 43.792 141.406 44.352C140.35 44.912 139.166 45.192 137.854 45.192ZM137.854 41.64C138.638 41.64 139.302 41.352 139.846 40.776C140.406 40.2 140.686 39.376 140.686 38.304C140.686 37.232 140.414 36.408 139.87 35.832C139.342 35.256 138.686 34.968 137.902 34.968C137.102 34.968 136.438 35.256 135.91 35.832C135.382 36.392 135.118 37.216 135.118 38.304C135.118 39.376 135.374 40.2 135.886 40.776C136.414 41.352 137.07 41.64 137.854 41.64ZM151.143 33.84C151.623 33.104 152.223 32.528 152.943 32.112C153.663 31.68 154.463 31.464 155.343 31.464V35.808H154.215C153.191 35.808 152.423 36.032 151.911 36.48C151.399 36.912 151.143 37.68 151.143 38.784V45H147.039V31.608H151.143V33.84ZM169.928 38.088C169.928 38.472 169.904 38.872 169.856 39.288H160.568C160.632 40.12 160.896 40.76 161.36 41.208C161.84 41.64 162.424 41.856 163.112 41.856C164.136 41.856 164.848 41.424 165.248 40.56H169.616C169.392 41.44 168.984 42.232 168.392 42.936C167.816 43.64 167.088 44.192 166.208 44.592C165.328 44.992 164.344 45.192 163.256 45.192C161.944 45.192 160.776 44.912 159.752 44.352C158.728 43.792 157.928 42.992 157.352 41.952C156.776 40.912 156.488 39.696 156.488 38.304C156.488 36.912 156.768 35.696 157.328 34.656C157.904 33.616 158.704 32.816 159.728 32.256C160.752 31.696 161.928 31.416 163.256 31.416C164.552 31.416 165.704 31.688 166.712 32.232C167.72 32.776 168.504 33.552 169.064 34.56C169.64 35.568 169.928 36.744 169.928 38.088ZM165.728 37.008C165.728 36.304 165.488 35.744 165.008 35.328C164.528 34.912 163.928 34.704 163.208 34.704C162.52 34.704 161.936 34.904 161.456 35.304C160.992 35.704 160.704 36.272 160.592 37.008H165.728Z" fill="white"/>
</svg>