<svg width="14" height="16" viewBox="0 0 14 16" fill="none" xmlns="http://www.w3.org/2000/svg">
  <path d="M7 8C9.1875 8 11 6.21875 11 4C11 1.8125 9.1875 0 7 0C4.78125 0 3 1.8125 3 4C3 6.21875 4.78125 8 7 8ZM3.25 13.25C3.25 13.6875 3.5625 14 4 14C4.40625 14 4.75 13.6875 4.75 13.25C4.75 12.8438 4.40625 12.5 4 12.5C3.5625 12.5 3.25 12.8438 3.25 13.25ZM10 9.03125V10.5625C11.125 10.7812 12 11.8125 12 13V14.3125C12 14.5625 11.8125 14.75 11.5938 14.8125L10.5625 15C10.4375 15.0312 10.3125 14.9375 10.2812 14.8125L10.1875 14.3125C10.1562 14.1875 10.25 14.0625 10.375 14.0312L11 13.9062V13C11 11.0625 8 10.9688 8 13.0625V13.9062L8.59375 14.0312C8.71875 14.0625 8.8125 14.1875 8.78125 14.3125L8.6875 14.8125C8.65625 14.9375 8.53125 15.0312 8.40625 15L7.40625 14.875C7.1875 14.8438 7 14.625 7 14.375V13C7 11.8125 7.84375 10.8125 9 10.5625V9.15625C8.90625 9.1875 8.84375 9.1875 8.78125 9.21875C8.21875 9.40625 7.625 9.53125 7 9.53125C6.375 9.53125 5.75 9.40625 5.1875 9.21875C4.96875 9.125 4.71875 9.09375 4.5 9.0625V11.5938C5.21875 11.8125 5.75 12.4688 5.75 13.2812C5.75 14.2188 4.96875 15.0312 4 15.0312C3.03125 15.0312 2.25 14.2188 2.25 13.2812C2.25 12.4688 2.78125 11.8125 3.5 11.5938V9.09375C1.5 9.40625 0 11.125 0 13.2188V14.625C0 15.375 0.625 16 1.375 16H12.5938C13.3438 16 14 15.375 14 14.625V13.2188C14 10.9688 12.2188 9.15625 10 9.03125ZM143.327 11.808C143.69 11.52 143.855 11.3867 143.823 11.408C144.868 10.544 145.69 9.83467 146.287 9.28C146.895 8.72533 147.407 8.144 147.823 7.536C148.239 6.928 148.447 6.336 148.447 5.76C148.447 5.32267 148.346 4.98133 148.143 4.736C147.94 4.49067 147.636 4.368 147.231 4.368C146.826 4.368 146.506 4.52267 146.271 4.832C146.047 5.13067 145.935 5.55733 145.935 6.112H143.295C143.316 5.20533 143.508 4.448 143.871 3.84C144.244 3.232 144.73 2.784 145.327 2.496C145.935 2.208 146.607 2.064 147.343 2.064C148.612 2.064 149.567 2.38933 150.207 3.04C150.858 3.69067 151.183 4.53867 151.183 5.584C151.183 6.72533 150.794 7.78667 150.015 8.768C149.236 9.73867 148.244 10.688 147.039 11.616H151.359V13.84H143.327V11.808ZM152.66 5.616C152.702 4.47467 153.076 3.59467 153.78 2.976C154.484 2.35733 155.438 2.048 156.644 2.048C157.444 2.048 158.126 2.18667 158.692 2.464C159.268 2.74133 159.7 3.12 159.988 3.6C160.286 4.08 160.436 4.61867 160.436 5.216C160.436 5.92 160.26 6.496 159.908 6.944C159.556 7.38133 159.145 7.68 158.676 7.84V7.904C159.284 8.10667 159.764 8.44267 160.116 8.912C160.468 9.38133 160.644 9.984 160.644 10.72C160.644 11.3813 160.489 11.968 160.18 12.48C159.881 12.9813 159.438 13.376 158.852 13.664C158.276 13.952 157.588 14.096 156.788 14.096C155.508 14.096 154.484 13.7813 153.716 13.152C152.958 12.5227 152.558 11.5733 152.516 10.304H155.172C155.182 10.7733 155.316 11.1467 155.572 11.424C155.828 11.6907 156.201 11.824 156.692 11.824C157.108 11.824 157.428 11.7067 157.652 11.472C157.886 11.2267 158.004 10.9067 158.004 10.512C158.004 10 157.838 9.632 157.508 9.408C157.188 9.17333 156.67 9.056 155.956 9.056H155.444V6.832H155.956C156.5 6.832 156.937 6.74133 157.268 6.56C157.609 6.368 157.78 6.032 157.78 5.552C157.78 5.168 157.673 4.86933 157.46 4.656C157.246 4.44267 156.953 4.336 156.58 4.336C156.174 4.336 155.87 4.45867 155.668 4.704C155.476 4.94933 155.364 5.25333 155.332 5.616H152.66Z" fill="#0090BA"/>
</svg>