<svg width="665" height="701" viewBox="0 0 665 701" fill="none" xmlns="http://www.w3.org/2000/svg">
<g opacity="0.1">
<path fill-rule="evenodd" clip-rule="evenodd" d="M411.149 433.374C415.091 407.839 420.375 383.725 427.454 361.54C457.395 267.689 516.783 204.762 634.744 203.788L664.072 203.546L664.531 265.387L635.203 265.629C548.662 266.344 505.018 312.403 483.05 381.255C478.554 395.348 474.872 410.276 471.859 425.892C523.667 421.535 579.277 421.164 634.914 421.046L664.242 420.983L664.361 482.827L635.033 482.89C576.073 483.016 517.101 482.98 463.296 488.402C458.139 545.055 458.235 607.151 458.235 669.223V700.154H193.512V669.223C193.512 544.796 253.035 482.216 342.281 450.65C363.522 443.138 386.645 437.542 411.149 433.374ZM404.009 497.353C388.926 500.557 374.52 504.479 360.938 509.284C303.503 529.597 262.944 567.507 254.018 638.311H399.624C399.799 590.076 400.596 542.357 404.009 497.353Z" fill="#0090BA"/>
<path fill-rule="evenodd" clip-rule="evenodd" d="M192.672 274.262C140.864 278.618 85.2536 278.99 29.6175 279.108L0.289124 279.171L0.169861 217.326L29.4981 217.263C88.4584 217.138 147.43 217.174 201.235 211.752C206.392 155.099 206.296 93.0024 206.296 30.931V9.15527e-05L471.019 9.15527e-05V30.931C471.019 155.358 411.496 217.938 322.25 249.504C301.009 257.016 277.886 262.612 253.382 266.78C249.44 292.315 244.156 316.429 237.077 338.614C207.136 432.465 147.748 495.392 29.7874 496.366L0.459045 496.608L-3.05176e-05 434.767L29.3282 434.525C115.869 433.81 159.513 387.751 181.481 318.899C185.977 304.806 189.659 289.878 192.672 274.262ZM260.522 202.8C275.605 199.597 290.011 195.675 303.593 190.87C361.028 170.556 401.587 132.646 410.513 61.8427H264.907C264.732 110.078 263.935 157.797 260.522 202.8Z" fill="#0DC8FF"/>
</g>
</svg>
