<svg width="34" height="34" viewBox="0 0 34 34" fill="none" xmlns="http://www.w3.org/2000/svg">
  <rect width="34" height="34" rx="8" fill="white"/>
  <path d="M17 26.25C12.0078 26.25 8 22.2422 8 17.25C8 12.293 12.0078 8.25 17 8.25C21.957 8.25 26 12.293 26 17.25C26 22.2422 21.957 26.25 17 26.25ZM16.1562 17.25C16.1562 17.5312 16.2969 17.8125 16.5078 17.9531L19.8828 20.2031C20.2695 20.4844 20.7969 20.3789 21.043 19.9922C21.3242 19.6055 21.2188 19.0781 20.832 18.7969L17.8438 16.8281V12.4688C17.8438 12.0117 17.457 11.625 16.9648 11.625C16.5078 11.625 16.1211 12.0117 16.1211 12.4688L16.1562 17.25Z" fill="#0090BA"/>
</svg>