<svg width="100%" height="100%" viewBox="0 0 261 261" version="1.1" xmlns="http://www.w3.org/2000/svg" xmlns:xlink="http://www.w3.org/1999/xlink" xml:space="preserve" xmlns:serif="http://www.serif.com/" style="fill-rule:evenodd;clip-rule:evenodd;stroke-linejoin:round;stroke-miterlimit:2;">
  <g transform="matrix(1,0,0,1,-1404.63,-1925.07)">
    <g transform="matrix(4.16667,0,0,4.16667,0,0)">
      <g transform="matrix(1,0,0,1,394.234,487.378)">
        <path d="M0,-10.669C-0.363,-10.079 -0.826,-9.888 -1.317,-9.924L-1.326,-9.924C-1.335,-9.924 -1.335,-9.924 -1.344,-9.934C-1.653,-9.961 -1.97,-10.079 -2.279,-10.233C-3.087,-8.562 -4.122,-6.547 -5.23,-4.494C-6.329,-2.442 -7.5,-0.363 -8.563,1.453C-10.224,4.277 -11.65,6.447 -12.222,6.837C-12.385,6.956 -12.458,7.201 -12.621,7.382C-14.074,7.573 -15.554,7.709 -17.052,7.818L-27.041,7.818C-26.232,6.229 -24.48,3.46 -22.346,0.3C-20.957,-1.743 -19.413,-3.95 -17.852,-6.111C-15.246,-9.707 -12.594,-13.175 -10.578,-15.518C-11.241,-16.09 -11.623,-16.807 -11.078,-17.706C-10.724,-18.305 -10.261,-18.487 -9.761,-18.451L-9.761,-18.46C-9.752,-18.46 -9.743,-18.451 -9.743,-18.451C-9.225,-18.405 -8.681,-18.124 -8.19,-17.815C-6.056,-16.489 -3.905,-15.182 -1.825,-13.765C-1.607,-13.629 -1.389,-13.493 -1.171,-13.357C-0.173,-12.721 0.708,-11.849 0,-10.669" style="fill:rgb(0,144,186);fill-rule:nonzero;"/>
      </g>
      <g transform="matrix(1,0,0,1,365.904,483.292)">
        <path d="M0,2.334C-0.054,1.798 -0.045,1.599 -0.036,1.526C0.009,1.117 0.054,0.709 0.136,0.309C1.861,0.2 3.596,0.109 5.321,0C5.811,0.01 6.293,0.019 6.783,0.046C6.329,0.691 5.884,1.335 5.457,1.962C5.412,1.953 5.357,1.953 5.312,1.953C3.541,2.089 1.771,2.207 0,2.334" style="fill:rgb(60,93,103);fill-rule:nonzero;"/>
      </g>
      <g transform="matrix(1,0,0,1,399.628,517.188)">
        <path d="M0,-25.651C0.009,-23.463 -0.427,-11.359 -0.427,-11.359C-0.427,-1.098 -8.753,7.228 -19.014,7.228L-24.335,7.228C-27.032,7.373 -29.719,7.382 -32.407,7.228L-37.891,7.228C-48.152,7.228 -56.478,-1.098 -56.478,-11.359C-56.478,-11.359 -56.724,-23.099 -56.896,-24.788C-57.059,-26.405 -56.415,-27.667 -55.089,-28.448C-53.609,-29.347 -52.047,-30.164 -50.431,-30.763C-47.171,-31.971 -43.775,-32.625 -40.352,-33.033C-40.216,-32.461 -40.062,-31.789 -39.889,-31.045C-43.149,-30.69 -46.381,-30.064 -49.405,-28.765C-50.395,-28.33 -51.357,-27.73 -52.183,-27.022C-53.137,-26.205 -53.11,-25.097 -52.174,-24.262C-51.43,-23.617 -50.567,-23.054 -49.659,-22.655C-46.717,-21.329 -43.548,-20.739 -40.361,-20.312C-38.354,-20.049 -36.357,-19.858 -34.35,-19.722L-22.364,-19.722C-19.486,-19.921 -16.608,-20.257 -13.729,-20.766C-11.096,-21.238 -8.49,-21.856 -6.129,-23.163C-5.112,-23.717 -4.013,-24.325 -4.05,-25.696C-4.068,-27.022 -5.13,-27.667 -6.147,-28.139C-7.609,-28.811 -9.126,-29.419 -10.678,-29.828C-10.778,-29.855 -10.869,-29.882 -10.969,-29.91C-10.624,-30.527 -10.27,-31.154 -9.934,-31.789C-9.57,-31.698 -9.216,-31.608 -8.862,-31.508C-6.756,-30.927 -4.731,-29.982 -2.724,-29.101C-1.998,-28.775 -1.335,-28.184 -0.817,-27.567C-0.4,-27.04 0,-26.305 0,-25.651" style="fill:rgb(60,93,103);fill-rule:nonzero;"/>
      </g>
      <g transform="matrix(1,0,0,1,375.638,481.194)">
        <path d="M0,-5.184C-0.418,-3.595 -1.18,-2.242 -2.606,-1.325C-3.45,-0.78 -4.358,-0.39 -5.294,-0.117C-5.893,0.055 -6.51,0.173 -7.146,0.255C-8.308,0.382 -9.489,0.4 -10.642,0.2C-10.696,0.191 -10.742,0.182 -10.796,0.173C-10.805,0.182 -10.805,0.2 -10.814,0.21C-11.05,0.773 -11.25,1.336 -11.368,1.953C-11.459,2.443 -11.523,2.934 -11.577,3.424C-11.641,3.996 -11.477,5.294 -11.232,6.811C-10.814,9.399 -10.161,12.64 -10.034,14.002L-10.288,14.002C-11.05,13.948 -11.804,13.893 -12.54,13.821C-12.567,13.684 -12.585,13.539 -12.594,13.403C-12.667,12.722 -12.63,12.94 -12.712,12.259C-12.803,11.469 -13.175,9.317 -13.62,7.011C-14.12,4.495 -14.719,1.808 -15.164,0.546C-15.236,0.346 -15.3,0.182 -15.364,0.064C-15.781,-0.771 -16.335,-1.525 -16.953,-2.233C-17.561,-2.932 -18.215,-3.577 -18.796,-4.312C-19.477,-5.166 -20.385,-5.919 -21.184,-6.673C-22.791,-8.199 -24.471,-9.651 -26.223,-11.004C-27.949,-12.348 -29.746,-13.592 -31.599,-14.736C-29.211,-12.548 -26.487,-10.16 -23.89,-7.645C-21.547,-5.384 -17.615,-0.39 -16.862,0.573C-16.816,0.636 -16.853,0.727 -16.925,0.745C-17.107,0.773 -17.289,0.836 -17.425,0.827C-17.588,0.845 -17.752,0.863 -17.915,0.882L-17.97,0.882C-18.66,0.945 -19.332,0.936 -20.058,0.927C-21.211,0.909 -22.364,0.918 -23.508,0.836C-23.527,0.836 -23.536,0.836 -23.545,0.827C-27.031,0.564 -30.019,-0.771 -32.325,-3.468C-34.196,-5.665 -35.567,-8.062 -36.566,-10.614C-37.528,-13.066 -38.136,-15.663 -38.518,-18.35C-38.581,-18.831 -38.273,-19.158 -37.773,-19.176C-37.483,-19.186 -37.192,-19.149 -36.893,-19.122C-34.405,-18.94 -31.935,-18.686 -29.492,-18.132C-29.084,-18.041 -28.684,-17.942 -28.275,-17.824C-25.488,-17.061 -22.637,-16.371 -20.076,-15C-18.333,-14.064 -16.753,-12.72 -15.709,-11.032C-15,-9.878 -14.637,-8.58 -14.619,-7.227C-14.601,-6.101 -14.637,-4.458 -15.255,-3.468C-15.255,-3.295 -15.227,-3.159 -15.155,-3.077C-14.41,-2.188 -13.738,-1.125 -13.103,0.164L-13.103,0.173L-13.094,0.182C-13.075,0.237 -13.057,0.3 -13.03,0.364C-12.966,0.555 -12.885,0.763 -12.812,0.963C-12.785,1.063 -12.748,1.163 -12.712,1.263C-12.639,1.063 -12.567,0.854 -12.494,0.664C-12.449,0.546 -12.403,0.427 -12.34,0.319C-12.276,0.155 -12.204,-0.008 -12.14,-0.154C-11.977,-0.499 -11.759,-0.88 -11.713,-1.27C-11.668,-1.706 -11.859,-2.151 -11.913,-2.587C-12.304,-5.547 -11.968,-8.426 -10.951,-11.231C-10.288,-13.047 -9.116,-14.4 -7.491,-15.399C-5.893,-16.389 -4.131,-17.006 -2.343,-17.56C-1.861,-17.687 -1.38,-17.824 -0.89,-17.942C-0.481,-18.041 -0.191,-17.824 -0.154,-17.415C0.036,-15.381 0.254,-13.356 0.409,-11.331C0.572,-9.261 0.536,-7.209 0,-5.184" style="fill:rgb(0,144,186);fill-rule:nonzero;"/>
      </g>
    </g>
  </g>
</svg>