<svg width="100%" height="100%" viewBox="0 0 222 264" version="1.1" xmlns="http://www.w3.org/2000/svg" xmlns:xlink="http://www.w3.org/1999/xlink" xml:space="preserve" xmlns:serif="http://www.serif.com/" style="fill-rule:evenodd;clip-rule:evenodd;stroke-linejoin:round;stroke-miterlimit:2;">
  <g transform="matrix(1,0,0,1,-1893.67,-38.8049)">
    <g transform="matrix(4.16667,0,0,4.16667,0,0)">
      <g transform="matrix(1,0,0,1,506.626,45.4692)">
        <path d="M0,-0.087C-0.816,-5.206 -2.335,-11.959 -7.793,-17.693L-7.976,-17.885L-8.234,-17.824C-9.316,-17.569 -10.433,-17.2 -11.554,-16.728L-12.215,-16.45L-11.689,-15.962C-6.212,-10.884 -4.715,-4.439 -3.921,0.538C-3.245,4.763 -2.585,10.288 -3.483,15.564C-3.666,16.639 -4.224,19.909 -5.556,21.3C-6.686,22.477 -9.07,23.18 -11.933,23.18C-12.408,23.18 -12.87,23.16 -13.308,23.121C-20.516,22.491 -27.835,19.202 -35.684,13.066C-42.299,7.897 -46.209,2.814 -47.637,-2.473C-48.433,-5.419 -48.345,-8.484 -47.384,-11.335C-46.933,-12.667 -46.236,-13.928 -45.497,-15.264L-45.48,-15.296C-44.85,-16.434 -44.199,-17.611 -43.675,-18.888C-43.542,-19.211 -41.971,-23.712 -41.306,-25.658C-41.149,-26.116 -45.018,-27.237 -45.173,-26.777C-45.814,-24.881 -47.269,-20.593 -47.347,-20.395C-47.38,-20.315 -47.413,-20.236 -47.447,-20.157C-47.867,-19.182 -48.39,-18.235 -48.945,-17.232L-48.96,-17.205C-49.756,-15.768 -50.578,-14.282 -51.145,-12.604C-52.358,-9.004 -52.471,-5.143 -51.469,-1.437C-49.808,4.709 -45.444,10.476 -38.129,16.194C-29.658,22.817 -21.652,26.377 -13.653,27.077C-13.097,27.125 -12.519,27.15 -11.933,27.15C-9.593,27.15 -5.28,26.746 -2.69,24.046C-0.738,22.009 0.026,18.608 0.431,16.226C1.424,10.384 0.723,4.439 0,-0.087" style="fill:rgb(60,93,103);fill-rule:nonzero;"/>
      </g>
      <g transform="matrix(1,0,0,1,483.533,28.9562)">
        <path d="M0,-6.969C-1.458,-5.917 -2.763,-4.772 -3.89,-3.56C-4.408,-3.887 -4.072,-3.573 -4.64,-3.804C-4.731,-3.841 -4.826,-3.878 -4.925,-3.914C-5.53,-4.136 -6.263,-4.327 -7.028,-4.409C-7.629,-4.475 -8.249,-4.474 -8.843,-4.368C-9.451,-4.259 -10.032,-4.042 -10.534,-3.675C-10.987,-3.345 -11.377,-2.894 -11.668,-2.293C-12.887,0.22 -12.098,4.131 -9.324,9.334C-8.67,10.559 -9.134,12.082 -10.36,12.734C-10.736,12.935 -11.14,13.031 -11.54,13.031C-12.439,13.031 -13.308,12.548 -13.76,11.7C-17.385,4.905 -18.18,-0.389 -16.194,-4.487C-15.291,-6.347 -13.972,-7.622 -12.441,-8.417C-13.313,-10.156 -19.388,-12.371 -22.186,-12.788C-23.56,-12.993 -24.507,-14.272 -24.302,-15.646C-24.098,-17.019 -22.817,-17.965 -21.445,-17.762C-16.415,-17.011 -8.871,-13.445 -7.438,-9.473C-7.27,-9.468 -7.102,-9.46 -6.935,-9.446C-5.823,-11.382 -6.088,-13.2 -7.633,-15.868C-8.329,-17.069 -7.92,-18.608 -6.718,-19.304C-5.517,-20 -3.978,-19.59 -3.282,-18.389C-1.075,-14.579 -0.629,-11.278 -1.984,-8.126C-0.951,-7.634 -0.88,-7.636 0,-6.969" style="fill:rgb(0,144,186);fill-rule:nonzero;"/>
      </g>
      <g transform="matrix(1,0,0,1,493.763,31.1244)">
        <path d="M0,5.202C-1.007,6.157 -2.599,6.115 -3.554,5.108C-4.053,4.581 -5.08,3.36 -6.005,2.251C-5.015,1.115 -3.681,0.002 -2.134,-0.955C-1.266,0.088 -0.337,1.193 0.094,1.648C1.049,2.656 1.008,4.247 0,5.202" style="fill:rgb(0,144,186);fill-rule:nonzero;"/>
      </g>
      <g transform="matrix(1,0,0,1,504.953,33.9943)">
        <path d="M0,-15.365C-0.181,-15.688 -0.492,-15.92 -0.853,-16.002C-1.869,-16.234 -2.986,-16.352 -4.172,-16.352C-8.315,-16.352 -13.154,-14.913 -17.447,-12.403C-22.739,-9.31 -26.347,-5.149 -27.606,-0.686C-27.706,-0.333 -27.653,0.048 -27.46,0.361C-27.266,0.674 -26.948,0.894 -26.586,0.963C-26.504,0.979 -26.421,0.987 -26.337,0.987C-25.751,0.987 -25.229,0.589 -25.067,0.018C-24.011,-3.723 -20.749,-7.421 -16.118,-10.128C-12.202,-12.417 -7.863,-13.73 -4.213,-13.73C-3.214,-13.73 -2.281,-13.631 -1.439,-13.435C-1.342,-13.413 -1.243,-13.401 -1.144,-13.401C-0.579,-13.401 -0.079,-13.763 0.101,-14.301C0.219,-14.653 0.182,-15.041 0,-15.365" style="fill:rgb(60,93,103);fill-rule:nonzero;"/>
      </g>
      <g transform="matrix(1,0,0,1,502.361,55.8203)">
        <path d="M0,-32.918C-0.51,-33 -1.062,-33.041 -1.643,-33.041C-4.786,-33.041 -8.752,-31.82 -12.251,-29.774C-15.736,-27.737 -18.331,-25.134 -19.558,-22.442C-19.877,-21.743 -19.897,-20.97 -19.612,-20.323C-19.283,-19.576 -18.635,-19.046 -17.833,-18.871C-16.459,-18.57 -16.29,-18.111 -16.538,-15.362C-16.582,-14.872 -16.628,-14.365 -16.648,-13.841C-16.678,-13.075 -16.719,-12.333 -16.887,-11.662C-17.268,-10.139 -18.338,-8.804 -19.438,-7.588C-19.92,-7.054 -19.885,-6.224 -19.36,-5.736C-19.116,-5.509 -18.798,-5.384 -18.465,-5.384C-18.092,-5.384 -17.734,-5.544 -17.483,-5.821C-16.793,-6.585 -15.935,-7.593 -15.273,-8.745C-14.602,-8.34 -13.989,-7.897 -13.446,-7.426C-13.422,-7.406 -13.399,-7.385 -13.375,-7.364C-13.398,-7.307 -13.417,-7.251 -13.432,-7.197C-13.537,-6.822 -13.753,-6.455 -14.038,-6.163C-14.463,-5.727 -14.552,-5.088 -14.258,-4.572C-14.023,-4.16 -13.581,-3.903 -13.106,-3.903C-12.759,-3.903 -12.433,-4.039 -12.188,-4.284C-11.963,-4.509 -11.761,-4.753 -11.583,-5.015L-11.531,-4.955C-10.887,-4.217 -10.906,-3.078 -10.923,-2.074L-10.925,-1.935C-10.929,-1.702 -10.933,-1.439 -10.929,-1.172C-10.919,-0.458 -10.328,0.123 -9.613,0.123C-9.548,0.123 -9.482,0.118 -9.417,0.108C-8.768,0.012 -8.285,-0.557 -8.294,-1.214C-8.297,-1.428 -8.294,-1.647 -8.291,-1.872L-8.29,-1.921C-8.283,-2.45 -8.276,-2.998 -8.34,-3.572C-8.391,-4.028 -8.485,-4.481 -8.62,-4.926C-6.247,-4.089 -4.112,-3.682 -2.104,-3.682C-1.793,-3.682 -1.504,-3.808 -1.29,-4.035C-1.077,-4.261 -0.966,-4.569 -0.985,-4.879L-1.007,-5.249C-1.044,-5.847 -1.541,-6.315 -2.139,-6.316C-4.034,-6.32 -6.123,-6.773 -8.527,-7.7L-8.643,-7.745C-9.624,-8.123 -10.639,-8.514 -11.449,-9.178C-12.302,-9.879 -13.224,-10.613 -14.274,-11.215C-14.277,-11.217 -14.28,-11.219 -14.284,-11.221C-14.095,-12.066 -14.048,-12.894 -14.015,-13.738C-13.997,-14.194 -13.955,-14.667 -13.913,-15.125C-13.707,-17.409 -13.426,-20.525 -17.131,-21.413C-16.125,-23.564 -13.872,-25.774 -10.922,-27.499C-7.855,-29.291 -4.288,-30.405 -1.612,-30.405C-1.182,-30.405 -0.781,-30.375 -0.418,-30.317C-0.348,-30.306 -0.277,-30.3 -0.206,-30.3C0.362,-30.3 0.865,-30.661 1.045,-31.198C1.168,-31.566 1.123,-31.966 0.922,-32.297C0.721,-32.63 0.385,-32.856 0,-32.918" style="fill:rgb(60,93,103);fill-rule:nonzero;"/>
      </g>
    </g>
  </g>
</svg>