<svg width="100%" height="100%" viewBox="0 0 254 261" version="1.1" xmlns="http://www.w3.org/2000/svg" xmlns:xlink="http://www.w3.org/1999/xlink" xml:space="preserve" xmlns:serif="http://www.serif.com/" style="fill-rule:evenodd;clip-rule:evenodd;stroke-linejoin:round;stroke-miterlimit:2;">
  <g transform="matrix(1,0,0,1,-2781.48,-1455.06)">
    <g transform="matrix(4.16667,0,0,4.16667,0,0)">
      <g transform="matrix(1,0,0,1,712.843,403.751)">
        <path d="M0,-54.504C-0.096,-54.464 -0.182,-54.417 -0.258,-54.355C-5.493,-50.027 -10.383,-44.734 -13.204,-38.361C-14.705,-34.971 -15.636,-31.359 -16.361,-27.682C-17.208,-23.372 -17.772,-18.977 -18.635,-14.758C-19.141,-12.278 -20.175,-9.906 -20.7,-7.427C-21.547,-3.439 -18.926,0.008 -15.207,0.073C-11.186,0.142 -8.387,-3.115 -9.269,-7.049C-10.777,-13.774 -11.83,-20.785 -11.183,-27.682C-11.052,-29.074 -10.854,-30.459 -10.574,-31.837C-10.276,-33.315 -9.879,-34.756 -9.398,-36.165C-7.238,-42.523 -3.425,-48.233 0.433,-53.704C0.489,-53.784 0.531,-53.873 0.565,-53.968C0.689,-54.317 0.342,-54.646 0,-54.504" style="fill:rgb(0,144,186);fill-rule:nonzero;"/>
      </g>
      <g transform="matrix(1,0,0,1,722.355,401.897)">
        <path d="M0,-16.425C-1.397,-16.425 -2.529,-17.557 -2.529,-18.954C-2.529,-20.351 -1.397,-21.484 0,-21.484C1.397,-21.484 2.529,-20.351 2.529,-18.954C2.529,-17.557 1.397,-16.425 0,-16.425M-1,6.914C-2.397,6.914 -3.53,5.782 -3.53,4.385C-3.53,2.988 -2.397,1.855 -1,1.855C0.397,1.855 1.529,2.988 1.529,4.385C1.529,5.782 0.397,6.914 -1,6.914M-9.336,-7.089C-10.733,-7.089 -11.865,-8.222 -11.865,-9.619C-11.865,-11.016 -10.733,-12.148 -9.336,-12.148C-7.939,-12.148 -6.806,-11.016 -6.806,-9.619C-6.806,-8.222 -7.939,-7.089 -9.336,-7.089M-38.503,-19.505C-38.503,-20.902 -37.37,-22.034 -35.973,-22.034C-34.576,-22.034 -33.444,-20.902 -33.444,-19.505C-33.444,-18.108 -34.576,-16.975 -35.973,-16.975C-37.37,-16.975 -38.503,-18.108 -38.503,-19.505M-45.012,-9.757C-46.409,-9.757 -47.541,-10.889 -47.541,-12.286C-47.541,-13.683 -46.409,-14.816 -45.012,-14.816C-43.615,-14.816 -42.482,-13.683 -42.482,-12.286C-42.482,-10.889 -43.615,-9.757 -45.012,-9.757M-46.012,4.247C-47.409,4.247 -48.541,3.115 -48.541,1.718C-48.541,0.321 -47.409,-0.812 -46.012,-0.812C-44.615,-0.812 -43.482,0.321 -43.482,1.718C-43.482,3.115 -44.615,4.247 -46.012,4.247M1.761,-26.05L-9.499,-26.05C-11.017,-26.05 -12.745,-26.237 -14.299,-25.938C-15.363,-25.734 -16.345,-25.302 -17.121,-24.428C-19.533,-21.706 -17.917,-17.547 -16.957,-14.553C-16.115,-11.928 -15.147,-9.325 -14.682,-6.597C-13.96,-2.353 -15.147,2.304 -19.092,4.503C-21.983,6.114 -25.638,6.255 -28.704,5.064C-31.379,4.025 -33.538,1.914 -34.368,-0.865C-34.42,-1.038 -34.467,-1.213 -34.51,-1.39C-34.713,-2.212 -34.811,-3.032 -34.825,-3.847C-34.821,-5.605 -34.431,-7.337 -33.832,-9.016C-32.854,-11.757 -31.607,-14.4 -30.556,-17.119C-30.126,-18.231 -29.861,-19.395 -29.871,-20.563C-29.857,-21.227 -29.93,-21.894 -30.111,-22.554C-30.625,-24.417 -31.95,-25.63 -33.835,-26.05L-50.576,-26.05C-52.908,-26.05 -54.799,-24.16 -54.799,-21.827L-54.799,7.663C-54.799,8.85 -53.837,9.812 -52.65,9.812L3.835,9.812C5.022,9.812 5.984,8.85 5.984,7.663L5.984,-21.827C5.984,-24.16 4.094,-26.05 1.761,-26.05" style="fill:rgb(60,93,103);fill-rule:nonzero;"/>
      </g>
    </g>
  </g>
</svg>