<svg width="100%" height="100%" viewBox="0 0 183 250" version="1.1" xmlns="http://www.w3.org/2000/svg" xmlns:xlink="http://www.w3.org/1999/xlink" xml:space="preserve" xmlns:serif="http://www.serif.com/" style="fill-rule:evenodd;clip-rule:evenodd;stroke-linejoin:round;stroke-miterlimit:2;">
  <g transform="matrix(1,0,0,1,-113.62,-2436.94)">
    <g transform="matrix(4.16667,0,0,4.16667,0,0)">
      <g transform="matrix(0.8964,0,0,0.8964,-51.2517,56.9349)">
        <g>
          <g transform="matrix(0.24,0,0,0.24,0,0)">
            <path d="M516.799,2704.98L514.786,2723.95C514.262,2728.89 509.825,2732.48 504.884,2731.95C499.944,2731.43 496.358,2726.99 496.882,2722.05L499.102,2701.13C504.566,2702.91 510.62,2704.34 516.799,2704.98ZM439.557,2699.48L441.952,2722.05C442.476,2726.99 438.891,2731.43 433.95,2731.95C429.009,2732.48 424.572,2728.89 424.048,2723.95L421.966,2704.33C428.265,2703.27 434.301,2701.49 439.557,2699.48ZM518.795,2515.57C520.691,2497.69 522.1,2484.42 522.64,2479.33C522.159,2478.33 521.406,2476.97 520.357,2475.63C518.91,2473.78 516.806,2471.71 513.571,2471.97C508.079,2472.42 503.41,2476.02 498.231,2479.14C490.468,2483.8 482.097,2488 471.834,2488L467,2488C456.737,2488 448.366,2483.8 440.603,2479.14C435.425,2476.02 430.755,2472.42 425.264,2471.97C422.028,2471.71 419.925,2473.78 418.478,2475.63C417.428,2476.97 416.675,2478.33 416.194,2479.33L420.94,2524.05C417.407,2518.58 414.207,2514.01 411.557,2510.73C408.571,2507.03 405.878,2504.62 403.953,2503.42C402.883,2502.76 401.705,2502.17 400.46,2501.68L398.048,2478.95C397.912,2477.67 398.053,2476.37 398.46,2475.15C398.46,2475.15 400.224,2469.74 404.304,2464.53C408.952,2458.6 416.343,2453.18 426.736,2454.03C433.524,2454.59 439.766,2457.63 446.049,2461.39C452.299,2465.13 458.581,2470 467,2470L471.834,2470C480.253,2470 486.535,2465.13 492.786,2461.39C499.068,2457.63 505.31,2454.59 512.098,2454.03C522.491,2453.18 529.882,2458.6 534.531,2464.53C538.61,2469.74 540.374,2475.15 540.374,2475.15C540.782,2476.37 540.922,2477.67 540.786,2478.95L538.527,2500.24C535.467,2500.81 532.478,2501.91 530.047,2503.42C528.122,2504.62 525.429,2507.03 522.443,2510.73C521.32,2512.12 520.099,2513.74 518.795,2515.57Z" style="fill:rgb(62,93,103);"/>
          </g>
          <g transform="matrix(0.24,0,0,0.24,0,0)">
            <path d="M436.904,2552.44C436.282,2552.07 435.76,2551.53 435.408,2550.87L430.73,2542.1C430.345,2541.38 430.3,2540.53 430.589,2539.79C430.646,2539.64 430.716,2539.49 430.799,2539.35C431.304,2538.51 432.211,2538 433.191,2538L500.681,2538C501.706,2538 502.655,2538.54 503.182,2539.42C503.262,2539.55 503.331,2539.69 503.387,2539.83C503.706,2540.62 503.664,2541.52 503.255,2542.29L498.719,2550.79C498.338,2551.51 497.765,2552.08 497.083,2552.47C496.471,2552.81 495.771,2553 495.042,2553L438.953,2553C438.219,2553 437.513,2552.8 436.904,2552.44Z" style="fill:rgb(60,93,103);"/>
          </g>
        </g>
        <g transform="matrix(0.24,0,0,0.24,0,0)">
          <path d="M467,2604C470.333,2604 472.728,2604.68 477,2611C480.487,2616.16 480.546,2616.66 481.732,2618C482.917,2619.34 484.858,2620.01 486,2619C487.116,2618.01 487.113,2617.43 487,2613C486.887,2608.57 487.953,2601.22 490,2598C492.047,2594.78 504.527,2559.96 514,2544C523.473,2528.04 531.872,2515.57 536,2513C540.128,2510.43 547.272,2509.99 549,2514C550.728,2518.01 551.083,2522.47 551,2528C550.917,2533.53 551.43,2536.11 556,2551C560.57,2565.89 569.481,2594.51 569,2619C568.519,2643.49 564.211,2663.04 557,2673C547.213,2686.51 534.155,2694.67 521,2694C507.845,2693.33 494.87,2688.1 488,2684C479.271,2678.79 471.255,2674.03 467,2674C462.745,2674.03 454.729,2678.79 446,2684C439.13,2688.1 426.155,2693.33 413,2694C399.845,2694.67 386.787,2686.51 377,2673C369.789,2663.04 365.481,2643.49 365,2619C364.519,2594.51 373.43,2565.89 378,2551C382.57,2536.11 383.083,2533.53 383,2528C382.917,2522.47 383.272,2518.01 385,2514C386.728,2509.99 393.872,2510.43 398,2513C402.128,2515.57 410.527,2528.04 420,2544C429.473,2559.96 441.953,2594.78 444,2598C446.047,2601.22 447.113,2608.57 447,2613C446.887,2617.43 446.884,2618.01 448,2619C449.142,2620.01 451.083,2619.34 452.268,2618C453.454,2616.66 453.513,2616.16 457,2611C461.272,2604.68 463.667,2604 467,2604Z" style="fill:rgb(10,144,187);"/>
        </g>
      </g>
    </g>
  </g>
</svg>