<svg width="100%" height="100%" viewBox="0 0 230 262" version="1.1" xmlns="http://www.w3.org/2000/svg" xmlns:xlink="http://www.w3.org/1999/xlink" xml:space="preserve" xmlns:serif="http://www.serif.com/" style="fill-rule:evenodd;clip-rule:evenodd;stroke-linejoin:round;stroke-miterlimit:2;">
  <g transform="matrix(1,0,0,1,-530.519,-1014.56)">
    <g transform="matrix(4.16667,0,0,4.16667,0,0)">
      <g transform="matrix(1,0,0,1,153.775,250.194)">
        <path d="M0,49.27C-0.123,49.272 -0.249,49.272 -0.372,49.272C-4.49,49.272 -8.562,48.234 -12.15,46.268C-12.836,45.892 -13.356,45.364 -13.685,44.739C-14.034,44.075 -14.166,43.301 -14.051,42.477C-13.878,41.244 -13.064,39.789 -11.306,39.273C-11.221,39.247 -11.133,39.224 -11.043,39.203C-10.964,39.187 -10.888,39.169 -10.812,39.15C-5.018,37.669 0.216,34.724 4.323,30.631C8.482,26.49 11.279,21.382 12.413,15.853C12.423,15.799 12.436,15.74 12.446,15.672C12.633,14.501 13.132,13.582 13.798,12.9C14.809,11.858 16.21,11.365 17.474,11.365C18.255,11.365 20.032,11.568 21.269,13.259C21.456,13.516 21.631,13.806 21.789,14.135C23.408,17.517 24.212,21.15 24.181,24.931C24.068,38.156 13.221,49.075 0,49.27M25.868,12.185C24.524,9.375 22.095,7.518 19.186,6.995C19.18,6.994 19.175,6.993 19.169,6.992C17.777,6.751 16.548,5.927 15.847,4.7C15.614,4.291 15.399,3.883 15.21,3.47C14.262,1.401 13.893,-0.98 14.172,-3.239C14.38,-4.928 13.18,-6.467 11.491,-6.676C9.801,-6.886 8.262,-5.684 8.053,-3.995C7.63,-0.567 8.168,2.903 9.608,6.041C9.613,6.052 9.618,6.063 9.623,6.074C11.12,9.322 8.544,12.755 7.775,15.87C7.021,18.929 5.621,21.817 3.759,24.353C0.009,29.461 -5.744,33.315 -11.926,34.769C-11.961,34.777 -11.998,34.786 -12.041,34.796C-14.146,35.274 -15.915,36.492 -17.085,38.163C-17.713,39.061 -18.515,39.816 -19.455,40.38C-20.74,41.151 -21.915,42.147 -22.936,43.346C-25.266,46.079 -26.544,49.656 -26.445,53.16C-26.398,54.83 -25.03,56.156 -23.367,56.156C-23.337,56.156 -23.308,56.154 -23.279,56.154C-21.578,56.106 -20.236,54.689 -20.283,52.985C-20.336,51.126 -19.742,49.352 -18.722,47.925C-18.304,47.339 -17.445,47.347 -17.013,47.922C-16.319,48.847 -15.412,49.636 -14.32,50.234C-10.071,52.562 -5.246,53.793 -0.372,53.793C-0.226,53.793 -0.078,53.793 0.068,53.789C7.673,53.678 14.834,50.624 20.232,45.189C25.628,39.758 28.636,32.577 28.7,24.97C28.739,20.494 27.785,16.192 25.868,12.185" style="fill:rgb(60,93,103);fill-rule:nonzero;"/>
      </g>
      <g transform="matrix(1,0,0,1,168.47,294.031)">
        <path d="M0,-7.941C1.484,-8.013 2.346,-6.27 1.376,-5.145C-2.51,-0.643 -8.216,2.257 -14.547,2.351C-14.652,2.353 -14.758,2.353 -14.863,2.353C-17.92,2.353 -20.947,1.699 -23.709,0.451C-23.714,0.449 -23.719,0.447 -23.724,0.444C-24.686,0 -24.703,-1.369 -23.766,-1.864C-23.657,-1.922 -23.569,-1.963 -23.515,-1.979C-18.209,-3.497 -13.362,-6.155 -9.354,-9.739C-8.873,-10.169 -8.187,-10.294 -7.592,-10.046C-7.473,-9.997 -7.355,-9.943 -7.238,-9.885C-6.401,-9.472 -5.674,-8.86 -4.825,-8.471C-3.35,-7.797 -1.657,-7.861 -0.036,-7.939C-0.024,-7.94 -0.012,-7.94 0,-7.941" style="fill:rgb(0,144,186);fill-rule:nonzero;"/>
      </g>
    </g>
  </g>
</svg>