<svg width="100%" height="100%" viewBox="0 0 119 265" version="1.1" xmlns="http://www.w3.org/2000/svg" xmlns:xlink="http://www.w3.org/1999/xlink" xml:space="preserve" xmlns:serif="http://www.serif.com/" style="fill-rule:evenodd;clip-rule:evenodd;stroke-linejoin:round;stroke-miterlimit:2;">
  <g transform="matrix(1,0,0,1,-145.595,-59.0895)">
    <g transform="matrix(4.16667,0,0,4.16667,0,0)">
      <g transform="matrix(0.948066,-0.318075,-0.318075,-0.948066,54.6854,27.1396)">
        <path d="M-2.3,-0.395C1.508,-0.445 4.827,2.829 4.884,6.693C4.945,10.782 1.814,13.99 -2.3,14.055C-6.318,14.117 -9.501,10.989 -9.563,6.914C-9.626,2.892 -6.412,-0.341 -2.3,-0.395" style="fill:rgb(60,93,103);fill-rule:nonzero;"/>
      </g>
      <g transform="matrix(1,0,0,1,61.539,61.7927)">
        <path d="M0,-16.206C-0.107,-16.258 -0.212,-16.319 -0.316,-16.385C-0.337,-16.586 -0.378,-16.787 -0.441,-16.987C-0.818,-18.181 -1.804,-18.819 -3.099,-18.912C-4.362,-19.003 -5.668,-19.078 -6.86,-19.457C-8.684,-20.039 -10.291,-21.111 -11.529,-22.57C-12.53,-23.749 -13.602,-25.137 -13.844,-26.763C-14.043,-28.106 -13.054,-29.377 -13.854,-30.636C-15.296,-32.915 -18.719,-33.136 -20.51,-31.059C-26.812,-23.753 -28.001,-13.732 -25.085,-4.622C-24.739,-3.541 -24.598,-2.586 -23.993,-1.647C-23.602,-0.782 -23.137,0.054 -22.583,0.86C-22.365,1.176 -22.318,1.656 -22.31,2.063C-22.292,3.197 -22.292,4.332 -22.288,5.467C-22.283,6.912 -22.276,8.358 -22.221,9.8C-22.141,11.937 -21.558,15.172 -19.059,15.731C-13.691,16.93 -14.252,6.969 -14.22,4.153C-14.211,3.408 -14.2,2.662 -14.181,1.919C-14.171,1.513 -14.134,1.032 -13.917,0.719C-11.988,-2.055 -11.388,-5.364 -11.569,-8.69C-11.681,-10.755 -11.965,-13.205 -12.828,-15.213C-12.925,-15.44 -12.657,-15.65 -12.461,-15.499C-10.703,-14.146 -8.975,-13.627 -6.938,-13.443C-5.809,-13.34 -4.585,-13.341 -3.208,-13.36C-2.624,-13.368 -1.977,-13.579 -1.477,-13.888C-1.174,-14.075 -0.929,-14.316 -0.741,-14.591C-0.504,-14.621 -0.319,-14.427 -0.136,-14.105C0.242,-13.442 0.003,-12.655 -0.362,-12.044C-0.689,-11.496 -1.41,-11.068 -1.41,-10.382L-1.41,10.896C-1.41,11.511 -0.912,12.01 -0.297,12.01C0.318,12.01 0.816,11.511 0.816,10.896C0.816,10.896 0.842,0.433 0.819,-4.422C0.805,-7.095 0.871,-9.73 1.746,-12.315C2.349,-14.098 1.587,-15.44 0,-16.206" style="fill:rgb(60,93,103);fill-rule:nonzero;"/>
      </g>
    </g>
  </g>
</svg>