<svg width="100%" height="100%" viewBox="0 0 260 234" version="1.1" xmlns="http://www.w3.org/2000/svg" xmlns:xlink="http://www.w3.org/1999/xlink" xml:space="preserve" xmlns:serif="http://www.serif.com/" style="fill-rule:evenodd;clip-rule:evenodd;stroke-linejoin:round;stroke-miterlimit:2;">
  <g transform="matrix(1,0,0,1,-1874.43,-539.176)">
    <g transform="matrix(4.16667,0,0,4.16667,0,0)">
      <g transform="matrix(1,0,0,1,490.231,168.192)">
        <path d="M0,-21.744C-0.036,-21.665 -0.077,-21.587 -0.124,-21.512C-0.377,-21.102 -0.813,-20.881 -1.08,-20.504C-1.414,-20.032 -1.654,-19.497 -1.796,-18.937C-1.868,-18.656 -1.92,-18.37 -1.957,-18.082C-2.037,-17.462 -2.077,-16.842 -2.117,-16.232C-2.147,-15.772 -2.177,-15.342 -2.217,-14.922C-2.447,-12.932 -2.837,-10.842 -3.407,-8.712C-3.567,-8.102 -3.737,-7.562 -3.907,-7.022C-4.547,-5.022 -5.207,-2.942 -4.367,0.068C-3.877,1.828 -3.557,4.248 -4.857,5.728L-5.327,6.268L-6.267,12.038C-6.297,12.178 -6.587,13.388 -8.807,13.788L-9.627,13.788C-11.847,13.388 -12.137,12.168 -12.167,12.008L-13.107,6.268L-13.587,5.728C-14.877,4.248 -14.557,1.828 -14.067,0.068C-13.227,-2.952 -13.887,-5.022 -14.527,-7.042C-14.697,-7.562 -14.867,-8.112 -15.027,-8.712C-15.597,-10.852 -15.997,-12.942 -16.217,-14.922C-16.257,-15.352 -16.287,-15.772 -16.317,-16.232C-16.357,-16.832 -16.397,-17.462 -16.477,-18.072C-16.587,-18.91 -16.816,-19.749 -17.297,-20.454C-17.594,-20.89 -18.019,-21.207 -18.42,-21.541C-19.147,-22.149 -18.959,-23.544 -18.081,-23.923C-17.828,-24.032 -17.553,-24.058 -17.298,-24.151C-17.036,-24.245 -16.778,-24.378 -16.517,-24.482L-16.407,-24.542C-12.087,-26.982 -6.387,-27.002 -1.987,-24.522C-1.987,-24.522 -1.868,-24.463 -1.867,-24.462C-0.996,-24.027 -0.039,-24.015 0.147,-22.859C0.208,-22.474 0.157,-22.092 0,-21.744M20.463,-37.372C19.383,-38.632 17.773,-39.072 15.863,-38.612C11.443,-37.522 8.073,-34.562 5.583,-29.572C4.773,-27.952 3.583,-27.162 1.963,-27.162C0.803,-27.162 -0.177,-27.582 -0.317,-27.642C-2.997,-29.152 -6.077,-29.952 -9.217,-29.952C-12.357,-29.952 -15.437,-29.152 -18.117,-27.642C-18.277,-27.572 -19.247,-27.162 -20.397,-27.162C-22.017,-27.162 -23.207,-27.952 -24.017,-29.572C-26.507,-34.562 -29.877,-37.522 -34.297,-38.612C-36.207,-39.072 -37.827,-38.632 -38.897,-37.372C-40.267,-35.762 -40.697,-32.892 -40.117,-29.282L-40.107,-29.232C-39.807,-27.862 -39.547,-26.482 -39.337,-25.152C-39.267,-24.692 -39.257,-24.202 -39.237,-23.682C-39.217,-22.852 -39.197,-21.992 -38.937,-21.122C-38.667,-20.252 -38.067,-19.682 -37.527,-19.172C-37.187,-18.842 -36.857,-18.532 -36.717,-18.212C-36.617,-17.982 -36.557,-17.712 -36.477,-17.422C-36.377,-17.002 -36.257,-16.512 -36.007,-16.022C-35.257,-14.592 -32.277,-11.852 -29.817,-11.852C-29.077,-11.852 -28.427,-12.112 -27.937,-12.592C-24.567,-15.862 -28.027,-19.642 -29.887,-21.672L-30.117,-21.922C-30.607,-22.452 -30.867,-23.242 -31.137,-24.082C-31.277,-24.492 -31.417,-24.922 -31.587,-25.332C-31.957,-26.192 -32.477,-26.822 -32.937,-27.382C-33.527,-28.092 -33.997,-28.652 -34.077,-29.572C-34.157,-30.552 -33.917,-31.682 -33.537,-32.102C-33.467,-32.182 -33.427,-32.182 -33.417,-32.182C-33.387,-32.182 -33.157,-32.172 -32.697,-31.772C-31.797,-30.982 -30.957,-29.882 -30.147,-28.832C-29.687,-28.222 -29.197,-27.592 -28.707,-27.022C-27.287,-25.382 -25.627,-23.482 -23.897,-21.712C-23.697,-21.512 -23.507,-21.282 -23.297,-21.042C-22.847,-20.522 -22.387,-19.992 -21.787,-19.552C-21.467,-19.322 -21.177,-19.142 -20.937,-18.992C-20.197,-18.532 -20.107,-18.472 -19.997,-17.622C-19.927,-17.092 -19.887,-16.562 -19.857,-16.002C-19.817,-15.522 -19.787,-15.022 -19.737,-14.532C-19.497,-12.372 -19.067,-10.112 -18.457,-7.802C-18.277,-7.122 -18.087,-6.532 -17.907,-5.962C-17.317,-4.102 -16.927,-2.882 -17.477,-0.882C-18.187,1.648 -18.557,5.178 -16.447,7.828L-15.677,12.508C-15.617,12.958 -14.967,16.558 -9.987,17.318L-8.527,17.328L-8.447,17.318C-3.467,16.558 -2.817,12.968 -2.757,12.508L-1.987,7.828C0.123,5.178 -0.247,1.648 -0.957,-0.882C-1.507,-2.882 -1.117,-4.102 -0.527,-5.962C-0.347,-6.532 -0.157,-7.122 0.023,-7.802C0.633,-10.112 1.063,-12.372 1.303,-14.532C1.353,-15.022 1.383,-15.522 1.423,-16.002C1.453,-16.562 1.493,-17.092 1.563,-17.622C1.673,-18.472 1.763,-18.532 2.503,-18.992C2.743,-19.142 3.033,-19.322 3.353,-19.552C3.953,-19.992 4.413,-20.522 4.863,-21.042C5.073,-21.282 5.263,-21.512 5.463,-21.712C7.193,-23.482 8.853,-25.382 10.273,-27.022C10.763,-27.592 11.253,-28.222 11.713,-28.832C12.523,-29.882 13.363,-30.982 14.263,-31.772C14.723,-32.172 14.953,-32.182 14.983,-32.182C14.993,-32.182 15.033,-32.182 15.103,-32.102C15.483,-31.682 15.723,-30.552 15.643,-29.572C15.563,-28.652 15.093,-28.092 14.503,-27.382C14.043,-26.822 13.523,-26.192 13.153,-25.332C12.983,-24.922 12.843,-24.492 12.703,-24.082C12.433,-23.242 12.173,-22.452 11.683,-21.922L11.453,-21.672C9.593,-19.642 6.133,-15.862 9.503,-12.592C9.993,-12.112 10.643,-11.852 11.383,-11.852C13.843,-11.852 16.823,-14.592 17.573,-16.022C17.823,-16.512 17.943,-17.002 18.043,-17.422C18.123,-17.712 18.183,-17.982 18.283,-18.212C18.423,-18.532 18.753,-18.842 19.093,-19.172C19.633,-19.682 20.233,-20.252 20.503,-21.122C20.763,-21.992 20.783,-22.852 20.803,-23.682C20.823,-24.202 20.833,-24.692 20.903,-25.152C21.113,-26.482 21.373,-27.852 21.673,-29.232L21.683,-29.282C22.263,-32.892 21.833,-35.762 20.463,-37.372" style="fill:rgb(60,93,103);fill-rule:nonzero;"/>
      </g>
      <g transform="matrix(1,0,0,1,485.117,166.036)">
        <path d="M0,-14.058C0.046,-14.739 0.093,-15.432 0.184,-16.14C0.289,-16.954 0.477,-17.707 0.742,-18.38C0.9,-18.782 0.896,-19.212 0.728,-19.593C0.571,-19.946 0.286,-20.217 -0.077,-20.355L-0.19,-20.396C-1.421,-20.818 -2.733,-21.033 -4.086,-21.033C-5.483,-21.033 -6.831,-20.806 -8.092,-20.357C-8.454,-20.226 -8.729,-19.971 -8.883,-19.631C-9.055,-19.253 -9.064,-18.807 -8.908,-18.405C-8.641,-17.717 -8.452,-16.954 -8.347,-16.139C-8.257,-15.441 -8.21,-14.755 -8.168,-14.147C-8.138,-13.667 -8.113,-13.287 -8.073,-12.936C-7.87,-11.096 -7.499,-9.153 -6.97,-7.158C-6.831,-6.632 -6.678,-6.153 -6.516,-5.644C-5.777,-3.319 -4.94,-0.684 -6.019,3.196C-6.472,4.825 -6.34,5.867 -6.168,6.064C-5.663,6.644 -4.934,6.975 -4.167,6.975L-3.995,6.975C-3.228,6.975 -2.499,6.644 -1.995,6.066C-1.823,5.869 -1.691,4.826 -2.144,3.196C-3.223,-0.683 -2.352,-3.424 -1.652,-5.626C-1.485,-6.151 -1.33,-6.639 -1.192,-7.158C-0.664,-9.156 -0.293,-11.099 -0.09,-12.933C-0.051,-13.282 -0.026,-13.659 0,-14.058" style="fill:rgb(0,144,186);fill-rule:nonzero;"/>
      </g>
    </g>
  </g>
</svg>