<svg width="100%" height="100%" viewBox="0 0 253 263" version="1.1" xmlns="http://www.w3.org/2000/svg" xmlns:xlink="http://www.w3.org/1999/xlink" xml:space="preserve" xmlns:serif="http://www.serif.com/" style="fill-rule:evenodd;clip-rule:evenodd;stroke-linejoin:round;stroke-miterlimit:2;">
  <g transform="matrix(1,0,0,1,-955.054,-1014.38)">
    <g transform="matrix(4.16667,0,0,4.16667,0,0)">
      <g transform="matrix(1,0,0,1,289.467,266.822)">
        <path d="M0,-5.478C-0.79,-3.261 -2.744,-1.539 -3.838,-0.719C-6.015,0.931 -8.262,2.552 -10.429,4.121C-11.411,4.84 -12.434,5.579 -13.437,6.308C-13.426,5.772 -13.426,5.417 -13.437,5.215C-13.497,4.141 -13.589,3.098 -13.69,2.106C-13.568,2.015 -13.457,1.924 -13.345,1.843C-11.665,0.587 -10.075,-0.719 -8.748,-1.813C-8.303,-2.177 -7.878,-2.572 -7.432,-2.977C-6.713,-3.645 -5.974,-4.324 -5.154,-4.901C-5.043,-4.972 -4.921,-5.053 -4.789,-5.144C-4.536,-5.306 -4.263,-5.488 -4.03,-5.68C-3.574,-6.065 -3.655,-6.177 -3.736,-6.288C-4.121,-6.825 -5.164,-7.189 -5.853,-7.432L-5.893,-7.442C-6.815,-7.766 -7.847,-7.939 -8.961,-7.949C-10.267,-7.959 -11.28,-7.969 -12.232,-7.969C-13.437,-7.969 -14.53,-7.959 -15.563,-7.928C-15.614,-8.232 -15.644,-8.536 -15.674,-8.84C-15.725,-9.538 -15.745,-10.227 -15.715,-10.905C-15.705,-11.077 -15.674,-11.381 -15.614,-11.786C-14.824,-11.766 -14.034,-11.746 -13.264,-11.725C-12.546,-11.705 -11.827,-11.685 -11.118,-11.665C-10.753,-11.665 -10.409,-11.634 -10.065,-11.594C-9.7,-11.563 -9.346,-11.533 -9.012,-11.533L-8.91,-11.533C-6.521,-11.533 -3.655,-10.743 -1.62,-9.538C0.466,-8.283 0.415,-6.642 0,-5.478" style="fill:rgb(60,93,103);fill-rule:nonzero;"/>
      </g>
      <g transform="matrix(1,0,0,1,254.17,291.893)">
        <path d="M0,-22.084C-0.233,-21.234 -0.466,-20.353 -0.729,-19.502L-0.759,-19.441L-1.083,-16.819L-1.175,-16.1C-1.296,-15.249 -1.407,-14.389 -1.519,-13.538L-1.61,-12.931L-2.056,-10.328L-2.197,-8.718C-2.217,-8.668 -2.228,-8.587 -2.228,-8.475C-2.197,-7.048 -2.582,-6.612 -4,-6.43C-6.561,-6.096 -8.374,-3.969 -9.832,-2.268C-9.964,-2.106 -10.105,-1.954 -10.237,-1.792C-11.918,0.142 -13.953,2.329 -16.353,3.827L-16.576,3.959C-17.254,4.384 -18.52,5.184 -19.34,5.184C-19.492,5.184 -19.603,5.154 -19.694,5.103C-19.998,4.901 -19.998,3.959 -19.998,3.402C-19.998,3.159 -20.008,2.926 -20.018,2.713C-20.069,2.167 -20.109,1.61 -20.15,1.063C-20.211,0.334 -20.271,-0.405 -20.332,-1.134C-20.514,-3.504 -20.676,-6.055 -20.687,-8.637C-20.707,-14.024 -19.775,-18.621 -17.851,-22.702C-15.229,-28.23 -10.926,-31.389 -5.073,-32.098C-3.868,-32.24 -2.572,-32.311 -1.002,-32.311C0.132,-32.311 1.286,-32.27 2.4,-32.24C3.088,-32.22 3.777,-32.2 4.475,-32.179C4.313,-31.906 4.151,-31.643 3.989,-31.369C3.098,-29.911 2.177,-28.392 1.499,-26.782C0.861,-25.253 0.425,-23.643 0,-22.084M6.197,-10.642L5.832,-10.328L5.751,-10.237C5.701,-10.176 5.65,-10.126 5.589,-10.065C4.222,-8.799 3.007,-7.767 1.407,-7.351C1.428,-7.675 1.458,-7.989 1.478,-8.313C1.58,-9.68 1.681,-10.966 1.823,-12.272C2.217,-16.171 2.865,-20.737 4.557,-25.01C5.488,-27.38 6.835,-29.223 8.566,-30.508C8.495,-30.63 8.414,-30.751 8.343,-30.863C7.797,-31.724 7.189,-32.493 6.561,-33.161C5.954,-33.799 3.848,-35.399 2.319,-36.533C1.478,-36.564 0.618,-36.584 -0.233,-36.584C-0.668,-36.584 -1.063,-36.584 -1.458,-36.574C-3.524,-36.513 -5.67,-36.24 -7.857,-35.743C-9.133,-35.46 -10.348,-34.974 -11.513,-34.508C-11.827,-34.387 -12.141,-34.265 -12.444,-34.144L-12.535,-34.103C-12.92,-33.901 -13.376,-33.617 -13.74,-33.384L-13.771,-33.384L-14.186,-33.08C-14.388,-32.918 -14.591,-32.767 -14.804,-32.625C-17.588,-30.671 -19.785,-28.007 -21.517,-24.484C-23.603,-20.251 -24.686,-15.482 -24.919,-9.468C-25.03,-6.521 -24.878,-3.544 -24.706,-1.023C-24.575,0.82 -24.433,2.906 -23.896,4.941C-23.501,6.46 -22.904,8.748 -20.869,9.234C-20.525,9.315 -20.16,9.356 -19.796,9.356C-17.477,9.356 -15.047,7.746 -13.275,6.571C-13.072,6.43 -12.87,6.298 -12.677,6.166C-12.454,6.024 -12.232,5.873 -12.009,5.731C-11.786,5.589 -11.574,5.447 -11.361,5.295C-11.725,5.923 -12.1,6.571 -12.454,7.219C-13.173,8.536 -13.852,9.963 -14.591,11.735C-15.006,12.707 -14.895,13.588 -14.287,14.145C-14.034,14.378 -13.73,14.5 -13.396,14.5C-12.627,14.5 -11.563,14.003 -9.447,10.287C-8.283,8.232 -7.301,6.065 -7.098,5.549C-6.44,3.949 -5.873,2.288 -5.316,0.678C-5.174,0.283 -5.043,-0.122 -4.901,-0.527C-4.344,-2.127 -3.382,-2.886 -1.792,-2.967C-0.982,-3.007 -0.192,-3.149 0.537,-3.291C3.645,-3.888 6.389,-5.478 9.417,-8.415C10.055,-9.042 10.753,-9.721 11.503,-10.419C11.563,-11.877 11.644,-13.973 11.705,-15.563C9.761,-13.832 7.493,-11.807 6.197,-10.642" style="fill:rgb(60,93,103);fill-rule:nonzero;"/>
      </g>
      <g transform="matrix(1,0,0,1,272.993,259.407)">
        <path d="M0,12.81C-0.16,10.103 -0.451,7.686 -0.889,5.42C-1.045,4.612 -1.24,3.808 -1.43,3.031C-1.779,1.595 -2.108,0.24 -2.224,-1.176C-2.291,-1.99 -2.307,-2.811 -2.272,-3.616C-2.207,-5.159 -0.864,-11.885 -0.444,-13.342C-0.294,-13.868 -0.356,-14.421 -0.621,-14.899C-0.886,-15.378 -1.321,-15.725 -1.847,-15.875C-2.032,-15.928 -2.222,-15.955 -2.413,-15.955C-3.32,-15.955 -4.13,-15.346 -4.383,-14.473C-4.807,-12.999 -6.18,-6.261 -6.304,-4.703C-8.379,-7.137 -13.894,-10.944 -13.977,-10.99C-14.28,-11.158 -14.622,-11.247 -14.968,-11.247C-15.713,-11.247 -16.401,-10.842 -16.763,-10.189C-17.307,-9.2 -16.947,-7.952 -15.96,-7.407C-15.951,-7.402 -11.317,-4.074 -10.072,-2.772C-9.3,-1.966 -8.577,-1.038 -7.923,-0.015C-5.438,3.878 -4.127,8.813 -4.024,14.654C-4.007,15.621 -4.304,22.784 -4.355,23.78C-4.398,24.653 -4.468,25.569 -4.565,26.503C-4.623,27.047 -4.465,27.581 -4.121,28.006C-3.777,28.431 -3.288,28.696 -2.739,28.755C-2.667,28.761 -2.597,28.765 -2.527,28.765C-2.376,28.765 -2.227,28.748 -2.08,28.716C-1.222,28.521 -0.583,27.804 -0.491,26.93C-0.301,25.119 -0.204,23.334 -0.204,21.624C-0.204,20.725 0.051,13.666 0,12.81" style="fill:rgb(0,144,186);fill-rule:nonzero;"/>
      </g>
    </g>
  </g>
</svg>