<svg width="100%" height="100%" viewBox="0 0 262 250" version="1.1" xmlns="http://www.w3.org/2000/svg" xmlns:xlink="http://www.w3.org/1999/xlink" xml:space="preserve" xmlns:serif="http://www.serif.com/" style="fill-rule:evenodd;clip-rule:evenodd;stroke-linejoin:round;stroke-miterlimit:2;">
  <g transform="matrix(1,0,0,1,-74.329,-1475.98)">
    <g transform="matrix(4.16667,0,0,4.16667,0,0)">
      <g transform="matrix(1,0,0,1,55.7238,357.042)">
        <path d="M0,54.048L10.302,54.048L10.463,45.029C10.489,44.822 10.507,44.623 10.522,44.445L10.525,44.405C10.559,44.045 10.59,43.704 10.658,43.381C11.084,41.382 12.081,37.807 13.978,36.263C14.242,36.047 14.601,35.845 14.986,35.699C18.247,34.463 20.006,32.151 20.075,29.014L20.084,28.601L20.306,28.252C20.698,27.634 21.001,26.943 21.183,26.254L21.227,26.088L21.307,25.936C21.372,25.815 21.433,25.688 21.488,25.558C22.192,23.914 21.878,22.525 21.462,21.129C21.402,20.923 21.341,20.725 21.281,20.53L21.203,20.28C21.055,19.797 20.956,19.305 20.887,18.724C20.836,18.27 20.808,17.832 20.773,17.263C20.715,16.263 20.66,15.329 20.384,14.326C19.688,11.793 17.972,9.862 15.286,8.584L14.9,8.401L14.671,8.041C13.382,6.018 11.399,4.746 8.777,4.262C8.271,4.168 7.769,4.133 7.284,4.099L6.955,4.077L6.732,3.984C4.536,3.075 2.16,2.458 -0.357,1.804C-1.151,1.598 -1.945,1.391 -2.737,1.175C-5.898,0.313 -8.382,0.021 -10.811,0.226C-13.328,0.441 -15.385,1.1 -17.101,2.238C-17.854,2.738 -18.717,3.092 -19.666,3.294C-20.107,3.387 -20.539,3.459 -20.943,3.526L-21.018,3.538C-21.325,3.588 -21.615,3.636 -21.887,3.698C-25.947,4.637 -28.351,6.517 -29.679,9.794C-30.175,11.025 -31.017,11.728 -31.759,12.347C-31.999,12.548 -32.226,12.737 -32.435,12.939C-34.531,14.956 -35.445,18.41 -34.609,21.151C-34.275,22.243 -33.712,22.803 -32.859,23.651C-32.634,23.873 -32.401,24.105 -32.163,24.355C-31.664,24.879 -31.294,25.478 -30.967,26.007C-30.559,26.668 -30.206,27.239 -29.733,27.509C-29.425,27.686 -29.02,27.771 -28.494,27.771C-27.787,27.771 -26.983,27.622 -26.132,27.463C-25.152,27.281 -24.129,27.093 -23.154,27.119C-21.852,27.154 -19.77,28.972 -19.751,28.99C-19.086,29.634 -18.735,30.39 -18.427,31.058C-18.239,31.463 -18.062,31.847 -17.845,32.125C-17.212,32.935 -15.838,33.499 -14.074,33.671C-12.955,33.78 -11.824,33.709 -10.793,33.465C-10.714,33.437 -10.481,33.345 -10.039,33.152C-9.445,32.891 -8.789,32.76 -8.088,32.76C-4.334,32.76 -0.135,36.463 -0.065,39.836L-0.057,40.171C-0.045,40.633 -0.029,41.096 -0.012,41.562C0.041,43.05 0.095,51.449 0,54.048M10.794,57.016L-0.523,57.016C-1.216,57.016 -1.88,56.724 -2.345,56.213C-2.807,55.718 -3.045,55.028 -2.986,54.334C-2.869,52.869 -2.924,43.186 -2.979,41.668C-2.996,41.191 -3.012,40.718 -3.024,40.248L-3.032,39.898C-3.069,38.144 -5.998,35.728 -8.088,35.728C-8.376,35.728 -8.632,35.776 -8.848,35.87C-9.756,36.268 -9.947,36.314 -10.062,36.342C-11.423,36.67 -12.902,36.767 -14.362,36.625C-15.872,36.478 -18.636,35.935 -20.185,33.951C-20.612,33.403 -20.882,32.819 -21.121,32.304C-21.349,31.809 -21.547,31.382 -21.814,31.124C-22.049,30.897 -22.977,30.261 -23.378,30.085C-24.022,30.09 -24.784,30.232 -25.589,30.382C-26.535,30.558 -27.513,30.74 -28.494,30.74C-29.551,30.74 -30.438,30.526 -31.207,30.086C-32.334,29.441 -32.949,28.446 -33.492,27.568C-33.767,27.123 -34.027,26.702 -34.314,26.401C-34.532,26.172 -34.745,25.961 -34.95,25.757C-35.907,24.806 -36.897,23.824 -37.448,22.017C-38.61,18.207 -37.396,13.594 -34.494,10.801C-34.209,10.526 -33.931,10.294 -33.662,10.069C-33.015,9.529 -32.639,9.199 -32.431,8.681C-30.748,4.529 -27.518,1.954 -22.553,0.806C-22.189,0.722 -21.838,0.664 -21.498,0.608L-21.423,0.596C-21.052,0.535 -20.659,0.47 -20.281,0.39C-19.7,0.266 -19.181,0.056 -18.742,-0.235C-16.602,-1.656 -14.089,-2.473 -11.063,-2.731C-8.276,-2.968 -5.464,-2.645 -1.955,-1.689C-1.175,-1.476 -0.393,-1.272 0.39,-1.069C2.925,-0.41 5.324,0.213 7.64,1.149C8.145,1.184 8.709,1.23 9.319,1.344C12.629,1.954 15.19,3.55 16.938,6.089C20.224,7.756 22.345,10.261 23.246,13.539C23.605,14.843 23.675,16.031 23.736,17.078C23.769,17.624 23.793,18.007 23.836,18.383C23.882,18.778 23.947,19.104 24.039,19.405L24.115,19.648C24.181,19.862 24.247,20.076 24.309,20.291C24.876,22.192 25.258,24.295 24.217,26.726C24.152,26.877 24.082,27.028 24.008,27.175C23.783,27.97 23.447,28.76 23.026,29.488C22.784,33.614 20.257,36.875 16.04,38.474C15.934,38.515 15.864,38.557 15.847,38.569C15.033,39.232 14.113,41.414 13.562,43.994C13.531,44.146 13.507,44.405 13.481,44.679C13.464,44.883 13.445,45.095 13.419,45.314L13.25,54.83C13.105,56.076 12.049,57.016 10.794,57.016" style="fill:rgb(60,93,103);fill-rule:nonzero;"/>
      </g>
      <g transform="matrix(1,0,0,1,45.0273,365.537)">
        <path d="M0,10.08C0.017,9.91 0.035,9.712 0.051,9.49C0.518,10.029 1.004,10.496 1.383,10.849C1.856,11.284 2.219,11.645 2.47,12.008C2.524,12.076 2.586,12.172 2.647,12.284L2.8,12.572C2.834,12.645 2.868,12.717 2.902,12.789C2.967,12.924 3.029,13.055 3.084,13.189C3.254,13.585 3.383,13.927 3.467,14.204C3.554,14.494 3.597,14.683 3.611,14.823L3.635,15.333L4.219,15.426L4.397,14.922C4.447,14.744 4.494,14.418 4.478,14.04C4.464,13.636 4.402,13.213 4.294,12.786C4.24,12.567 4.175,12.31 4.078,12.045L3.917,11.642C3.865,11.519 3.801,11.374 3.7,11.216C3.366,10.669 2.915,10.165 2.363,9.722C2.091,9.499 1.798,9.299 1.514,9.106C1.261,8.934 0.999,8.756 0.754,8.561C0.488,8.356 0.268,8.149 0.089,7.934L0.087,7.864C0.069,7.464 0.043,6.915 -0.065,6.36C-0.166,5.751 -0.327,5.184 -0.541,4.678C-0.611,4.504 -0.695,4.323 -0.797,4.126C-0.744,3.822 -0.661,3.544 -0.553,3.302C-0.537,3.268 -0.521,3.231 -0.506,3.194C-0.491,3.158 -0.478,3.12 -0.468,3.105L-0.335,2.907C-0.283,2.815 -0.19,2.709 -0.089,2.6C-0.009,2.499 0.105,2.4 0.217,2.302C0.32,2.204 0.449,2.108 0.562,2.023L1.416,1.388C1.536,1.299 1.655,1.21 1.774,1.11L1.97,0.943L2.354,0.565L2.554,0.309C2.668,0.169 2.738,0.035 2.801,-0.084C2.821,-0.123 2.841,-0.162 2.864,-0.202L2.878,-0.232C3.038,-0.609 3.137,-0.938 3.182,-1.237C3.289,-1.91 3.253,-2.484 3.209,-2.909C3.164,-3.36 3.1,-3.746 3.037,-4.093L2.823,-5.332L2.231,-5.346L2.179,-5.105C2.176,-5.09 2.097,-4.711 2.039,-4.05L1.946,-2.906C1.897,-2.43 1.846,-2.001 1.709,-1.563C1.655,-1.352 1.555,-1.149 1.461,-0.975C1.43,-0.933 1.4,-0.887 1.371,-0.842C1.347,-0.804 1.314,-0.752 1.297,-0.735L1.184,-0.599L1.028,-0.455L0.708,-0.203C0.594,-0.11 0.469,-0.014 0.337,0.085C0.269,0.139 0.198,0.192 0.126,0.246C-0.076,0.398 -0.284,0.555 -0.483,0.739C-0.617,0.854 -0.768,0.985 -0.907,1.136C-1.055,1.285 -1.198,1.433 -1.315,1.6C-1.438,1.754 -1.578,1.938 -1.69,2.167L-1.848,2.467C-1.867,2.508 -1.883,2.546 -1.896,2.584C-1.995,2.482 -2.096,2.381 -2.197,2.282C-2.278,2.205 -2.356,2.14 -2.434,2.075C-2.472,2.044 -2.51,2.012 -2.553,1.976L-2.734,1.825C-2.812,1.765 -2.861,1.733 -2.913,1.7L-2.967,1.664C-3.477,1.314 -4.086,1.051 -4.823,0.86C-5.448,0.684 -6.063,0.647 -6.699,0.623L-6.793,0.622C-7.369,0.622 -7.916,0.67 -8.41,0.762C-8.995,0.851 -9.513,1.011 -9.899,1.14C-10.301,1.277 -10.702,1.452 -11.093,1.661C-11.467,1.869 -11.737,2.044 -11.927,2.201C-12.135,2.348 -12.274,2.489 -12.376,2.591L-14.184,4.395L-12.025,3.146C-11.859,3.045 -11.696,2.96 -11.51,2.878C-11.33,2.785 -11.089,2.699 -10.81,2.6L-10.704,2.562C-10.385,2.46 -10.01,2.364 -9.598,2.279C-9.115,2.192 -8.676,2.137 -8.248,2.109C-7.828,2.072 -7.259,2.091 -6.768,2.116C-6.187,2.167 -5.689,2.256 -5.24,2.387C-4.677,2.545 -4.234,2.745 -3.869,3.009L-3.735,3.093L-3.579,3.218C-3.538,3.252 -3.495,3.286 -3.452,3.32C-3.383,3.375 -3.314,3.429 -3.261,3.479L-3.154,3.583C-3.006,3.727 -2.865,3.863 -2.736,4.027C-2.455,4.367 -2.233,4.684 -2.06,4.995C-2.042,5.092 -2.021,5.187 -1.999,5.279C-1.842,5.95 -1.587,6.566 -1.34,7.162L-1.23,7.428C-1.215,7.468 -1.197,7.509 -1.18,7.55L-1.176,7.559C-1.145,7.707 -1.114,7.855 -1.088,7.988C-0.956,8.77 -0.872,9.454 -0.811,9.953L-0.413,12.991L-0.099,10.911C-0.097,10.899 -0.053,10.602 0,10.08" style="fill:rgb(0,144,186);fill-rule:nonzero;"/>
      </g>
      <g transform="matrix(1,0,0,1,71.8301,367.738)">
        <path d="M0,3.536C-0.101,2.926 -0.262,2.359 -0.476,1.855C-0.729,1.228 -1.057,0.669 -1.441,0.205C-1.637,-0.054 -1.878,-0.291 -2.11,-0.52L-2.132,-0.542C-2.212,-0.619 -2.291,-0.684 -2.369,-0.748C-2.407,-0.78 -2.445,-0.811 -2.487,-0.848L-2.669,-0.999C-2.747,-1.059 -2.796,-1.091 -2.849,-1.125L-2.902,-1.16C-3.412,-1.51 -4.021,-1.773 -4.758,-1.964C-5.383,-2.14 -5.997,-2.176 -6.633,-2.201L-6.726,-2.201C-7.129,-2.201 -7.518,-2.178 -7.893,-2.131L-7.878,-2.178C-7.855,-2.254 -7.849,-2.29 -7.844,-2.326L-7.783,-2.653C-7.704,-3.185 -7.726,-3.64 -7.848,-4.041C-8.007,-4.583 -8.357,-4.976 -8.62,-5.209C-8.799,-5.372 -8.979,-5.514 -9.153,-5.653C-9.269,-5.745 -9.384,-5.836 -9.493,-5.928C-9.706,-6.114 -9.877,-6.29 -10.017,-6.47C-10.112,-6.592 -10.278,-6.631 -10.418,-6.565C-10.583,-6.487 -10.655,-6.291 -10.579,-6.124C-10.457,-5.854 -10.296,-5.591 -10.104,-5.352C-9.975,-5.183 -9.836,-5.028 -9.702,-4.878C-9.59,-4.752 -9.479,-4.628 -9.38,-4.502C-9.165,-4.226 -9.049,-3.993 -9.014,-3.765C-8.969,-3.495 -9.024,-3.202 -9.079,-2.945L-9.151,-2.691C-9.157,-2.673 -9.164,-2.649 -9.171,-2.624L-9.225,-2.495C-9.245,-2.45 -9.264,-2.404 -9.283,-2.359C-9.321,-2.268 -9.356,-2.183 -9.397,-2.135L-9.527,-1.942L-9.66,-1.81L-9.687,-1.779C-9.706,-1.754 -9.748,-1.727 -9.802,-1.694L-9.834,-1.684C-10.052,-1.609 -10.265,-1.526 -10.485,-1.427C-10.57,-1.409 -10.657,-1.392 -10.76,-1.38C-10.988,-1.34 -11.334,-1.306 -11.787,-1.278C-11.941,-1.269 -12.096,-1.261 -12.252,-1.253C-12.84,-1.222 -13.447,-1.191 -14.057,-1.106C-14.815,-1.006 -15.627,-0.864 -16.426,-0.508C-16.772,-0.348 -17.175,-0.148 -17.563,0.193C-17.751,0.348 -17.827,0.439 -17.953,0.59C-18.54,1.297 -18.529,2.134 -18.667,2.977C-18.756,3.518 -18.76,3.362 -19.255,3.638C-19.595,3.827 -19.934,4.097 -19.993,4.506C-20.04,4.832 -19.89,5.154 -19.713,5.433C-19.211,6.223 -18.238,6.812 -18.491,6.513C-18.744,6.213 -18.976,5.881 -19.064,5.499C-19.152,5.117 -19.07,4.676 -18.776,4.417C-18.731,4.378 -18.678,4.344 -18.621,4.315C-18.158,4.088 -17.776,3.721 -17.611,3.232C-17.523,2.972 -17.431,2.738 -17.384,2.6C-17.212,2.097 -17.04,1.655 -16.609,1.314C-16.437,1.178 -16.156,1.03 -15.834,0.907C-15.591,0.81 -15.324,0.747 -15.042,0.68L-14.895,0.644C-14.49,0.565 -14.173,0.517 -13.867,0.486C-13.564,0.454 -13.26,0.429 -12.95,0.405L-11.982,0.335L-11.511,0.298C-11.169,0.268 -10.874,0.242 -10.494,0.167C-10.042,0.086 -9.608,-0.068 -9.205,-0.289L-9.169,-0.313C-9.125,-0.346 -9.08,-0.377 -9.035,-0.409C-8.931,-0.482 -8.816,-0.563 -8.711,-0.665C-8.541,-0.685 -8.367,-0.703 -8.183,-0.715C-7.763,-0.752 -7.194,-0.733 -6.702,-0.708C-6.122,-0.656 -5.624,-0.568 -5.175,-0.436C-4.612,-0.279 -4.169,-0.079 -3.803,0.185L-3.67,0.269L-3.514,0.394C-3.473,0.428 -3.43,0.462 -3.387,0.496C-3.318,0.551 -3.249,0.606 -3.196,0.655L-3.087,0.761C-2.939,0.904 -2.8,1.04 -2.671,1.203C-2.29,1.664 -2.027,2.063 -1.843,2.464C-1.62,2.93 -1.446,3.39 -1.325,3.836C-1.193,4.295 -1.106,4.741 -1.023,5.164C-0.89,5.95 -0.806,6.636 -0.745,7.136L-0.348,10.167L-0.034,8.087C-0.032,8.075 0.012,7.778 0.065,7.256C0.124,6.657 0.181,5.925 0.152,5.041C0.134,4.64 0.108,4.092 0,3.536" style="fill:rgb(0,144,186);fill-rule:nonzero;"/>
      </g>
      <g transform="matrix(1,0,0,1,60.922,376.496)">
        <path d="M0,-2.764L0.05,-2.506L0.061,-2.464C0.151,-2.2 0.251,-1.94 0.36,-1.664C0.476,-1.419 0.597,-1.176 0.724,-0.931C0.764,-0.855 0.803,-0.78 0.842,-0.704C0.928,-0.536 1.015,-0.369 1.112,-0.206L2.054,1.377L1.657,-0.422C1.535,-0.975 1.38,-1.508 1.203,-1.986L1.01,-2.65C1.162,-2.578 1.314,-2.508 1.462,-2.441C1.677,-2.332 1.893,-2.228 2.132,-2.122C2.204,-2.096 2.274,-2.069 2.344,-2.041C2.502,-1.981 2.658,-1.92 2.817,-1.87L4.455,-1.355L3.085,-2.39C2.953,-2.49 2.818,-2.58 2.684,-2.67C2.62,-2.713 2.555,-2.756 2.494,-2.798L2.399,-2.864C2.235,-2.98 2.07,-3.096 1.898,-3.208C1.713,-3.324 1.521,-3.433 1.329,-3.542L1.237,-3.592C1.075,-3.664 0.906,-3.724 0.737,-3.784C0.666,-3.809 0.596,-3.834 0.526,-3.86L-0.23,-4.141L-0.104,-3.334C-0.075,-3.144 -0.037,-2.954 0,-2.764" style="fill:rgb(0,144,186);fill-rule:nonzero;"/>
      </g>
      <g transform="matrix(1,0,0,1,68.0372,387.878)">
        <path d="M0,-3.666C-0.346,-4.286 -0.766,-4.817 -1.174,-5.332L-1.348,-5.55C-1.547,-5.817 -1.8,-6.094 -2.183,-6.46L-2.283,-6.544C-2.54,-6.759 -2.806,-6.981 -3.089,-7.163C-3.735,-7.597 -4.388,-7.944 -4.886,-8.198C-5.443,-8.478 -5.881,-8.72 -6.216,-8.996C-6.277,-9.039 -6.351,-9.104 -6.427,-9.182L-6.815,-9.603C-6.907,-9.707 -6.995,-9.808 -7.08,-9.916C-7.351,-10.249 -7.563,-10.534 -7.711,-10.764C-7.864,-11.005 -7.953,-11.163 -7.993,-11.265L-8.22,-11.942L-9.216,-11.822L-9.263,-11.064C-9.262,-10.86 -9.215,-10.505 -9.087,-10.119C-8.957,-9.716 -8.774,-9.311 -8.545,-8.917C-8.429,-8.712 -8.291,-8.475 -8.116,-8.233L-7.848,-7.886C-7.751,-7.766 -7.641,-7.637 -7.496,-7.509C-7.006,-7.056 -6.411,-6.68 -5.73,-6.393C-5.402,-6.25 -5.065,-6.138 -4.725,-6.025C-4.439,-5.932 -4.146,-5.834 -3.859,-5.715C-3.557,-5.595 -3.302,-5.462 -3.087,-5.313C-2.849,-5.138 -2.648,-4.94 -2.452,-4.682C-2.049,-4.187 -1.723,-3.602 -1.508,-2.993C-1.306,-2.397 -1.239,-1.806 -1.313,-1.292C-1.321,-1.249 -1.327,-1.202 -1.332,-1.113L-1.413,-0.864C-1.433,-0.782 -1.503,-0.641 -1.552,-0.541C-1.597,-0.435 -1.671,-0.322 -1.75,-0.202C-1.817,-0.086 -1.908,0.032 -1.988,0.136L-2.654,1.006C-2.741,1.121 -2.828,1.235 -2.913,1.36L-3.345,2.087L-3.467,2.385C-3.547,2.577 -3.582,2.744 -3.61,2.879L-3.647,3.061C-3.7,3.491 -3.705,3.855 -3.664,4.172C-3.578,4.884 -3.379,5.443 -3.216,5.849C-3.048,6.275 -2.877,6.634 -2.719,6.958L-2.084,8.276L-1.111,8.022L-1.142,7.573C-1.143,7.569 -1.168,7.168 -1.301,6.485L-1.524,5.36C-1.587,5.008 -1.672,4.528 -1.66,4.044C-1.665,3.853 -1.629,3.656 -1.602,3.512C-1.579,3.457 -1.561,3.396 -1.539,3.322C-1.531,3.298 -1.524,3.27 -1.513,3.245L-1.456,3.11L-1.114,2.612C-1.032,2.494 -0.94,2.37 -0.839,2.237L-0.684,2.029C-0.526,1.821 -0.364,1.606 -0.223,1.374C-0.121,1.219 -0.007,1.042 0.085,0.86C0.191,0.667 0.293,0.475 0.363,0.277C0.444,0.081 0.534,-0.151 0.582,-0.416L0.652,-0.757C0.67,-0.858 0.673,-0.943 0.674,-1.033L0.675,-1.09C0.731,-1.916 0.504,-2.783 0,-3.666" style="fill:rgb(0,144,186);fill-rule:nonzero;"/>
      </g>
      <g transform="matrix(1,0,0,1,60.5889,389.551)">
        <path d="M0,-5.507C-0.113,-5.381 -0.266,-5.233 -0.42,-5.085C-0.599,-4.906 -0.784,-4.734 -0.984,-4.562C-1.123,-4.431 -1.284,-4.311 -1.464,-4.178L-1.785,-3.955C-1.861,-3.906 -1.938,-3.856 -1.975,-3.833C-2.053,-3.8 -2.129,-3.761 -2.216,-3.715C-2.272,-3.684 -2.329,-3.653 -2.403,-3.626C-2.929,-3.413 -3.476,-3.398 -3.976,-3.582C-4.239,-3.68 -4.51,-3.824 -4.788,-4.016C-5.044,-4.209 -5.309,-4.407 -5.53,-4.633C-5.755,-4.856 -5.993,-5.097 -6.204,-5.341C-6.412,-5.583 -6.606,-5.819 -6.78,-6.036C-7.469,-6.921 -7.922,-7.577 -7.928,-7.586L-8.955,-9.073L-8.648,-7.291C-8.633,-7.203 -8.481,-6.396 -7.95,-5.306C-7.602,-4.594 -7.217,-3.996 -6.773,-3.477C-6.396,-3.029 -5.988,-2.658 -5.558,-2.368L-6.286,-2.107L-4.671,-1.898L-4.598,-1.868C-4.403,-1.798 -4.186,-1.741 -3.948,-1.698C-3.935,-1.688 -3.912,-1.671 -3.877,-1.64C-3.842,-1.611 -3.806,-1.582 -3.787,-1.574L-3.696,-1.478C-3.642,-1.422 -3.59,-1.37 -3.526,-1.28C-3.452,-1.191 -3.388,-1.084 -3.296,-0.93C-3.242,-0.852 -3.2,-0.761 -3.151,-0.661L-3.099,-0.554C-2.972,-0.285 -2.856,0.004 -2.755,0.306C-2.654,0.602 -2.575,0.886 -2.521,1.095C-2.465,1.33 -2.423,1.531 -2.399,1.664L-2.121,3.566L-1.592,1.97C-1.592,1.97 -1.562,1.879 -1.513,1.691C-1.48,1.532 -1.441,1.278 -1.442,0.965C-1.443,0.638 -1.481,0.296 -1.551,-0.016C-1.612,-0.34 -1.729,-0.688 -1.923,-1.132L-1.982,-1.243C-2.054,-1.377 -2.129,-1.515 -2.207,-1.627C-2.246,-1.689 -2.289,-1.751 -2.337,-1.813C-2.128,-1.881 -1.914,-1.97 -1.69,-2.084C-1.521,-2.169 -1.37,-2.269 -1.209,-2.379L-1.113,-2.444C-1.004,-2.53 -0.9,-2.62 -0.801,-2.708L-0.653,-2.838C-0.331,-3.156 -0.115,-3.403 0.034,-3.625C0.26,-3.911 0.418,-4.184 0.511,-4.353C0.657,-4.588 0.758,-4.801 0.827,-4.96C0.977,-5.291 1.051,-5.482 1.051,-5.482L1.707,-7.155L0.406,-5.916C0.406,-5.916 0.255,-5.772 0,-5.507" style="fill:rgb(0,144,186);fill-rule:nonzero;"/>
      </g>
      <g transform="matrix(1,0,0,1,37.6314,378.888)">
        <path d="M0,-5.456L0.654,-7.129L-0.646,-5.889C-0.646,-5.889 -0.797,-5.746 -1.051,-5.481C-1.165,-5.355 -1.317,-5.207 -1.472,-5.06C-1.65,-4.88 -1.835,-4.708 -2.036,-4.536C-2.175,-4.405 -2.337,-4.285 -2.537,-4.136L-2.846,-3.923C-2.92,-3.875 -2.994,-3.829 -3.025,-3.808C-3.104,-3.775 -3.18,-3.735 -3.261,-3.691C-3.32,-3.66 -3.378,-3.628 -3.456,-3.6C-3.979,-3.387 -4.527,-3.372 -5.026,-3.556C-5.292,-3.655 -5.562,-3.799 -5.822,-3.977C-6.084,-4.174 -6.355,-4.376 -6.582,-4.607C-6.807,-4.831 -7.044,-5.07 -7.256,-5.316C-7.464,-5.558 -7.658,-5.794 -7.832,-6.01C-8.51,-6.883 -8.961,-7.533 -8.98,-7.56L-10.006,-9.047L-9.701,-7.269C-9.7,-7.262 -9.563,-6.432 -9.002,-5.28C-8.652,-4.565 -8.267,-3.967 -7.825,-3.451C-7.446,-3.002 -7.039,-2.631 -6.609,-2.342L-7.337,-2.081L-5.734,-1.877C-5.707,-1.865 -5.679,-1.853 -5.649,-1.843C-5.446,-1.768 -5.212,-1.708 -5.016,-1.682C-5.011,-1.68 -4.989,-1.666 -4.93,-1.616C-4.895,-1.586 -4.859,-1.557 -4.837,-1.547L-4.748,-1.452C-4.693,-1.396 -4.641,-1.344 -4.578,-1.255C-4.503,-1.165 -4.439,-1.058 -4.348,-0.907C-4.295,-0.828 -4.253,-0.738 -4.203,-0.636L-4.15,-0.528C-4.024,-0.262 -3.909,0.026 -3.807,0.333C-3.706,0.628 -3.627,0.914 -3.573,1.121C-3.516,1.356 -3.474,1.557 -3.452,1.691L-3.171,3.591L-2.644,1.996C-2.644,1.996 -2.613,1.904 -2.565,1.717C-2.532,1.558 -2.493,1.303 -2.494,0.991C-2.495,0.663 -2.533,0.321 -2.603,0.009C-2.664,-0.314 -2.78,-0.663 -2.975,-1.107L-3.045,-1.238C-3.114,-1.366 -3.185,-1.496 -3.259,-1.601C-3.298,-1.663 -3.34,-1.725 -3.388,-1.788C-3.179,-1.855 -2.965,-1.945 -2.741,-2.058C-2.566,-2.146 -2.411,-2.25 -2.261,-2.352L-2.165,-2.418C-2.055,-2.504 -1.953,-2.594 -1.853,-2.682L-1.705,-2.811C-1.381,-3.132 -1.166,-3.379 -1.018,-3.599C-0.795,-3.88 -0.635,-4.156 -0.54,-4.328C-0.387,-4.574 -0.286,-4.793 -0.225,-4.934C-0.075,-5.264 0,-5.456 0,-5.456" style="fill:rgb(0,144,186);fill-rule:nonzero;"/>
      </g>
      <g transform="matrix(1,0,0,1,46.2579,387.057)">
        <path d="M0,-5.51C-0.113,-5.384 -0.266,-5.236 -0.42,-5.089C-0.598,-4.91 -0.783,-4.738 -0.984,-4.565C-1.125,-4.432 -1.29,-4.311 -1.489,-4.162L-1.784,-3.958C-1.861,-3.909 -1.94,-3.859 -1.973,-3.837C-2.049,-3.806 -2.123,-3.767 -2.205,-3.724C-2.265,-3.691 -2.325,-3.658 -2.404,-3.629C-2.927,-3.416 -3.475,-3.401 -3.975,-3.585C-4.241,-3.684 -4.511,-3.828 -4.771,-4.007C-5.032,-4.203 -5.303,-4.405 -5.531,-4.636C-5.755,-4.859 -5.993,-5.099 -6.204,-5.345C-6.412,-5.587 -6.606,-5.823 -6.78,-6.039C-7.469,-6.925 -7.922,-7.581 -7.928,-7.59L-8.953,-9.074L-8.649,-7.295C-8.634,-7.208 -8.485,-6.407 -7.95,-5.309C-7.601,-4.596 -7.216,-3.997 -6.773,-3.481C-6.395,-3.032 -5.987,-2.66 -5.557,-2.371L-6.284,-2.11L-4.683,-1.906L-4.597,-1.871C-4.403,-1.802 -4.185,-1.744 -3.948,-1.7C-3.935,-1.692 -3.913,-1.674 -3.878,-1.646C-3.842,-1.614 -3.805,-1.583 -3.787,-1.577L-3.693,-1.479C-3.64,-1.424 -3.589,-1.372 -3.526,-1.283C-3.453,-1.196 -3.39,-1.089 -3.296,-0.935C-3.243,-0.856 -3.199,-0.764 -3.151,-0.664L-3.098,-0.558C-2.973,-0.291 -2.857,-0.002 -2.755,0.303C-2.654,0.598 -2.576,0.885 -2.521,1.092C-2.464,1.328 -2.423,1.528 -2.4,1.661L-2.119,3.564L-1.592,1.967C-1.592,1.967 -1.562,1.876 -1.514,1.688C-1.48,1.53 -1.441,1.276 -1.443,0.963C-1.443,0.635 -1.481,0.293 -1.551,-0.02C-1.613,-0.345 -1.729,-0.694 -1.924,-1.136L-1.984,-1.248C-2.055,-1.382 -2.128,-1.519 -2.208,-1.631C-2.246,-1.693 -2.289,-1.754 -2.336,-1.817C-2.127,-1.885 -1.913,-1.974 -1.69,-2.087C-1.514,-2.175 -1.359,-2.28 -1.208,-2.383L-1.114,-2.447C-1.006,-2.531 -0.905,-2.62 -0.802,-2.711L-0.653,-2.841C-0.328,-3.163 -0.112,-3.41 0.034,-3.628C0.252,-3.903 0.407,-4.168 0.511,-4.357C0.628,-4.544 0.732,-4.743 0.827,-4.963C0.977,-5.294 1.051,-5.485 1.051,-5.485L1.707,-7.159L0.406,-5.918C0.406,-5.918 0.255,-5.775 0,-5.51" style="fill:rgb(0,144,186);fill-rule:nonzero;"/>
      </g>
    </g>
  </g>
</svg>