<svg width="100%" height="100%" viewBox="0 0 260 237" version="1.1" xmlns="http://www.w3.org/2000/svg" xmlns:xlink="http://www.w3.org/1999/xlink" xml:space="preserve" xmlns:serif="http://www.serif.com/" style="fill-rule:evenodd;clip-rule:evenodd;stroke-linejoin:round;stroke-miterlimit:2;">
  <g transform="matrix(1,0,0,1,-515.519,-71.7054)">
    <g transform="matrix(4.16667,0,0,4.16667,0,0)">
      <g transform="matrix(1,0,0,1,173.06,55.1313)">
        <path d="M0,-19.079C-2.534,-17.282 -5.047,-15.451 -7.673,-13.806C-6.815,-16.435 -5.905,-19.053 -5.066,-21.689C-4.701,-22.828 -4.383,-23.977 -4.137,-25.139C-2.626,-23.796 -1.165,-22.492 0.281,-21.175C1.133,-20.401 0.729,-19.604 0,-19.079M-17.812,12.752C-23.41,18.659 -33.473,18.213 -40.283,11.757C-47.093,5.301 -48.076,-4.722 -42.478,-10.627C-36.88,-16.534 -26.817,-16.089 -20.008,-9.63C-13.198,-3.174 -12.214,6.847 -17.812,12.752M12.678,-19.525C11.847,-21.227 10.986,-22.977 9.811,-24.444C7.539,-27.274 5.052,-29.934 2.628,-32.633C2.078,-33.25 1.548,-33.89 1.023,-34.538C0.519,-35.125 0.042,-35.731 -0.43,-36.343C-0.834,-36.867 -1.23,-37.397 -1.632,-37.922L-30.464,-37.922C-32.004,-35.936 -33.738,-34.1 -35.729,-32.408C-38.997,-29.63 -40.747,-27.085 -38.769,-22.725C-38.41,-21.933 -38.378,-21.141 -38.585,-20.372C-38.782,-19.656 -39.176,-18.958 -39.703,-18.292C-41.298,-16.283 -43.234,-14.824 -44.97,-12.988C-48.145,-9.641 -49.558,-5.194 -49.307,-0.617L-49.307,-0.603C-49.391,2.699 -48.433,5.923 -46.56,8.539C-45.466,10.467 -44.055,12.287 -42.334,13.919C-42.329,13.921 -42.326,13.927 -42.324,13.929C-41.61,14.606 -41.028,15.409 -40.645,16.314C-40.288,17.145 -39.952,17.993 -39.569,18.824L-35.603,18.824L-35.603,18.835L-20.768,18.835C-16.259,18.835 -11.75,18.835 -7.235,18.843C-7.156,18.843 -7.088,18.84 -7.025,18.824C-6.802,18.79 -6.653,18.68 -6.511,18.439C-6.44,18.313 -6.369,18.189 -6.298,18.064C-5.202,16.083 -4.389,13.998 -4.095,11.736C-3.73,8.971 -4.1,6.277 -5.06,3.683C-5.921,1.356 -6.915,-0.921 -7.823,-3.232C-8.358,-4.596 -8.832,-5.984 -8.874,-7.461C-8.801,-7.49 -8.728,-7.518 -8.657,-7.547C-2.093,-10.32 4.478,-13.08 11.044,-15.868C12.686,-16.566 13.531,-17.778 12.678,-19.525" style="fill:rgb(60,93,103);fill-rule:nonzero;"/>
      </g>
      <g transform="matrix(1,0,0,1,148.492,56.4311)">
        <path d="M0,1.971C-0.164,2.164 -0.338,2.345 -0.521,2.512C-0.833,2.801 -1.164,3.05 -1.518,3.253C-2.191,3.644 -2.942,3.883 -3.778,3.945C-4.391,3.991 -5.001,3.952 -5.503,3.286C-5.126,3.132 -4.821,3.004 -4.513,2.886C-4.024,2.702 -3.522,2.548 -3.047,2.335C-2.65,2.158 -2.443,1.81 -2.588,1.381C-2.899,0.43 -3.483,-0.328 -4.434,-0.689C-4.657,-0.777 -5.116,-0.666 -5.244,-0.489C-5.405,-0.262 -5.378,0.128 -5.352,0.443C-5.342,0.597 -5.152,0.731 -4.909,1.056C-5.578,1.2 -6.093,1.354 -6.621,1.404C-6.877,1.423 -7.31,1.302 -7.379,1.131C-7.471,0.895 -7.385,0.476 -7.215,0.272C-6.805,-0.21 -6.31,-0.623 -5.834,-1.043C-4.768,-1.981 -4.634,-2.847 -5.49,-3.965C-5.864,-4.45 -5.995,-4.929 -6.005,-5.526C-6.044,-8.041 -8.048,-10.35 -10.537,-10.701C-12.61,-10.996 -14.486,-10.37 -16.099,-9.101C-17.909,-7.681 -18.254,-5.713 -17.913,-3.548C-17.506,-0.974 -16.591,1.2 -13.83,2.073C-13.102,2.302 -12.82,2.975 -12.695,3.667C-12.524,4.588 -12.423,5.519 -12.269,6.438C-11.987,8.104 -11.386,9.606 -9.996,10.675C-7.149,12.859 -2.076,12.967 0.859,10.914C2.719,9.612 3.24,7.789 2.348,5.697C2.06,5.021 2.289,4.529 3.027,4.404C3.394,4.342 3.798,4.401 4.168,4.483C4.657,4.591 5.129,4.772 5.605,4.926C7.189,5.431 8.025,4.696 8.402,3.116C8.484,2.768 8.291,2.355 8.225,1.974C7.845,2.076 7.464,2.181 7.084,2.289C7.064,2.292 7.044,2.312 7.031,2.328C6.464,3.024 5.854,2.811 5.205,2.453C4.408,2.014 3.614,1.545 2.771,1.213C1.528,0.731 0.869,0.961 0,1.971" style="fill:rgb(0,144,186);fill-rule:nonzero;"/>
      </g>
    </g>
  </g>
</svg>