<svg width="100%" height="100%" viewBox="0 0 228 265" version="1.1" xmlns="http://www.w3.org/2000/svg" xmlns:xlink="http://www.w3.org/1999/xlink" xml:space="preserve" xmlns:serif="http://www.serif.com/" style="fill-rule:evenodd;clip-rule:evenodd;stroke-linejoin:round;stroke-miterlimit:2;">
  <g transform="matrix(1,0,0,1,-2794.53,-1013.45)">
    <g transform="matrix(4.16667,0,0,4.16667,0,0)">
      <g transform="matrix(1,0,0,1,714.069,255.438)">
        <path d="M0,38.433C-1.678,39.299 -3.342,40.162 -4.972,41.007L-15.068,46.215C-16.482,43.172 -18.945,39.206 -24.012,38.537L-24.555,38.469C-26.937,38.174 -29.187,37.896 -31.334,37.196C-31.567,37.123 -31.819,37.019 -32.095,36.905C-32.548,36.709 -32.977,36.467 -33.368,36.189C-34.076,35.671 -34.41,34.568 -34.147,33.632L-34.115,33.53C-34.068,33.383 -34.016,33.218 -33.968,33.035C-33.61,31.67 -34.057,30.387 -35.166,29.564C-34.918,28.876 -34.978,28.195 -35.345,27.535C-35.109,27.07 -34.68,26.101 -34.962,24.972C-35.257,23.81 -36.126,23.06 -37.544,22.743L-38.01,22.635C-38.502,22.5 -38.825,22.35 -38.958,22.203C-39.019,22.125 -39.06,22.044 -39.089,21.95C-39.133,21.786 -39.119,21.76 -39.103,21.731C-38.149,20.018 -37.191,18.272 -36.261,16.575L-36.025,16.148C-35.606,15.387 -35.185,14.623 -34.755,13.85L-34.672,13.699C-34.148,12.838 -33.825,11.985 -33.684,11.09L-33.632,10.762L-33.683,10.434C-33.779,9.81 -33.836,9.167 -33.852,8.525C-33.913,4.94 -32.737,1.699 -30.258,-1.386C-27.76,-4.484 -24.904,-6.223 -20.708,-7.199C-15.555,-8.391 -10.786,-8.149 -6.486,-6.477C0.622,-3.701 4.987,1.364 6.488,8.577C7.297,12.47 6.817,16.362 5.062,20.145C4.473,21.41 3.833,22.693 3.208,23.945C2.676,25.011 2.127,26.115 1.605,27.214C0.415,29.711 -0.219,31.932 -0.39,34.203C-0.505,35.768 -0.252,37.267 0,38.433M10.665,7.709C8.852,-1.009 3.603,-7.118 -4.936,-10.451C-10.035,-12.437 -15.68,-12.744 -21.673,-11.354C-26.804,-10.162 -30.477,-7.912 -33.582,-4.061C-36.671,-0.218 -38.197,4.043 -38.118,8.621C-38.101,9.309 -38.046,10.005 -37.956,10.689C-38.026,10.937 -38.142,11.194 -38.31,11.469C-38.38,11.582 -38.448,11.704 -38.505,11.815C-39.008,12.722 -39.503,13.618 -40.005,14.53C-40.928,16.214 -41.883,17.955 -42.832,19.66C-43.414,20.71 -43.538,21.866 -43.188,23.137C-42.996,23.785 -42.686,24.377 -42.235,24.935C-41.606,25.678 -40.76,26.223 -39.653,26.595C-40.007,27.512 -39.957,28.345 -39.505,29.073C-39.519,29.146 -39.532,29.224 -39.542,29.305C-39.719,30.622 -39.284,31.751 -38.282,32.582C-38.973,35.216 -37.996,38.1 -35.857,39.654C-35.209,40.117 -34.507,40.513 -33.721,40.85C-33.395,40.984 -33.024,41.136 -32.626,41.262C-30.109,42.082 -27.55,42.398 -25.076,42.704L-24.556,42.769C-21.186,43.215 -19.685,46.17 -18.204,49.696C-17.825,50.596 -16.95,51.177 -15.974,51.177C-15.592,51.177 -15.211,51.085 -14.873,50.912C-13.773,50.349 -9.784,48.292 -6.466,46.581L-4.09,45.356C-1.712,44.122 0.748,42.846 3.223,41.571L3.484,41.437L3.754,41.182C4.227,40.711 4.725,39.878 4.414,38.589C4.034,36.995 3.773,35.77 3.865,34.521C3.995,32.793 4.501,31.054 5.458,29.047C5.954,28.001 6.484,26.938 6.998,25.908L7.03,25.843C7.659,24.581 8.31,23.277 8.931,21.943C11.082,17.309 11.665,12.52 10.665,7.709" style="fill:rgb(60,93,103);fill-rule:nonzero;"/>
      </g>
      <g transform="matrix(1,0,0,1,715.227,269.607)">
        <path d="M0,-6.283L-0.134,-6.723C-0.2,-6.939 -0.245,-7.162 -0.275,-7.425C-0.301,-7.647 -0.315,-7.863 -0.332,-8.14C-0.361,-8.648 -0.392,-9.173 -0.547,-9.738C-0.94,-11.173 -1.903,-12.263 -3.408,-12.979L-3.514,-13.072C-4.248,-14.223 -5.368,-14.945 -6.844,-15.218C-7.12,-15.269 -7.394,-15.289 -7.659,-15.307L-7.784,-15.329C-8.937,-15.806 -10.16,-16.124 -11.456,-16.461C-11.858,-16.565 -12.26,-16.67 -12.661,-16.779C-14.34,-17.237 -15.657,-17.388 -16.944,-17.278C-18.31,-17.161 -19.433,-16.8 -20.377,-16.172C-20.708,-15.953 -21.088,-15.797 -21.508,-15.708C-21.726,-15.663 -21.937,-15.627 -22.174,-15.588C-22.341,-15.561 -22.5,-15.534 -22.649,-15.5C-24.859,-14.989 -26.23,-13.908 -26.964,-12.099C-27.17,-11.588 -27.531,-11.287 -27.883,-10.993C-28.014,-10.884 -28.136,-10.782 -28.25,-10.672C-29.444,-9.522 -29.964,-7.552 -29.487,-5.987C-29.281,-5.312 -28.924,-4.957 -28.471,-4.507C-28.359,-4.396 -28.245,-4.282 -28.126,-4.158C-27.908,-3.929 -27.735,-3.648 -27.582,-3.4C-27.348,-3.022 -27.128,-2.665 -26.777,-2.465C-26.277,-2.178 -25.463,-2.27 -24.604,-2.43C-24.181,-2.509 -23.663,-2.605 -23.194,-2.597C-22.874,-2.588 -22.168,-2.112 -21.797,-1.785C-21.525,-1.523 -21.375,-1.198 -21.229,-0.884C-21.126,-0.661 -21.021,-0.43 -20.874,-0.242C-20.462,0.285 -19.658,0.632 -18.61,0.734C-17.982,0.798 -17.375,0.762 -16.725,0.603C-16.682,0.588 -16.552,0.538 -16.307,0.43C-16.069,0.326 -15.803,0.273 -15.515,0.273C-13.871,0.273 -11.963,1.93 -11.933,3.384L-11.906,4.269C-11.88,5.019 -11.853,9.296 -11.9,10.586L-11.919,11.105L-5.667,11.105L-5.58,6.075C-5.566,5.964 -5.557,5.858 -5.547,5.743C-5.532,5.579 -5.519,5.426 -5.488,5.281C-5.144,3.663 -4.591,2.446 -3.971,1.942C-3.879,1.866 -3.743,1.791 -3.599,1.737C-1.759,1.039 -0.725,-0.331 -0.687,-2.121L-0.647,-2.252C-0.421,-2.608 -0.245,-3.008 -0.119,-3.463C-0.079,-3.537 -0.041,-3.615 -0.007,-3.694C0.416,-4.681 0.228,-5.516 0,-6.283" style="fill:rgb(0,144,186);fill-rule:nonzero;"/>
      </g>
      <g transform="matrix(0.240776,0.0792795,-0.101115,0.307093,112.21,-301.114)">
        <path d="M2895,1074C2895.83,1067.18 2916.49,1066.77 2925,1071.18C2933.51,1075.58 2933.72,1076.66 2932,1080C2930.28,1083.34 2916.25,1083.77 2912,1083C2907.75,1082.23 2894.82,1082.76 2895,1074Z" style="fill:white;"/>
      </g>
    </g>
  </g>
</svg>