<svg width="100%" height="100%" viewBox="0 0 262 132" version="1.1" xmlns="http://www.w3.org/2000/svg" xmlns:xlink="http://www.w3.org/1999/xlink" xml:space="preserve" xmlns:serif="http://www.serif.com/" style="fill-rule:evenodd;clip-rule:evenodd;stroke-linejoin:round;stroke-miterlimit:2;">
  <g transform="matrix(1,0,0,1,-950.35,-1939)">
    <g transform="matrix(4.16667,0,0,4.16667,0,0)">
      <g transform="matrix(1,0,0,1,290.05,485.367)">
        <path d="M0,-3.519C-0.723,-4.269 -1.5,-4.965 -2.319,-5.606C-2.469,-5.728 -2.632,-5.851 -2.782,-5.96C-2.96,-5.551 -3.178,-5.142 -3.437,-4.733C-4.201,-3.519 -5.169,-2.578 -6.287,-1.937C-5.865,-1.61 -5.455,-1.296 -5.046,-0.955C-4.419,-0.437 -14.43,6.096 -13.911,7.051C-13.434,7.924 -12.657,7.31 -12.084,7.037C-7.897,5.019 -4.01,2.496 -0.273,-0.273C1.023,-1.228 1.118,-2.332 0,-3.519M-27.032,-1.16C-27.032,0.982 -28.75,2.7 -30.85,2.687C-33.033,2.673 -34.778,0.954 -34.765,-1.187C-34.751,-3.314 -32.978,-5.047 -30.823,-5.033C-28.695,-5.019 -27.032,-3.314 -27.032,-1.16M-35.378,-15.425C-44.298,-14.621 -52.317,-11.457 -59.341,-5.851C-60.023,-5.292 -60.691,-4.706 -61.292,-4.051C-62.26,-2.987 -62.192,-1.719 -61.046,-0.873C-57.732,1.582 -54.39,3.996 -51.022,6.383C-50.367,6.86 -49.59,7.174 -48.826,7.487C-48.308,7.705 -47.721,7.569 -47.612,6.983C-47.544,6.614 -47.789,6.069 -48.076,5.81C-50.844,3.368 -53.559,1.091 -56.027,-1.664C-51.526,-5.265 -46.603,-7.638 -41.243,-9.015C-41.911,-7.474 -42.757,-6.029 -43.125,-4.474C-43.507,-2.878 -43.657,-1.146 -43.452,0.477C-43.261,2.059 -42.716,3.696 -41.911,5.087C-41.107,6.492 -39.947,7.801 -38.679,8.851C-34.328,12.493 -27.632,12.452 -23.076,8.892C-20.662,7.024 -19.094,4.596 -18.453,1.623C-17.621,-2.182 -18.426,-5.688 -20.826,-9.07C-20.021,-8.852 -19.217,-8.62 -18.439,-8.347C-18.63,-9.902 -18.344,-11.334 -17.621,-12.561C-17.416,-12.889 -17.225,-13.216 -17.021,-13.543C-22.776,-15.385 -28.9,-16.012 -35.378,-15.425" style="fill:rgb(60,93,103);fill-rule:nonzero;"/>
      </g>
      <g transform="matrix(1,0,0,1,284.772,474.961)">
        <path d="M0,-2.101C-1.214,-3.942 -2.496,-5.729 -3.751,-7.543C-4.201,-8.184 -4.651,-8.811 -5.21,-9.602C-6.765,-7.147 -8.306,-4.829 -9.765,-2.456C-10.038,-2.006 -10.311,-1.555 -10.584,-1.105C-11.279,0.054 -11.293,1.445 -10.938,2.754C-10.924,2.795 -10.911,2.836 -10.897,2.877C-10.174,5.455 -8.442,6.982 -5.783,7.364C-4.733,7.501 -3.764,7.419 -2.905,7.105C-1.691,6.682 -0.682,5.823 0.109,4.582C0.395,4.118 0.627,3.641 0.791,3.177C1.405,1.418 1.132,-0.383 0,-2.101" style="fill:rgb(0,144,186);fill-rule:nonzero;"/>
      </g>
    </g>
  </g>
</svg>