<svg width="100%" height="100%" viewBox="0 0 262 235" version="1.1" xmlns="http://www.w3.org/2000/svg" xmlns:xlink="http://www.w3.org/1999/xlink" xml:space="preserve" xmlns:serif="http://www.serif.com/" style="fill-rule:evenodd;clip-rule:evenodd;stroke-linejoin:round;stroke-miterlimit:2;">
  <g transform="matrix(1,0,0,1,-74.4799,-1028.5)">
    <g transform="matrix(4.16667,0,0,4.16667,0,0)">
      <g transform="matrix(1,0,0,1,56.677,246.266)">
        <path d="M0,56.74C-0.279,56.74 -0.56,56.732 -0.845,56.714C-1.665,56.777 -5.076,56.887 -7.881,54.66C-9.953,53.016 -11.183,50.546 -11.535,47.321C-11.635,46.407 -10.976,45.586 -10.062,45.486C-9.149,45.387 -8.326,46.045 -8.227,46.959C-7.974,49.268 -7.161,50.982 -5.811,52.053C-3.777,53.668 -1.092,53.396 -1.066,53.393L-0.909,53.374L-0.751,53.385C2.714,53.626 5.502,52.195 7.536,49.132C9.165,46.68 9.7,44.07 9.705,44.044L9.72,43.972L9.741,43.897C11.172,39.032 17.547,28.416 17.817,27.966L17.862,27.896C21.764,22.095 20.303,14.296 20.132,13.467C18.77,9.491 16.244,6.697 12.624,5.162C9.827,3.976 7.378,4.008 7.353,4.008L7.254,4.011L7.16,4.002C1.093,3.431 -3.626,5.295 -6.866,9.542C-9.358,12.808 -10.041,16.341 -10.047,16.376C-10.216,17.278 -11.083,17.876 -11.985,17.709C-12.888,17.543 -13.485,16.679 -13.321,15.777C-13.29,15.605 -12.524,11.531 -9.599,7.638C-6.87,4.004 -1.708,-0.147 7.387,0.68C7.974,0.68 10.681,0.756 13.78,2.037C16.968,3.356 21.21,6.239 23.317,12.492L23.343,12.569L23.361,12.648C23.452,13.044 25.541,22.403 20.649,29.717C20.251,30.38 14.265,40.411 12.953,44.774C12.837,45.315 12.172,48.127 10.373,50.877C7.855,54.727 4.283,56.74 0,56.74" style="fill:rgb(60,93,103);fill-rule:nonzero;"/>
      </g>
      <g transform="matrix(1,0,0,1,59.6843,253.409)">
        <path d="M0,34.723C-1.713,33.462 -3.811,32.765 -5.944,32.849C-7.033,32.892 -8.11,33.135 -9.117,33.549C-10.036,33.926 -10.999,34.268 -11.721,33.296C-12.272,32.555 -12.079,31.497 -11.342,30.941C-9.276,29.381 -7.153,28.508 -5.033,28.347C-3.302,28.215 -1.604,28.608 -0.211,29.414C0.88,27.408 2.54,25.739 4.159,24.111C5.286,22.978 6.351,21.907 7.146,20.797C8.988,18.223 10.972,14.201 9.967,9.658C9.397,7.076 8.035,5 6.231,3.964C4.793,3.137 3.157,3.008 1.371,3.581C-2.285,4.752 -5.752,8.042 -7.06,11.581C-7.23,12.073 -7.479,13.344 -7.538,14.188C-7.008,14.151 -6.453,14.064 -5.879,13.974C-5.161,13.861 -4.419,13.745 -3.638,13.71C-0.885,13.587 1.434,14.804 2.268,16.813C2.825,18.155 2.577,19.772 1.619,21.034C0.683,22.267 -0.761,22.94 -2.171,22.807C-3.085,22.721 -3.801,21.934 -3.731,21.019C-3.658,20.067 -2.807,19.377 -1.87,19.492C-1.606,19.524 -1.27,19.335 -1.033,19.022C-0.796,18.709 -0.704,18.335 -0.806,18.09C-1.12,17.333 -2.395,16.986 -3.489,17.035C-4.086,17.062 -4.706,17.159 -5.363,17.262C-6.441,17.431 -7.555,17.606 -8.756,17.507C-9.429,17.452 -10.029,17.084 -10.401,16.5C-10.892,15.728 -10.997,14.616 -10.74,12.891C-10.593,11.902 -10.336,10.842 -10.182,10.426C-9.369,8.227 -7.925,6.103 -6.008,4.284C-4.097,2.472 -1.897,1.132 0.355,0.411C3.032,-0.447 5.638,-0.217 7.89,1.078C10.503,2.579 12.445,5.445 13.218,8.939C14.222,13.483 13.059,18.253 9.853,22.734C8.901,24.064 7.69,25.281 6.519,26.458C4.541,28.448 2.672,30.326 2.078,32.573L1.667,34.129C1.475,34.858 0.607,35.17 0,34.723" style="fill:rgb(60,93,103);fill-rule:nonzero;"/>
      </g>
      <g transform="matrix(1,0,0,1,51.1593,287.861)">
        <path d="M0,-13.764C-0.817,-13.764 -1.539,-13.357 -1.976,-12.736C-2.703,-12.736 -3.436,-12.738 -4.158,-12.752C-5.123,-12.771 -5.83,-12.336 -6.263,-11.46C-7.612,-8.734 -8.999,-5.967 -10.341,-3.292L-11.291,-1.398C-11.382,-1.216 -11.45,-1.116 -11.489,-1.064C-11.497,-1.065 -11.506,-1.065 -11.516,-1.067L-11.524,-1.067C-11.551,-1.11 -11.603,-1.207 -11.67,-1.412C-12.875,-5.052 -15.127,-11.746 -15.951,-14.178C-16.193,-14.892 -16.835,-15.387 -17.587,-15.439C-18.339,-15.491 -19.043,-15.089 -19.381,-14.415L-19.512,-14.154C-20.025,-13.13 -20.525,-12.133 -21.023,-11.136C-21.277,-10.63 -21.529,-10.123 -21.781,-9.617C-22.194,-8.789 -22.606,-7.962 -23.021,-7.136C-23.082,-7.016 -23.128,-6.946 -23.157,-6.909C-23.171,-6.909 -23.188,-6.91 -23.208,-6.912C-23.213,-6.912 -23.217,-6.913 -23.22,-6.913C-23.24,-6.946 -23.273,-7.011 -23.311,-7.128C-23.832,-8.723 -24.873,-11.789 -25.285,-12.984C-25.484,-13.562 -25.979,-13.995 -26.578,-14.114C-27.177,-14.233 -27.801,-14.023 -28.209,-13.562C-28.439,-13.302 -28.638,-13.078 -28.824,-12.935C-28.974,-12.82 -29.145,-12.762 -29.199,-12.758C-29.884,-12.71 -30.584,-12.723 -31.326,-12.736C-31.507,-12.739 -31.689,-12.743 -31.871,-12.745C-32.643,-12.752 -33.274,-12.139 -33.284,-11.368C-33.294,-10.598 -32.677,-9.965 -31.907,-9.955C-31.73,-9.953 -31.553,-9.95 -31.376,-9.947C-30.607,-9.933 -29.811,-9.918 -29.002,-9.975C-28.467,-10.013 -27.897,-10.213 -27.395,-10.532C-26.922,-9.139 -26.32,-7.353 -25.964,-6.262C-25.437,-4.649 -24.318,-4.215 -23.472,-4.134C-22.165,-4.01 -21.175,-4.598 -20.529,-5.882C-20.112,-6.711 -19.698,-7.542 -19.284,-8.372C-19.032,-8.878 -18.781,-9.383 -18.528,-9.888C-18.313,-10.317 -18.098,-10.746 -17.882,-11.178C-16.844,-8.099 -15.261,-3.381 -14.319,-0.535C-13.869,0.826 -13.023,1.581 -11.807,1.708C-11.685,1.721 -11.567,1.727 -11.454,1.727C-9.737,1.727 -9.037,0.33 -8.797,-0.148L-7.847,-2.041C-6.547,-4.633 -5.204,-7.31 -3.894,-9.957C-3.251,-9.948 -2.607,-9.946 -1.969,-9.946C-1.53,-9.331 -0.813,-8.929 0,-8.929C1.335,-8.929 2.418,-10.011 2.418,-11.346C2.418,-12.682 1.335,-13.764 0,-13.764" style="fill:rgb(0,144,186);fill-rule:nonzero;"/>
      </g>
    </g>
  </g>
</svg>