<svg width="100%" height="100%" viewBox="0 0 286 285" version="1.1" xmlns="http://www.w3.org/2000/svg" xmlns:xlink="http://www.w3.org/1999/xlink" xml:space="preserve" xmlns:serif="http://www.serif.com/" style="fill-rule:evenodd;clip-rule:evenodd;stroke-linejoin:round;stroke-miterlimit:2;">
  <g transform="matrix(1,0,0,1,-502.885,-2422.09)">
    <g transform="matrix(4.16667,0,0,4.16667,0,0)">
      <g transform="matrix(0.103085,0,0,0.103085,93.0956,553.543)">
        <g transform="matrix(2.50449,0,0,2.50449,-1016.03,-5815.41)">
          <path d="M629.456,2561.64L541.291,2527.77C539.796,2529.41 537.951,2530.79 535.79,2531.75C527.462,2535.46 517.708,2531.71 514.004,2523.38C510.299,2515.05 514.047,2505.3 522.375,2501.59C530.702,2497.89 540.456,2501.64 544.16,2509.97C545.122,2512.13 545.572,2514.38 545.579,2516.61L633.866,2550.53L598.708,2462.94C596.484,2462.97 594.221,2462.55 592.046,2461.62C583.664,2458.04 579.772,2448.34 583.351,2439.96C586.932,2431.58 596.629,2427.69 605.011,2431.27C613.392,2434.85 617.285,2444.55 613.704,2452.93C612.775,2455.1 611.427,2456.97 609.804,2458.49L644.808,2545.69L680.098,2458.05C678.476,2456.53 677.131,2454.66 676.204,2452.49C672.632,2444.1 676.536,2434.41 684.922,2430.84C693.307,2427.26 703,2431.17 706.571,2439.55C710.142,2447.94 706.239,2457.63 697.853,2461.2C695.676,2462.13 693.413,2462.54 691.19,2462.52L655.715,2550.61L742.989,2513.95C742.857,2511.58 743.218,2509.15 744.174,2506.81C747.62,2498.37 757.253,2494.32 765.691,2497.77C774.129,2501.22 778.176,2510.85 774.73,2519.29C771.285,2527.72 761.651,2531.77 753.213,2528.33C751.177,2527.49 749.403,2526.3 747.922,2524.85L661.506,2561.15L748.917,2594.74C750.462,2592.93 752.404,2591.43 754.716,2590.4C763.044,2586.7 772.798,2590.45 776.502,2598.77C780.207,2607.1 776.459,2616.85 768.131,2620.56C759.804,2624.26 750.049,2620.51 746.345,2612.19C745.451,2610.18 745.001,2608.09 744.934,2606.01L655.181,2571.53L690.951,2660.64C693.322,2660.55 695.747,2660.94 698.074,2661.94C706.456,2665.52 710.348,2675.22 706.768,2683.6C703.188,2691.98 693.491,2695.87 685.109,2692.29C676.727,2688.71 672.835,2679.01 676.415,2670.63C677.279,2668.61 678.505,2666.86 679.976,2665.4L644.791,2577.74L609.823,2664.58C611.599,2666.15 613.074,2668.12 614.065,2670.45C617.636,2678.83 613.733,2688.53 605.347,2692.1C596.961,2695.67 587.268,2691.76 583.698,2683.38C580.127,2674.99 584.03,2665.3 592.415,2661.73C594.439,2660.87 596.537,2660.45 598.608,2660.42L633.914,2572.74L546.789,2609.34C546.851,2611.56 546.471,2613.83 545.576,2616.02C542.131,2624.46 532.497,2628.51 524.059,2625.06C515.621,2621.62 511.574,2611.98 515.02,2603.54C518.466,2595.11 528.1,2591.06 536.537,2594.51C538.728,2595.4 540.614,2596.72 542.159,2598.32L629.456,2561.64Z" style="fill:rgb(62,93,103);"/>
        </g>
        <g transform="matrix(2.2374,0,0,2.2374,-841.957,-5131.74)">
          <path d="M637.975,2681.28C635.52,2679.49 633.745,2676.83 633.111,2673.74C632.949,2672.95 632.862,2672.13 632.859,2671.29L632.843,2666.85C632.831,2663.46 631.467,2660.31 629.201,2658.02C627.635,2656.45 625.638,2655.28 623.356,2654.75C613.145,2652.41 603.574,2648.42 594.918,2643.08C592.941,2641.87 590.763,2641.28 588.567,2641.28C586.535,2641.28 584.51,2641.79 582.69,2642.78C581.622,2643.35 580.625,2644.09 579.739,2644.98L576.549,2648.19C572.91,2651.86 567.552,2652.78 563.052,2650.94C561.584,2650.34 560.206,2649.44 559.012,2648.26C555.781,2645.05 554.687,2640.51 555.723,2636.4C556.249,2634.32 557.323,2632.35 558.946,2630.71L560.94,2628.7L562.142,2627.5C566.15,2623.46 566.955,2617.14 563.935,2612.31C559.935,2605.93 556.668,2599.03 554.254,2591.74C553.413,2589.19 552.676,2586.59 552.048,2583.96C550.722,2578.38 545.62,2574.53 539.891,2574.55L537.386,2574.56L535.405,2574.56C532.001,2574.56 528.89,2573.17 526.657,2570.94C524.424,2568.7 523.033,2565.63 523.015,2562.21C522.979,2555.36 528.523,2549.78 535.368,2549.76C535.678,2549.76 535.989,2549.76 536.3,2549.75C537.136,2549.75 537.973,2549.75 538.801,2549.74C539.141,2549.74 539.479,2549.74 539.815,2549.74C544.119,2549.73 548.05,2547.53 550.283,2544.07C551.022,2542.92 551.575,2541.64 551.895,2540.25C552.203,2538.92 552.539,2537.59 552.902,2536.28C553.86,2532.82 555.006,2529.44 556.331,2526.15C558.346,2521.15 560.773,2516.36 563.572,2511.81C564.03,2511.07 564.398,2510.29 564.678,2509.49C565.872,2506.12 565.489,2502.38 563.701,2499.28C563.155,2498.33 562.478,2497.44 561.674,2496.64L558.463,2493.45C555.932,2490.94 554.711,2487.61 554.803,2484.31C554.888,2481.26 556.087,2478.24 558.4,2475.91L558.409,2475.9C562.665,2471.62 569.268,2471.1 574.101,2474.34C574.749,2474.78 575.365,2475.28 575.94,2475.85L575.942,2475.85L579.152,2479.04C583.2,2483.06 589.502,2483.86 594.337,2480.83C597.083,2479.11 599.923,2477.53 602.848,2476.09C609.108,2473.01 615.75,2470.61 622.698,2468.95C628.279,2467.63 632.122,2462.53 632.104,2456.8L632.104,2456.79L632.088,2452.36C632.085,2451.67 632.14,2450.99 632.247,2450.32C632.972,2445.85 636.088,2442.18 640.246,2440.66C641.557,2440.18 642.972,2439.92 644.447,2439.91C644.447,2439.91 644.479,2439.91 644.493,2439.91C648.009,2439.91 651.186,2441.38 653.444,2443.73C655.119,2445.48 656.29,2447.71 656.718,2450.21C656.834,2450.88 656.895,2451.57 656.897,2452.27L656.913,2456.71C656.926,2460.33 658.488,2463.7 661.049,2466C662.532,2467.34 664.351,2468.33 666.399,2468.8C669.24,2469.45 672.031,2470.23 674.767,2471.13C678.884,2472.49 682.877,2474.12 686.724,2476C689.509,2477.36 692.217,2478.86 694.843,2480.47C698.584,2482.78 703.18,2482.81 706.93,2480.85C708.048,2480.27 709.091,2479.51 710.014,2478.58L713.202,2475.37C718.029,2470.51 725.882,2470.48 730.743,2475.3C733.455,2478 734.663,2481.63 734.362,2485.17C734.121,2487.96 732.933,2490.7 730.798,2492.85L727.614,2496.05C726.51,2497.17 725.649,2498.45 725.044,2499.83C724.236,2501.67 723.885,2503.68 724.02,2505.67C724.151,2507.6 724.742,2509.51 725.82,2511.24C731.219,2519.86 735.282,2529.41 737.697,2539.59C737.856,2540.25 738.069,2540.89 738.329,2541.5C740.247,2546.03 744.811,2549.02 749.861,2549L751.789,2548.99L754.332,2548.99C756.736,2548.99 758.977,2549.67 760.878,2550.85C762.676,2551.97 764.168,2553.53 765.196,2555.39C766.171,2557.16 766.731,2559.18 766.741,2561.35L766.741,2561.35C766.759,2568.19 761.232,2573.77 754.387,2573.79C754.194,2573.79 754.001,2573.8 753.808,2573.8C752.667,2573.8 751.521,2573.81 750.4,2573.81C750.247,2573.81 750.093,2573.81 749.94,2573.81C746.418,2573.82 743.144,2575.3 740.847,2577.74C739.41,2579.26 738.354,2581.16 737.859,2583.3C737.485,2584.93 737.069,2586.53 736.613,2588.12C734.679,2594.85 732.027,2601.28 728.748,2607.32C727.93,2608.82 727.074,2610.29 726.18,2611.75C725.216,2613.31 724.65,2615.03 724.461,2616.76C724.061,2620.42 725.331,2624.19 728.071,2626.92L729.63,2628.46L731.288,2630.11C731.78,2630.59 732.222,2631.11 732.614,2631.66C733.928,2633.48 734.689,2635.58 734.895,2637.72C734.933,2638.11 734.952,2638.51 734.952,2638.9C734.952,2642.07 733.745,2645.23 731.351,2647.65L731.347,2647.65C730.847,2648.16 730.314,2648.61 729.755,2649.01C728.023,2650.24 726.04,2650.99 724.011,2651.22C722.926,2651.35 721.827,2651.34 720.745,2651.18C718.215,2650.81 715.77,2649.65 713.815,2647.71L711.794,2645.71L710.596,2644.52C707.375,2641.32 702.725,2640.16 698.524,2641.35C697.443,2641.65 696.392,2642.11 695.405,2642.73C686.786,2648.13 677.251,2652.17 667.057,2654.61C661.476,2655.92 657.633,2661.03 657.651,2666.76L657.669,2671.2L657.669,2671.2C657.684,2676.49 654.391,2681.01 649.737,2682.82C648.363,2683.35 646.87,2683.64 645.309,2683.64L645.306,2683.64C642.567,2683.66 640.032,2682.78 637.975,2681.28Z" style="fill:rgb(10,144,187);"/>
        </g>
        <path d="M598.098,295.32" style="fill:white;fill-rule:nonzero;"/>
      </g>
    </g>
  </g>
</svg>