<svg width="100%" height="100%" viewBox="0 0 294 294" version="1.1" xmlns="http://www.w3.org/2000/svg" xmlns:xlink="http://www.w3.org/1999/xlink" xml:space="preserve" xmlns:serif="http://www.serif.com/" style="fill-rule:evenodd;clip-rule:evenodd;stroke-linejoin:round;stroke-miterlimit:2;">
  <g transform="matrix(1,0,0,1,-1356,-2399)">
    <g transform="matrix(4.16667,0,0,4.16667,0,0)">
      <g transform="matrix(1,0,0,1,-6.01684,6.72)">
        <g transform="matrix(0.24,0,0,0.24,-102.72,-2.64)">
          <path d="M2015.46,2612.06L2015.46,2676L1896.68,2676L1896.68,2588.39L1809.07,2588.39L1809.07,2469.61L1843.13,2469.61C1834.28,2480.8 1829.49,2493.88 1831.45,2509.58L1831.45,2509.59C1836.12,2546.93 1874.14,2563.16 1901.91,2551.77C1902.37,2552.87 1902.83,2553.87 1903.25,2554.65C1917.06,2579.97 1920.32,2580.71 1942.59,2598.32C1950.45,2604.54 1959.02,2610.79 1968.63,2614.03L1968.64,2614.03C1980.61,2618.05 1991.29,2619.78 2003.92,2616.6L2003.93,2616.59C2008.1,2615.54 2011.89,2613.97 2015.46,2612.06ZM1896.68,2447.12L1896.68,2382L2015.46,2382L2015.46,2469.61L2103.07,2469.61L2103.07,2552.61C2101.53,2551.04 2099.86,2549.87 2098.31,2549.06L2098.12,2548.96C2093.95,2546.84 2087.96,2546.18 2082.74,2547.03C2082.36,2546.07 2082,2545.12 2081.65,2544.16L2081.64,2544.14C2078.09,2534.54 2073.47,2525.75 2065.58,2518.85C2054.83,2509.45 2042.74,2506.54 2029.01,2511.78C2029,2511.78 2028.99,2511.79 2028.98,2511.79C2025.06,2513.3 2021.11,2514.77 2017.37,2516.65C2013.8,2518.44 2010.29,2520.31 2006.8,2522.23C2003.13,2518.68 1997.07,2512.59 1989.44,2504.65C1990.08,2499.97 1990.07,2495.18 1989.9,2490.46C1989.57,2480.43 1987.64,2470.44 1984.08,2460.99C1982.29,2456.21 1979.51,2452.12 1976.14,2448.86C1967.45,2440.4 1954.78,2437.44 1943.14,2441.68C1935.31,2444.52 1929.28,2449.74 1925.6,2456.19C1919.13,2452.3 1911.73,2449.93 1904.87,2449.26C1902.21,2449 1899.46,2448.04 1896.68,2447.12Z" style="fill:rgb(62,93,103);"/>
        </g>
        <g transform="matrix(1.14369,0,0,1.14369,398.843,595.669)">
          <path d="M0,15.167C-0.277,15.026 -0.701,15.064 -1.021,15.159C-1.408,15.275 -1.74,15.565 -2.122,15.718C-2.998,16.065 -3.47,15.985 -3.919,15.182C-4.47,14.192 -4.921,13.136 -5.314,12.071C-5.836,10.66 -6.454,9.331 -7.614,8.317C-8.73,7.341 -9.974,6.985 -11.399,7.529C-12.104,7.8 -12.818,8.057 -13.491,8.396C-14.622,8.963 -15.728,9.575 -16.831,10.195C-17.673,10.671 -18.431,10.722 -18.842,10.255C-19.06,10.007 -19.265,9.747 -19.493,9.462C-20.194,8.82 -22.067,6.965 -24.573,4.334C-24.653,4.258 -24.732,4.181 -24.811,4.104C-25.127,3.385 -25.05,2.979 -24.91,2.213C-24.752,1.357 -24.769,0.479 -24.8,-0.385C-24.857,-2.082 -25.178,-3.764 -25.778,-5.354C-25.949,-5.81 -26.21,-6.198 -26.529,-6.506C-27.306,-7.262 -28.436,-7.539 -29.476,-7.16C-30.845,-6.663 -31.66,-5.4 -31.461,-4.046C-31.436,-3.867 -31.393,-3.689 -31.33,-3.508C-30.823,-2.051 -30.546,-0.525 -30.642,1.015C-30.643,1.023 -30.643,1.03 -30.644,1.039C-30.746,2.687 -33.531,1.219 -34.227,0.785C-34.497,0.616 -34.621,0.313 -34.677,0.01C-34.735,-0.312 -34.697,-0.67 -34.626,-0.995C-34.009,-3.794 -37.035,-5.147 -39.187,-5.356C-40.937,-5.527 -42.874,-6.873 -44.609,-5.976C-45.694,-5.416 -46.72,-4.651 -47.6,-3.802C-49.506,-1.961 -50.772,0.212 -50.422,3.015C-49.74,8.466 -43.862,10.705 -40.087,8.393C-39.339,7.935 -38.477,7.539 -37.618,7.93C-36.366,8.499 -36.379,10.041 -35.795,11.11C-33.255,15.767 -32.619,15.87 -28.526,19.107C-27.215,20.144 -25.818,21.237 -24.215,21.776C-22.432,22.375 -20.848,22.706 -18.967,22.232C-16.96,21.725 -15.534,20.39 -13.933,19.161C-13.522,18.846 -13.123,18.516 -12.734,18.173C-12.003,17.527 -11.348,16.815 -10.658,16.126C-10.332,15.801 -9.518,17.395 -9.211,17.617C-8.728,17.968 -8.17,18.185 -7.737,18.611C-7.375,18.966 -7.171,19.592 -7.002,20.059C-6.681,20.945 -6.086,21.851 -5.01,21.561C-4.454,21.41 -3.948,21.03 -3.455,20.702C-3.034,20.421 -2.645,20.102 -2.231,19.809C-2.148,19.751 -2.065,19.693 -1.98,19.638C-1.483,19.311 -1.007,18.943 -0.674,18.442C-0.192,17.716 0.028,16.848 0.197,16.004C0.245,15.765 0.172,15.257 0,15.167" style="fill:rgb(0,144,186);fill-rule:nonzero;"/>
        </g>
      </g>
    </g>
  </g>
</svg>