<svg width="100%" height="100%" viewBox="0 0 190 290" version="1.1" xmlns="http://www.w3.org/2000/svg" xmlns:xlink="http://www.w3.org/1999/xlink" xml:space="preserve" xmlns:serif="http://www.serif.com/" style="fill-rule:evenodd;clip-rule:evenodd;stroke-linejoin:round;stroke-miterlimit:2;">
  <g transform="matrix(1,0,0,1,-974.364,-2417.09)">
    <g transform="matrix(4.16667,0,0,4.16667,0,0)">
      <g id="v">
        <g transform="matrix(0.268297,0,0,0.268297,-24.5102,-73.2843)">
          <circle cx="993.405" cy="2605.63" r="15.788" style="fill:rgb(10,144,187);"/>
        </g>
        <g transform="matrix(0.120385,0,0,0.120385,208.518,567.24)">
          <path d="M263.2,552C270.4,594.4 305.6,640.8 338.4,663.2C358.4,676.8 380.8,683.2 402.4,683.2C409.6,683.2 416,682.4 422.4,680.8C500,664 516,568.8 508,508.8C504,478.4 495.2,448 482.4,418.4C540.8,418.4 588,371.2 588,312.8L588,136.8C588,125.6 579.2,116.8 568,116.8L498.4,116.8L498.4,148.8L556,148.8L556,313.6C556,354.4 523.2,387.2 482.4,387.2L432,387.2C391.2,387.2 358.4,354.4 358.4,313.6L358.4,148.8L416.8,148.8L416.8,116.8L346.4,116.8C335.2,116.8 326.4,125.6 326.4,136.8L326.4,313.6C326.4,372 373.6,419.2 432,419.2L448,419.2C462.4,449.6 472.8,482.4 476.8,513.6C483.2,560 472,638.4 416,650.4C396.8,654.4 375.2,649.6 356,636.8C330.4,619.2 302.4,582.4 295.2,551.2C323.2,543.2 344.8,517.6 344.8,486.4C344.8,449.6 314.4,419.2 277.6,419.2C240.8,419.2 210.4,449.6 210.4,486.4C211.2,518.4 233.6,545.6 263.2,552ZM278.4,451.2C297.6,451.2 313.6,467.2 313.6,486.4C313.6,505.6 297.6,521.6 278.4,521.6C259.2,521.6 243.2,505.6 243.2,486.4C243.2,467.2 259.2,451.2 278.4,451.2Z" style="fill:rgb(62,93,103);fill-rule:nonzero;"/>
        </g>
        <g transform="matrix(0.211765,0,0,0.175911,27.8824,155.628)">
          <path d="M1098,2430.01C1098,2420.62 1091.67,2413 1083.87,2413L1078.13,2413C1070.33,2413 1064,2420.62 1064,2430.01C1064,2439.4 1070.33,2447.03 1078.13,2447.03L1083.87,2447.03C1091.67,2447.03 1098,2439.4 1098,2430.01Z" style="fill:rgb(10,144,187);"/>
        </g>
        <g transform="matrix(0.211765,0,0,0.175911,41.3406,155.628)">
          <path d="M1098,2430.01C1098,2420.62 1091.67,2413 1083.87,2413L1078.13,2413C1070.33,2413 1064,2420.62 1064,2430.01C1064,2439.4 1070.33,2447.03 1078.13,2447.03L1083.87,2447.03C1091.67,2447.03 1098,2439.4 1098,2430.01Z" style="fill:rgb(10,144,187);"/>
        </g>
      </g>
    </g>
  </g>
</svg>