<svg width="100%" height="100%" viewBox="0 0 225 261" version="1.1" xmlns="http://www.w3.org/2000/svg" xmlns:xlink="http://www.w3.org/1999/xlink" xml:space="preserve" xmlns:serif="http://www.serif.com/" style="fill-rule:evenodd;clip-rule:evenodd;stroke-linejoin:round;stroke-miterlimit:2;">
  <g transform="matrix(1,0,0,1,-1422.68,-1015.07)">
    <g transform="matrix(4.16667,0,0,4.16667,0,0)">
      <g transform="matrix(1,0,0,1,385.098,272.797)">
        <path d="M0,-6.936L0,-6.868C0.09,-5.695 -0.406,-4.759 -1.398,-4.105C-2.707,-3.26 -4.24,-3.553 -5.424,-4.805C-5.549,-4.929 -6.033,-5.233 -6.225,-5.199C-6.439,-5.154 -6.575,-4.827 -6.631,-4.556C-6.642,-4.466 -6.654,-4.387 -6.654,-4.331C-6.642,-3.44 -6.575,-2.549 -6.53,-1.658C-6.53,-1.534 -6.518,-1.421 -6.518,-1.297C-6.496,-0.53 -6.507,0.248 -6.518,1.049L-6.518,1.533C-6.733,1.522 -6.97,1.511 -7.206,1.5C-8.582,1.432 -9.958,1.364 -11.334,1.319C-11.684,1.308 -12.044,1.297 -12.394,1.285C-12.439,1.285 -12.507,1.285 -12.563,1.308C-12.789,1.353 -13.048,1.488 -13.082,1.612C-13.217,2.21 -12.507,2.74 -12.202,3.146C-11.853,3.609 -11.616,4.116 -11.571,4.702C-11.503,5.616 -11.864,6.529 -12.541,7.15C-13.826,8.323 -15.8,8.176 -16.916,6.845C-17.999,5.548 -17.785,3.778 -16.454,2.515C-15.992,2.086 -16.037,1.556 -16.476,1.364C-16.589,1.319 -16.736,1.285 -16.905,1.285C-17.221,1.285 -17.537,1.297 -17.852,1.308C-18.337,1.33 -18.811,1.364 -19.296,1.376C-20.435,1.398 -21.574,1.387 -22.781,1.387C-22.781,1.285 -22.769,1.161 -22.769,1.049C-22.758,0.778 -22.735,0.473 -22.724,0.18C-22.679,-0.801 -22.623,-1.793 -22.578,-2.775C-22.566,-3.169 -22.386,-4.038 -22.51,-4.602C-22.555,-4.816 -22.634,-4.985 -22.781,-5.075C-23.423,-5.492 -24.551,-4.038 -25.138,-3.823C-26.029,-3.508 -27.032,-3.609 -27.822,-4.128C-28.758,-4.748 -29.243,-5.819 -29.164,-6.902C-29.141,-7.252 -29.051,-7.613 -28.893,-7.962C-28.25,-9.316 -26.683,-10.037 -25.262,-9.519C-24.709,-9.304 -24.258,-8.819 -23.739,-8.481C-23.063,-8.064 -22.6,-8.075 -22.521,-8.966C-22.51,-9.045 -22.51,-9.113 -22.51,-9.191C-22.499,-9.597 -22.544,-10.003 -22.578,-10.409C-22.645,-11.875 -22.713,-13.33 -22.769,-14.853C-21.055,-14.943 -19.431,-15.045 -17.818,-15.112C-17.683,-15.123 -17.548,-15.123 -17.413,-15.135C-17.108,-15.146 -16.758,-15.259 -16.476,-15.169C-16.33,-15.135 -16.206,-15.033 -16.116,-14.841C-15.811,-14.221 -16.443,-14.03 -16.747,-13.703C-17.661,-12.755 -17.909,-11.402 -17.356,-10.24C-16.792,-9.022 -15.619,-8.368 -14.232,-8.504C-12.992,-8.616 -11.965,-9.507 -11.638,-10.759C-11.289,-12.079 -11.751,-13.105 -12.721,-13.996C-13.173,-14.397 -13.164,-14.951 -12.563,-15.101C-12.462,-15.135 -12.349,-15.146 -12.27,-15.146C-11.954,-15.146 -11.638,-15.146 -11.323,-15.123C-10.849,-15.101 -10.364,-15.067 -9.89,-15.033C-8.785,-14.977 -7.68,-14.909 -6.518,-14.853L-6.406,-14.853C-6.439,-13.928 -6.485,-13.026 -6.53,-12.135C-6.575,-11.244 -6.597,-10.364 -6.62,-9.473C-6.62,-9.406 -6.631,-9.327 -6.631,-9.225C-6.631,-8.763 -6.586,-8.086 -6.124,-8.052C-5.763,-8.03 -5.379,-8.571 -5.143,-8.785C-4.24,-9.654 -3.192,-9.913 -2.019,-9.507C-0.812,-9.09 -0.124,-8.188 0,-6.936" style="fill:rgb(0,144,186);fill-rule:nonzero;"/>
      </g>
      <g transform="matrix(1,0,0,1,384.294,255.677)">
        <path d="M0,37.962C-1.657,38.818 -3.301,39.67 -4.911,40.505L-14.884,45.649C-16.281,42.643 -18.713,38.726 -23.718,38.065L-24.255,37.998C-26.608,37.706 -28.83,37.432 -30.951,36.741C-31.181,36.668 -31.43,36.565 -31.702,36.453C-32.15,36.26 -32.574,36.021 -32.96,35.746C-33.659,35.234 -33.989,34.144 -33.73,33.22L-33.698,33.119C-33.652,32.974 -33.6,32.811 -33.552,32.63C-33.199,31.282 -33.641,30.014 -34.736,29.201C-34.491,28.522 -34.55,27.849 -34.913,27.197C-34.68,26.738 -34.256,25.781 -34.534,24.666C-34.826,23.518 -35.685,22.777 -37.085,22.464L-37.545,22.358C-38.032,22.224 -38.35,22.076 -38.481,21.931C-38.542,21.853 -38.583,21.773 -38.611,21.68C-38.654,21.518 -38.64,21.493 -38.624,21.464C-37.683,19.772 -36.737,18.048 -35.818,16.372L-35.585,15.95C-35.17,15.198 -34.755,14.444 -34.33,13.68L-34.248,13.53C-33.73,12.68 -33.411,11.837 -33.272,10.954L-33.221,10.629L-33.271,10.305C-33.366,9.689 -33.422,9.054 -33.438,8.42C-33.498,4.878 -32.337,1.677 -29.888,-1.37C-27.421,-4.43 -24.6,-6.148 -20.455,-7.112C-15.364,-8.29 -10.654,-8.051 -6.407,-6.399C0.615,-3.657 4.926,1.346 6.409,8.471C7.207,12.316 6.734,16.161 5,19.897C4.418,21.147 3.786,22.415 3.169,23.652C2.644,24.705 2.101,25.794 1.585,26.88C0.41,29.346 -0.216,31.54 -0.385,33.784C-0.499,35.329 -0.249,36.81 0,37.962M10.534,7.614C8.744,-0.997 3.559,-7.032 -4.875,-10.324C-9.912,-12.286 -15.488,-12.589 -21.408,-11.217C-26.477,-10.039 -30.104,-7.817 -33.171,-4.012C-36.223,-0.216 -37.73,3.993 -37.652,8.515C-37.635,9.194 -37.581,9.881 -37.492,10.558C-37.561,10.803 -37.676,11.056 -37.841,11.328C-37.911,11.439 -37.978,11.559 -38.035,11.67C-38.532,12.565 -39.02,13.451 -39.516,14.352C-40.428,16.014 -41.371,17.734 -42.309,19.418C-42.883,20.456 -43.005,21.598 -42.66,22.853C-42.471,23.493 -42.164,24.077 -41.718,24.629C-41.098,25.363 -40.262,25.901 -39.168,26.269C-39.518,27.174 -39.469,27.997 -39.022,28.716C-39.036,28.789 -39.048,28.865 -39.059,28.946C-39.233,30.246 -38.803,31.361 -37.814,32.182C-38.497,34.785 -37.531,37.633 -35.419,39.168C-34.779,39.626 -34.085,40.017 -33.309,40.35C-32.986,40.482 -32.62,40.632 -32.227,40.756C-29.741,41.566 -27.213,41.879 -24.769,42.181L-24.255,42.245C-20.927,42.685 -19.444,45.604 -17.981,49.087C-17.607,49.977 -16.743,50.551 -15.779,50.551C-15.402,50.551 -15.025,50.46 -14.691,50.288C-13.605,49.732 -9.665,47.7 -6.387,46.011L-4.04,44.801C-1.691,43.581 0.738,42.321 3.183,41.062L3.441,40.929L3.708,40.678C4.175,40.212 4.667,39.39 4.36,38.116C3.985,36.541 3.727,35.331 3.818,34.097C3.946,32.391 4.446,30.673 5.391,28.691C5.882,27.657 6.405,26.607 6.912,25.59L6.944,25.526C7.566,24.28 8.209,22.992 8.822,21.673C10.946,17.096 11.522,12.366 10.534,7.614" style="fill:rgb(60,93,103);fill-rule:nonzero;"/>
      </g>
    </g>
  </g>
</svg>