<svg width="100%" height="100%" viewBox="0 0 265 199" version="1.1" xmlns="http://www.w3.org/2000/svg" xmlns:xlink="http://www.w3.org/1999/xlink" xml:space="preserve" xmlns:serif="http://www.serif.com/" style="fill-rule:evenodd;clip-rule:evenodd;stroke-linejoin:round;stroke-miterlimit:2;">
  <g transform="matrix(1,0,0,1,-2775.83,-71.5504)">
    <g transform="matrix(4.16667,0,0,4.16667,0,0)">
      <g transform="matrix(1,0,0,1,696.037,42.7283)">
        <path d="M0,2.488C-0.29,0.283 -0.964,-1.816 -1.617,-3.846C-1.687,-4.065 -1.756,-4.282 -1.825,-4.497C-2.567,-3.894 -3.311,-3.306 -4.048,-2.725C-3.441,-0.832 -2.882,0.969 -2.635,2.835C-2.521,3.71 -2.484,4.524 -2.524,5.324C-2.768,10.138 -3.991,13.298 -6.372,15.268C-8.922,17.381 -12.358,18.107 -15.949,18.721C-16.251,18.773 -16.56,18.828 -16.874,18.885C-18.203,19.125 -19.577,19.373 -20.874,19.373C-22.347,19.373 -23.438,19.054 -24.308,18.37C-28.106,15.378 -27.226,9.396 -26.673,6.962C-25.733,2.835 -24.183,-1.274 -22.806,-4.799C-21.716,-7.589 -20.433,-10.485 -18.442,-12.772C-16.676,-14.797 -13.812,-16.386 -11.147,-16.82C-10.876,-16.863 -10.609,-16.885 -10.354,-16.885C-9.251,-16.885 -8.286,-16.478 -7.406,-15.641C-6.581,-14.854 -6.247,-14.172 -6.132,-13.034C-6.092,-12.647 -6.057,-12.258 -6.021,-11.871C-5.988,-11.508 -5.955,-11.142 -5.917,-10.773C-5.909,-10.772 -5.901,-10.772 -5.894,-10.771L-5.86,-10.769C-5.402,-10.769 -4.409,-11.504 -3.416,-12.568C-3.439,-12.813 -3.463,-13.058 -3.487,-13.302C-3.666,-15.069 -4.29,-16.344 -5.573,-17.565C-6.952,-18.879 -8.56,-19.543 -10.354,-19.543C-10.752,-19.543 -11.163,-19.51 -11.573,-19.443C-14.865,-18.908 -18.264,-17.022 -20.446,-14.518C-22.704,-11.925 -24.105,-8.78 -25.282,-5.767C-26.694,-2.152 -28.283,2.066 -29.264,6.372C-29.681,8.205 -30.087,10.969 -29.652,13.738C-29.2,16.619 -27.955,18.881 -25.952,20.458C-24.608,21.517 -22.946,22.031 -20.874,22.031C-19.339,22.031 -17.778,21.75 -16.402,21.501C-16.096,21.445 -15.795,21.391 -15.502,21.342C-11.699,20.691 -7.73,19.844 -4.676,17.315C-0.742,14.059 -0.048,8.989 0.13,5.459C0.179,4.495 0.137,3.524 0,2.488" style="fill:rgb(60,93,103);fill-rule:nonzero;"/>
      </g>
      <g transform="matrix(1,0,0,1,729.121,38.8449)">
        <path d="M0,10.255C-0.981,5.949 -2.569,1.731 -3.981,-1.884C-5.16,-4.896 -6.56,-8.042 -8.818,-10.635C-10.999,-13.137 -14.4,-15.024 -17.691,-15.56C-18.102,-15.626 -18.512,-15.66 -18.909,-15.66C-20.703,-15.66 -22.313,-14.995 -23.692,-13.682C-24.974,-12.46 -25.598,-11.186 -25.776,-9.42C-25.8,-9.192 -25.822,-8.962 -25.842,-8.733C-25.243,-8.128 -24.569,-7.524 -23.862,-6.965C-23.733,-6.862 -23.601,-6.794 -23.359,-6.768C-23.317,-7.178 -23.28,-7.585 -23.242,-7.988C-23.207,-8.376 -23.171,-8.764 -23.132,-9.152C-23.016,-10.289 -22.683,-10.97 -21.857,-11.757C-20.978,-12.594 -20.013,-13.002 -18.909,-13.002C-18.654,-13.002 -18.388,-12.98 -18.118,-12.936C-15.451,-12.503 -12.587,-10.914 -10.823,-8.889C-8.83,-6.601 -7.547,-3.705 -6.457,-0.917C-5.08,2.61 -3.532,6.717 -2.592,10.846C-2.037,13.279 -1.159,19.262 -4.957,22.254C-5.392,22.596 -5.881,22.847 -6.446,23.011C-7.012,23.177 -7.654,23.257 -8.391,23.257C-9.686,23.257 -11.061,23.009 -12.389,22.768C-12.704,22.712 -13.012,22.656 -13.315,22.604C-16.906,21.99 -20.341,21.264 -22.893,19.152C-25.273,17.181 -26.495,14.021 -26.739,9.207C-26.78,8.407 -26.744,7.593 -26.628,6.718C-26.386,4.876 -25.835,3.094 -25.237,1.228C-25.293,1.184 -25.348,1.141 -25.404,1.097C-26.088,0.561 -26.777,0.019 -27.464,-0.535C-27.524,-0.346 -27.586,-0.156 -27.648,0.036C-28.299,2.067 -28.973,4.166 -29.264,6.371C-29.401,7.408 -29.443,8.38 -29.394,9.343C-29.215,12.872 -28.523,17.942 -24.588,21.199C-21.534,23.728 -17.565,24.575 -13.762,25.225C-13.468,25.275 -13.168,25.329 -12.863,25.384C-11.485,25.633 -9.925,25.915 -8.391,25.915C-6.317,25.915 -4.656,25.4 -3.312,24.342C-1.309,22.765 -0.064,20.503 0.389,17.621C0.824,14.853 0.418,12.088 0,10.255" style="fill:rgb(60,93,103);fill-rule:nonzero;"/>
      </g>
      <g transform="matrix(1,0,0,1,723.437,25.5611)">
        <path d="M0,24.497C-0.392,24.457 -1.223,24.373 -2.313,24.263C-2.699,24.221 -3.108,24.189 -3.491,24.097C-3.683,24.051 -3.865,23.988 -4.029,23.905C-4.118,23.858 -4.152,23.835 -4.263,23.756L-4.269,23.75L-4.282,23.741L-4.308,23.719C-4.326,23.706 -4.342,23.69 -4.358,23.674C-4.392,23.645 -4.425,23.61 -4.458,23.576C-4.719,23.3 -4.93,22.897 -5.181,22.442C-5.434,21.989 -5.706,21.537 -5.992,21.092C-6.279,20.647 -6.579,20.211 -6.889,19.791C-7.197,19.375 -7.512,18.962 -7.873,18.568C-8.234,18.176 -8.643,17.81 -9.102,17.524C-9.562,17.241 -10.028,17.046 -10.456,16.917C-10.883,16.787 -11.274,16.708 -11.613,16.653C-11.743,16.631 -11.863,16.614 -11.978,16.598C-12.1,16.038 -12.3,15.48 -12.564,14.969L-12.615,14.87L-12.674,14.768L-12.794,14.563C-12.813,14.532 -12.837,14.49 -12.852,14.467L-12.9,14.393L-12.996,14.246L-13.02,14.208L-13.032,14.19L-13.069,14.138L-13.128,14.056L-13.249,13.89C-13.33,13.782 -13.415,13.679 -13.498,13.574C-13.834,13.16 -14.191,12.791 -14.542,12.449C-15.249,11.767 -15.944,11.197 -16.543,10.669C-16.664,10.564 -16.787,10.454 -16.909,10.343C-16.908,10.343 -16.906,10.343 -16.904,10.341C-16.593,10.277 -16.258,10.222 -15.909,10.175C-15.56,10.129 -15.196,10.093 -14.821,10.07C-14.635,10.059 -14.447,10.047 -14.256,10.043C-14.065,10.037 -13.874,10.032 -13.682,10.033C-13.49,10.032 -13.298,10.035 -13.106,10.042C-12.913,10.044 -12.721,10.054 -12.53,10.065C-12.15,10.084 -11.774,10.114 -11.41,10.152C-11.047,10.186 -10.689,10.233 -10.344,10.271C-10,10.31 -9.669,10.343 -9.36,10.361C-9.05,10.38 -8.764,10.384 -8.509,10.375C-8.254,10.366 -8.032,10.344 -7.849,10.317C-7.767,10.305 -7.643,10.281 -7.533,10.258C-7.394,10.23 -7.303,10.096 -7.328,9.956C-7.352,9.828 -7.465,9.736 -7.596,9.742C-7.697,9.746 -7.812,9.749 -7.887,9.748C-8.217,9.743 -8.687,9.694 -9.25,9.566C-9.531,9.503 -9.836,9.422 -10.161,9.33C-10.488,9.238 -10.834,9.134 -11.204,9.038C-11.573,8.939 -11.958,8.843 -12.352,8.759C-12.445,8.738 -12.538,8.719 -12.631,8.698C-12.619,8.656 -12.603,8.611 -12.586,8.564C-12.573,8.535 -12.561,8.505 -12.547,8.475L-12.53,8.436L-12.527,8.426L-12.517,8.411L-12.499,8.378C-12.429,8.247 -12.326,8.099 -12.207,7.94C-12.086,7.782 -11.943,7.611 -11.792,7.422C-11.717,7.328 -11.642,7.23 -11.563,7.122L-11.502,7.038L-11.455,6.965C-11.411,6.903 -11.379,6.852 -11.344,6.794C-11.067,6.338 -10.881,5.869 -10.748,5.418C-10.68,5.187 -10.633,4.972 -10.595,4.761C-10.556,4.554 -10.531,4.358 -10.51,4.179C-10.47,3.82 -10.453,3.528 -10.441,3.323C-10.44,3.315 -10.44,3.307 -10.44,3.298L-10.44,3.28C-10.44,3.12 -10.557,2.985 -10.717,2.963C-10.882,2.94 -11.037,3.048 -11.073,3.21C-11.076,3.217 -11.077,3.226 -11.079,3.233C-11.124,3.429 -11.187,3.708 -11.279,4.03C-11.323,4.191 -11.376,4.363 -11.44,4.539C-11.503,4.713 -11.578,4.898 -11.663,5.073C-11.836,5.431 -12.062,5.797 -12.323,6.095C-12.353,6.132 -12.39,6.173 -12.418,6.2L-12.478,6.265L-12.528,6.313C-12.598,6.381 -12.677,6.454 -12.755,6.526C-12.916,6.669 -13.087,6.817 -13.259,6.977C-13.431,7.139 -13.6,7.311 -13.756,7.508L-13.78,7.536L-13.791,7.55L-13.806,7.572C-13.827,7.6 -13.847,7.629 -13.868,7.657C-13.907,7.712 -13.938,7.76 -13.972,7.814C-14.037,7.919 -14.096,8.023 -14.146,8.13C-14.193,8.229 -14.233,8.328 -14.267,8.427C-14.439,8.405 -14.613,8.386 -14.786,8.368C-16.38,8.201 -17.956,8.96 -19.378,7.835C-20.836,6.682 -21.766,5.086 -22.795,3.534C-22.841,3.46 -22.875,3.388 -22.912,3.321C-22.929,3.288 -22.947,3.256 -22.963,3.224C-22.981,3.193 -22.996,3.164 -23.007,3.14C-23.03,3.089 -23.051,3.042 -23.072,2.998C-23.086,2.969 -23.098,2.943 -23.114,2.91L-23.114,-8.389L-27.97,-8.389L-27.97,2.91C-27.986,2.943 -27.998,2.969 -28.012,2.998C-28.033,3.042 -28.055,3.089 -28.078,3.14C-28.089,3.164 -28.103,3.193 -28.121,3.224C-28.137,3.256 -28.155,3.288 -28.172,3.321C-28.209,3.387 -28.243,3.46 -28.289,3.534C-29.359,5.252 -31.342,8.485 -33.409,8.326C-33.582,8.313 -33.76,8.298 -33.943,8.295C-34.309,8.279 -34.693,8.278 -35.088,8.29C-35.483,8.302 -35.889,8.327 -36.298,8.368C-36.471,8.386 -36.645,8.404 -36.817,8.427C-36.851,8.328 -36.891,8.229 -36.938,8.13C-36.988,8.023 -37.047,7.919 -37.112,7.814C-37.146,7.76 -37.177,7.712 -37.216,7.657C-37.237,7.629 -37.257,7.6 -37.278,7.572L-37.294,7.55L-37.304,7.536L-37.329,7.508C-37.484,7.311 -37.654,7.139 -37.825,6.977C-37.997,6.817 -38.168,6.669 -38.329,6.526C-38.408,6.454 -38.486,6.381 -38.556,6.313L-38.606,6.265L-38.666,6.2C-38.694,6.173 -38.731,6.132 -38.762,6.095C-39.023,5.797 -39.249,5.431 -39.421,5.073C-39.506,4.898 -39.581,4.713 -39.644,4.539C-39.708,4.363 -39.761,4.191 -39.806,4.03C-39.897,3.708 -39.96,3.429 -40.005,3.233C-40.007,3.226 -40.009,3.217 -40.011,3.21C-40.047,3.048 -40.202,2.94 -40.367,2.963C-40.527,2.985 -40.644,3.12 -40.644,3.28L-40.644,3.298C-40.644,3.307 -40.644,3.315 -40.643,3.323C-40.631,3.528 -40.614,3.82 -40.574,4.179C-40.554,4.358 -40.528,4.554 -40.49,4.761C-40.451,4.972 -40.404,5.187 -40.336,5.418C-40.203,5.869 -40.017,6.338 -39.74,6.794C-39.705,6.852 -39.673,6.903 -39.629,6.965L-39.582,7.038L-39.522,7.122C-39.442,7.23 -39.367,7.328 -39.292,7.422C-39.141,7.611 -38.998,7.782 -38.878,7.94C-38.758,8.099 -38.655,8.247 -38.585,8.378L-38.567,8.411L-38.557,8.426L-38.554,8.436L-38.537,8.475C-38.524,8.505 -38.512,8.535 -38.498,8.564C-38.481,8.611 -38.466,8.656 -38.453,8.698C-38.547,8.719 -38.64,8.738 -38.733,8.759C-39.127,8.843 -39.511,8.939 -39.881,9.038C-40.25,9.134 -40.596,9.238 -40.923,9.33C-41.248,9.422 -41.553,9.503 -41.834,9.566C-42.398,9.694 -42.868,9.743 -43.197,9.748C-43.272,9.749 -43.387,9.746 -43.489,9.742C-43.619,9.736 -43.733,9.828 -43.756,9.956C-43.781,10.096 -43.69,10.23 -43.551,10.258C-43.441,10.281 -43.317,10.305 -43.235,10.317C-43.052,10.344 -42.83,10.366 -42.575,10.375C-42.32,10.384 -42.034,10.38 -41.724,10.361C-41.415,10.343 -41.084,10.31 -40.74,10.271C-40.395,10.233 -40.038,10.186 -39.674,10.152C-39.31,10.114 -38.934,10.084 -38.554,10.065C-38.363,10.054 -38.171,10.044 -37.979,10.042C-37.786,10.035 -37.594,10.032 -37.402,10.033C-37.21,10.032 -37.019,10.037 -36.828,10.043C-36.637,10.047 -36.449,10.059 -36.263,10.07C-35.888,10.093 -35.525,10.129 -35.175,10.175C-34.826,10.222 -34.491,10.277 -34.18,10.341C-34.178,10.343 -34.176,10.343 -34.175,10.343C-34.297,10.454 -34.42,10.564 -34.541,10.669C-35.14,11.197 -35.835,11.767 -36.542,12.449C-36.894,12.791 -37.25,13.16 -37.586,13.574C-37.669,13.679 -37.754,13.782 -37.835,13.89L-37.956,14.056L-38.015,14.138L-38.052,14.19L-38.064,14.208L-38.089,14.246L-38.184,14.393L-38.232,14.467C-38.247,14.49 -38.271,14.532 -38.29,14.563L-38.41,14.768L-38.469,14.87L-38.52,14.969C-38.785,15.48 -38.984,16.038 -39.106,16.598C-39.221,16.614 -39.342,16.631 -39.471,16.653C-39.81,16.708 -40.201,16.787 -40.628,16.917C-41.056,17.046 -41.523,17.241 -41.982,17.524C-42.441,17.81 -42.851,18.176 -43.211,18.568C-43.572,18.962 -43.887,19.375 -44.195,19.791C-44.505,20.211 -44.806,20.647 -45.092,21.092C-45.378,21.537 -45.65,21.989 -45.903,22.442C-46.154,22.897 -46.366,23.3 -46.627,23.576C-46.659,23.61 -46.692,23.645 -46.726,23.674C-46.743,23.69 -46.758,23.706 -46.776,23.719L-46.802,23.741L-46.815,23.75L-46.821,23.756C-46.932,23.835 -46.966,23.858 -47.056,23.905C-47.219,23.988 -47.401,24.051 -47.593,24.097C-47.976,24.189 -48.385,24.221 -48.771,24.263C-49.861,24.373 -50.693,24.457 -51.084,24.497C-51.223,24.512 -51.326,24.631 -51.319,24.77C-51.315,24.839 -51.285,24.902 -51.238,24.947C-51.192,24.991 -51.128,25.018 -51.059,25.018C-50.665,25.018 -49.829,25.019 -48.734,25.02C-48.351,25.018 -47.922,25.031 -47.434,24.968C-47.191,24.936 -46.932,24.88 -46.671,24.779C-46.549,24.734 -46.377,24.643 -46.293,24.595L-46.188,24.527C-46.155,24.507 -46.126,24.485 -46.096,24.463C-46.036,24.42 -45.98,24.373 -45.923,24.325C-45.479,23.939 -45.186,23.466 -44.904,23.066C-44.693,22.767 -44.471,22.469 -44.244,22.176C-44.222,22.272 -44.199,22.37 -44.175,22.474C-44.124,22.745 -44.072,23.041 -44.046,23.361C-44.012,23.68 -44.001,24.023 -44.001,24.379C-44.002,24.735 -44.025,25.105 -44.059,25.483C-44.098,25.858 -44.153,26.249 -44.218,26.621C-44.293,27.024 -44.371,27.391 -44.461,27.773C-44.553,28.15 -44.651,28.522 -44.751,28.881C-44.952,29.6 -45.157,30.272 -45.331,30.849C-45.504,31.428 -45.646,31.913 -45.739,32.254C-45.776,32.392 -45.807,32.506 -45.83,32.593C-45.861,32.704 -45.798,32.818 -45.688,32.853C-45.58,32.886 -45.464,32.831 -45.424,32.724C-45.392,32.641 -45.351,32.531 -45.3,32.399C-45.174,32.073 -44.988,31.609 -44.759,31.053C-44.529,30.496 -44.256,29.847 -43.979,29.138C-43.841,28.784 -43.704,28.414 -43.57,28.035C-43.439,27.658 -43.31,27.25 -43.199,26.87C-43.084,26.461 -42.986,26.064 -42.904,25.657C-42.825,25.253 -42.76,24.85 -42.718,24.455C-42.678,24.06 -42.651,23.673 -42.652,23.303C-42.648,22.935 -42.672,22.582 -42.7,22.256C-42.719,22.094 -42.738,21.937 -42.759,21.788C-42.785,21.64 -42.811,21.499 -42.835,21.367C-42.865,21.236 -42.893,21.112 -42.919,20.998C-42.945,20.891 -42.977,20.789 -43.004,20.696C-42.683,20.345 -42.366,20.012 -42.054,19.736C-41.73,19.45 -41.409,19.226 -41.1,19.076C-40.787,18.929 -40.465,18.829 -40.145,18.768C-39.841,18.709 -39.545,18.679 -39.273,18.661C-39.258,19.072 -39.224,19.469 -39.182,19.855C-39.124,20.333 -39.067,20.809 -39.011,21.283C-38.898,22.223 -38.786,23.148 -38.678,24.045C-38.57,24.94 -38.466,25.807 -38.367,26.628C-38.342,26.834 -38.317,27.036 -38.294,27.235L-38.276,27.385L-38.266,27.459L-38.263,27.495L-38.26,27.513L-38.26,27.5L-38.259,27.509C-38.25,27.608 -38.242,27.706 -38.232,27.803C-38.229,27.851 -38.224,27.9 -38.22,27.947C-38.217,27.993 -38.218,28.029 -38.217,28.07C-38.214,28.15 -38.212,28.23 -38.209,28.308C-38.209,28.388 -38.215,28.469 -38.219,28.549C-38.221,28.628 -38.225,28.708 -38.238,28.782C-38.248,28.858 -38.258,28.934 -38.267,29.008C-38.283,29.079 -38.299,29.15 -38.316,29.22C-38.328,29.292 -38.351,29.358 -38.374,29.422C-38.397,29.487 -38.414,29.555 -38.441,29.615C-38.498,29.736 -38.547,29.86 -38.618,29.966C-38.677,30.079 -38.757,30.177 -38.828,30.276C-38.903,30.373 -38.989,30.46 -39.067,30.547C-39.157,30.627 -39.237,30.709 -39.323,30.779C-39.414,30.848 -39.496,30.918 -39.583,30.98C-39.672,31.039 -39.755,31.096 -39.835,31.15C-40.045,31.278 -40.233,31.383 -40.394,31.467C-40.419,31.48 -40.473,31.507 -40.537,31.538C-40.761,31.65 -40.854,31.922 -40.745,32.148C-40.742,32.152 -40.741,32.155 -40.738,32.159C-40.636,32.369 -40.392,32.468 -40.172,32.389C-40.096,32.361 -40.032,32.338 -40,32.325C-39.815,32.25 -39.593,32.152 -39.338,32.025C-39.238,31.971 -39.133,31.913 -39.023,31.852C-38.913,31.788 -38.8,31.711 -38.682,31.636C-38.566,31.557 -38.45,31.462 -38.327,31.369C-38.211,31.262 -38.086,31.157 -37.969,31.033C-37.855,30.906 -37.733,30.778 -37.631,30.624C-37.517,30.478 -37.426,30.313 -37.33,30.142C-37.281,30.057 -37.248,29.966 -37.205,29.875C-37.164,29.783 -37.124,29.692 -37.097,29.595C-37.065,29.498 -37.034,29.402 -37.001,29.304C-36.978,29.205 -36.955,29.104 -36.932,29.003C-36.907,28.901 -36.891,28.799 -36.878,28.696C-36.865,28.592 -36.848,28.489 -36.837,28.382C-36.83,28.273 -36.823,28.163 -36.816,28.052C-36.814,27.998 -36.809,27.937 -36.808,27.886L-36.808,27.447C-36.81,27.34 -36.814,27.233 -36.817,27.125C-36.823,26.925 -36.828,26.72 -36.834,26.514C-36.859,25.687 -36.884,24.815 -36.91,23.913C-36.936,23.011 -36.964,22.079 -36.99,21.132C-37.004,20.661 -37.017,20.186 -37.03,19.71C-37.04,19.253 -37.033,18.809 -36.994,18.39C-36.921,17.544 -36.694,16.83 -36.3,16.222L-36.265,16.166L-36.23,16.118L-36.163,16.023C-36.149,16.006 -36.146,15.996 -36.125,15.971L-36.071,15.902L-35.961,15.763L-35.786,15.563C-35.719,15.49 -35.649,15.42 -35.581,15.348C-35.305,15.065 -34.999,14.799 -34.679,14.54C-31.612,12.064 -28.389,9.729 -25.685,6.837C-25.636,6.785 -25.589,6.733 -25.542,6.681C-25.495,6.733 -25.448,6.785 -25.399,6.837C-22.667,9.795 -19.512,12.032 -16.405,14.54C-16.085,14.799 -15.78,15.065 -15.503,15.348C-15.435,15.42 -15.365,15.49 -15.299,15.563L-15.123,15.763L-15.013,15.902L-14.959,15.971C-14.939,15.996 -14.935,16.006 -14.922,16.023L-14.854,16.118L-14.819,16.166L-14.784,16.222C-14.39,16.83 -14.163,17.544 -14.09,18.39C-14.052,18.809 -14.044,19.253 -14.054,19.71C-14.067,20.186 -14.081,20.661 -14.094,21.132C-14.121,22.079 -14.148,23.011 -14.174,23.913C-14.2,24.815 -14.226,25.687 -14.25,26.514C-14.256,26.72 -14.261,26.925 -14.267,27.125C-14.27,27.233 -14.274,27.34 -14.276,27.447L-14.276,27.886C-14.275,27.937 -14.27,27.998 -14.268,28.052C-14.261,28.163 -14.255,28.273 -14.247,28.382C-14.237,28.489 -14.22,28.592 -14.206,28.696C-14.193,28.799 -14.177,28.901 -14.152,29.003C-14.129,29.104 -14.106,29.205 -14.083,29.304C-14.05,29.402 -14.019,29.498 -13.988,29.595C-13.96,29.692 -13.92,29.783 -13.879,29.875C-13.837,29.966 -13.803,30.057 -13.754,30.142C-13.658,30.313 -13.567,30.478 -13.454,30.624C-13.351,30.778 -13.229,30.906 -13.115,31.033C-12.998,31.157 -12.874,31.262 -12.758,31.369C-12.634,31.462 -12.518,31.557 -12.402,31.636C-12.284,31.711 -12.172,31.788 -12.062,31.852C-11.952,31.913 -11.846,31.971 -11.746,32.025C-11.491,32.152 -11.269,32.25 -11.084,32.325C-11.053,32.338 -10.989,32.361 -10.912,32.389C-10.693,32.468 -10.448,32.369 -10.346,32.159C-10.343,32.155 -10.342,32.152 -10.34,32.148C-10.23,31.922 -10.323,31.65 -10.547,31.538C-10.612,31.507 -10.665,31.48 -10.69,31.467C-10.851,31.383 -11.039,31.278 -11.25,31.15C-11.329,31.096 -11.413,31.039 -11.501,30.98C-11.588,30.918 -11.67,30.848 -11.761,30.779C-11.848,30.709 -11.927,30.627 -12.017,30.547C-12.095,30.46 -12.181,30.373 -12.256,30.276C-12.327,30.177 -12.407,30.079 -12.466,29.966C-12.538,29.86 -12.586,29.736 -12.643,29.615C-12.671,29.555 -12.687,29.487 -12.71,29.422C-12.733,29.358 -12.756,29.292 -12.768,29.22C-12.785,29.15 -12.801,29.079 -12.817,29.008C-12.826,28.934 -12.836,28.858 -12.846,28.782C-12.859,28.708 -12.863,28.628 -12.865,28.549C-12.869,28.469 -12.875,28.388 -12.875,28.308C-12.872,28.23 -12.87,28.15 -12.867,28.07C-12.866,28.029 -12.867,27.993 -12.864,27.947C-12.86,27.9 -12.855,27.851 -12.852,27.803C-12.842,27.706 -12.834,27.608 -12.825,27.509L-12.824,27.5L-12.824,27.513L-12.818,27.459L-12.808,27.385L-12.79,27.235C-12.767,27.036 -12.742,26.834 -12.718,26.628C-12.619,25.807 -12.515,24.94 -12.406,24.045C-12.298,23.148 -12.186,22.223 -12.074,21.283C-12.017,20.809 -11.96,20.333 -11.902,19.855C-11.86,19.469 -11.826,19.072 -11.811,18.661C-11.54,18.679 -11.243,18.709 -10.939,18.768C-10.619,18.829 -10.297,18.929 -9.984,19.076C-9.675,19.226 -9.354,19.45 -9.03,19.736C-8.718,20.012 -8.401,20.345 -8.08,20.696C-8.107,20.789 -8.139,20.891 -8.165,20.998C-8.191,21.112 -8.219,21.236 -8.249,21.367C-8.273,21.499 -8.299,21.64 -8.325,21.788C-8.346,21.937 -8.365,22.094 -8.385,22.256C-8.412,22.582 -8.437,22.935 -8.432,23.303C-8.433,23.673 -8.406,24.06 -8.366,24.455C-8.324,24.85 -8.259,25.253 -8.18,25.657C-8.098,26.064 -8,26.461 -7.886,26.87C-7.774,27.25 -7.645,27.658 -7.515,28.035C-7.38,28.414 -7.243,28.784 -7.105,29.138C-6.828,29.847 -6.555,30.496 -6.326,31.053C-6.096,31.609 -5.91,32.073 -5.784,32.399C-5.734,32.531 -5.692,32.641 -5.66,32.724C-5.62,32.831 -5.504,32.886 -5.396,32.853C-5.286,32.818 -5.224,32.704 -5.254,32.593C-5.277,32.506 -5.308,32.392 -5.346,32.254C-5.439,31.913 -5.58,31.428 -5.753,30.849C-5.927,30.272 -6.132,29.6 -6.333,28.881C-6.433,28.522 -6.531,28.15 -6.623,27.773C-6.714,27.391 -6.791,27.024 -6.866,26.621C-6.931,26.249 -6.987,25.858 -7.025,25.483C-7.059,25.105 -7.082,24.735 -7.083,24.379C-7.083,24.023 -7.072,23.68 -7.039,23.361C-7.012,23.041 -6.96,22.745 -6.909,22.474C-6.885,22.37 -6.862,22.272 -6.84,22.176C-6.613,22.469 -6.391,22.767 -6.181,23.066C-5.898,23.466 -5.605,23.939 -5.161,24.325C-5.104,24.373 -5.048,24.42 -4.988,24.463C-4.958,24.485 -4.929,24.507 -4.896,24.527L-4.791,24.595C-4.708,24.643 -4.535,24.734 -4.413,24.779C-4.152,24.88 -3.893,24.936 -3.65,24.968C-3.162,25.031 -2.733,25.018 -2.35,25.02C-1.255,25.019 -0.419,25.018 -0.025,25.018C0.044,25.018 0.108,24.991 0.153,24.947C0.201,24.902 0.231,24.839 0.234,24.77C0.242,24.631 0.139,24.512 0,24.497" style="fill:rgb(0,144,186);fill-rule:nonzero;"/>
      </g>
    </g>
  </g>
</svg>