<svg width="100%" height="100%" viewBox="0 0 261 222" version="1.1" xmlns="http://www.w3.org/2000/svg" xmlns:xlink="http://www.w3.org/1999/xlink" xml:space="preserve" xmlns:serif="http://www.serif.com/" style="fill-rule:evenodd;clip-rule:evenodd;stroke-linejoin:round;stroke-miterlimit:2;">
  <g transform="matrix(1,0,0,1,-515.382,-545.358)">
    <g transform="matrix(4.16667,0,0,4.16667,0,0)">
      <g transform="matrix(1,0,0,1,137.703,130.663)">
        <path d="M0,35.148C-4.455,35.148 -8.13,32.971 -10.935,28.668C-12.287,26.594 -13.137,24.128 -13.609,20.907C-13.75,19.945 -13.826,18.98 -13.9,18.047C-13.932,17.64 -13.965,17.22 -14.003,16.812L-14.011,16.727L-14.008,16.642C-13.916,13.837 -13.67,10.593 -11.923,7.593C-8.941,2.473 -4.442,0 1.451,0.239C3.791,0.334 5.692,0.874 7.262,1.889C10.202,3.79 11.733,6.696 11.811,10.525C11.838,11.857 11.59,13.102 11.075,14.224C10.764,14.902 9.962,15.199 9.284,14.888C8.606,14.576 8.308,13.774 8.62,13.096C8.968,12.337 9.128,11.514 9.109,10.58C9.05,7.662 7.965,5.562 5.794,4.157C4.626,3.402 3.211,3.015 1.341,2.939C-3.54,2.74 -7.115,4.707 -9.588,8.953C-10.863,11.142 -11.2,13.615 -11.305,16.648C-11.269,17.046 -11.237,17.446 -11.206,17.834C-11.133,18.764 -11.063,19.642 -10.935,20.515C-10.522,23.336 -9.803,25.458 -8.672,27.192C-6.372,30.721 -3.526,32.446 0.008,32.446C0.24,32.446 0.475,32.438 0.714,32.424C2.738,32.297 4.279,31.567 5.425,30.19C6.827,28.505 7.504,25.933 5.195,23.769C4.65,23.259 4.622,22.404 5.133,21.859C5.643,21.315 6.498,21.287 7.042,21.797C8.588,23.246 9.404,25.035 9.401,26.97C9.399,28.692 8.724,30.449 7.501,31.919C5.877,33.87 3.65,34.947 0.882,35.12C0.585,35.139 0.29,35.148 0,35.148" style="fill:rgb(60,93,103);fill-rule:nonzero;"/>
      </g>
      <g transform="matrix(1,0,0,1,150.304,172.18)">
        <path d="M0,-21.381C-2.132,-24.029 -5.291,-25.413 -7.826,-26.32C-8.115,-27.026 -8.514,-27.652 -8.932,-28.251C-8.378,-28.697 -8.021,-29.305 -7.762,-29.748L-6.587,-31.753C-6.336,-32.182 -6.48,-32.734 -6.909,-32.985C-7.339,-33.237 -7.89,-33.093 -8.142,-32.663L-9.316,-30.658C-9.527,-30.299 -9.737,-29.959 -9.968,-29.735C-10.36,-30.339 -10.677,-30.952 -10.813,-31.629C-10.911,-32.117 -11.386,-32.433 -11.874,-32.334C-12.361,-32.236 -12.678,-31.761 -12.58,-31.274C-12.294,-29.858 -11.516,-28.771 -10.764,-27.719C-10.272,-27.031 -9.801,-26.375 -9.505,-25.669C-9.444,-25.527 -9.393,-25.382 -9.348,-25.236C-9.236,-24.87 -9.184,-24.512 -9.191,-24.158C-9.201,-23.589 -9.365,-23.03 -9.681,-22.47C-10.147,-21.645 -10.899,-20.905 -11.776,-20.279L-15.23,-21.877L-16.415,-22.214C-16.894,-22.35 -17.392,-22.073 -17.528,-21.595C-17.665,-21.116 -17.387,-20.618 -16.909,-20.482L-15.859,-20.183L-13.678,-19.174C-14.433,-18.819 -15.196,-18.545 -15.891,-18.369C-16.374,-18.247 -16.665,-17.757 -16.543,-17.275C-16.44,-16.866 -16.073,-16.595 -15.671,-16.595C-15.598,-16.595 -15.523,-16.604 -15.45,-16.623C-14.171,-16.946 -12.737,-17.535 -11.441,-18.342C-11.439,-18.343 -11.437,-18.345 -11.435,-18.346C-11.23,-18.393 -11.044,-18.511 -10.914,-18.686C-10.912,-18.687 -10.911,-18.688 -10.909,-18.689C-9.752,-19.487 -8.744,-20.466 -8.113,-21.584C-7.775,-22.18 -7.555,-22.79 -7.454,-23.409C-5.527,-22.628 -3.433,-21.515 -2.017,-19.756C0.567,-16.548 0.393,-11.915 -0.208,-8.593C-0.496,-6.996 -0.916,-5.371 -1.323,-3.799C-1.974,-1.276 -2.648,1.333 -2.851,4.03C-3.023,6.315 -2.855,8.608 -2.353,10.845C-2.218,11.448 -1.683,11.856 -1.091,11.856C-0.996,11.856 -0.902,11.846 -0.806,11.825C-0.108,11.667 0.33,10.975 0.173,10.278C-0.272,8.291 -0.421,6.254 -0.269,4.223C-0.083,1.758 0.533,-0.628 1.184,-3.152C1.602,-4.77 2.034,-6.441 2.339,-8.132C3.037,-11.985 3.197,-17.41 0,-21.381" style="fill:rgb(0,144,186);fill-rule:nonzero;"/>
      </g>
      <g transform="matrix(1,0,0,1,172.097,130.663)">
        <path d="M0,35.148C4.455,35.148 8.13,32.971 10.935,28.668C12.287,26.594 13.137,24.128 13.609,20.907C13.75,19.945 13.826,18.98 13.9,18.047C13.932,17.64 13.965,17.22 14.003,16.812L14.011,16.727L14.008,16.642C13.916,13.837 13.67,10.593 11.923,7.593C8.941,2.473 4.442,0 -1.451,0.239C-3.791,0.334 -5.692,0.874 -7.262,1.889C-10.202,3.79 -11.733,6.696 -11.811,10.525C-11.838,11.857 -11.59,13.102 -11.075,14.224C-10.764,14.902 -9.962,15.199 -9.284,14.888C-8.606,14.576 -8.308,13.774 -8.62,13.096C-8.968,12.337 -9.128,11.514 -9.109,10.58C-9.05,7.662 -7.965,5.562 -5.794,4.157C-4.626,3.402 -3.211,3.015 -1.341,2.939C3.54,2.74 7.115,4.707 9.588,8.953C10.863,11.142 11.2,13.615 11.305,16.648C11.269,17.046 11.237,17.446 11.206,17.834C11.133,18.764 11.063,19.642 10.935,20.515C10.522,23.336 9.803,25.458 8.672,27.192C6.372,30.721 3.526,32.446 -0.008,32.446C-0.24,32.446 -0.475,32.438 -0.714,32.424C-2.738,32.297 -4.279,31.567 -5.425,30.19C-6.827,28.505 -7.504,25.933 -5.195,23.769C-4.65,23.259 -4.622,22.404 -5.133,21.859C-5.643,21.315 -6.498,21.287 -7.042,21.797C-8.588,23.246 -9.404,25.035 -9.401,26.97C-9.399,28.692 -8.724,30.449 -7.501,31.919C-5.877,33.87 -3.65,34.947 -0.882,35.12C-0.585,35.139 -0.29,35.148 0,35.148" style="fill:rgb(60,93,103);fill-rule:nonzero;"/>
      </g>
      <g transform="matrix(1,0,0,1,159.495,172.18)">
        <path d="M0,-21.381C2.132,-24.029 5.291,-25.413 7.826,-26.32C8.115,-27.026 8.514,-27.652 8.932,-28.251C8.378,-28.697 8.021,-29.305 7.762,-29.748L6.587,-31.753C6.336,-32.182 6.48,-32.734 6.909,-32.985C7.339,-33.237 7.89,-33.093 8.142,-32.663L9.316,-30.658C9.527,-30.299 9.737,-29.959 9.968,-29.735C10.36,-30.339 10.677,-30.952 10.813,-31.629C10.911,-32.117 11.386,-32.433 11.874,-32.334C12.361,-32.236 12.678,-31.761 12.58,-31.274C12.294,-29.858 11.516,-28.771 10.764,-27.719C10.272,-27.031 9.801,-26.375 9.505,-25.669C9.444,-25.527 9.393,-25.382 9.348,-25.236C9.236,-24.87 9.184,-24.512 9.191,-24.158C9.201,-23.589 9.365,-23.03 9.681,-22.47C10.147,-21.645 10.899,-20.905 11.776,-20.279L15.23,-21.877L16.415,-22.214C16.894,-22.35 17.392,-22.073 17.528,-21.595C17.665,-21.116 17.387,-20.618 16.909,-20.482L15.859,-20.183L13.678,-19.174C14.433,-18.819 15.196,-18.545 15.891,-18.369C16.374,-18.247 16.665,-17.757 16.543,-17.275C16.44,-16.866 16.073,-16.595 15.671,-16.595C15.598,-16.595 15.523,-16.604 15.45,-16.623C14.171,-16.946 12.737,-17.535 11.441,-18.342C11.439,-18.343 11.437,-18.345 11.435,-18.346C11.23,-18.393 11.044,-18.511 10.914,-18.686C10.912,-18.687 10.911,-18.688 10.909,-18.689C9.752,-19.487 8.744,-20.466 8.113,-21.584C7.775,-22.18 7.555,-22.79 7.454,-23.409C5.527,-22.628 3.433,-21.515 2.017,-19.756C-0.567,-16.548 -0.393,-11.915 0.208,-8.593C0.496,-6.996 0.916,-5.371 1.323,-3.799C1.974,-1.276 2.648,1.333 2.851,4.03C3.023,6.315 2.855,8.608 2.353,10.845C2.218,11.448 1.683,11.856 1.091,11.856C0.996,11.856 0.902,11.846 0.806,11.825C0.108,11.667 -0.33,10.975 -0.173,10.278C0.272,8.291 0.421,6.254 0.269,4.223C0.083,1.758 -0.533,-0.628 -1.184,-3.152C-1.602,-4.77 -2.034,-6.441 -2.339,-8.132C-3.037,-11.985 -3.197,-17.41 0,-21.381" style="fill:rgb(0,144,186);fill-rule:nonzero;"/>
      </g>
    </g>
  </g>
</svg>