<svg width="100" height="100" viewBox="0 0 100 100" fill="none" xmlns="http://www.w3.org/2000/svg">
<circle cx="50" cy="50" r="49" stroke="#0090BA" stroke-width="2"/>
<path d="M74.6209 73.0649H25.2817C23.8278 73.0563 22.4358 72.4748 21.4076 71.4465V71.4464C20.3797 70.4186 19.7984 69.0272 19.7892 67.5736C19.7892 67.5724 19.7892 32.3314 19.7892 32.3314C19.798 30.8774 20.3794 29.4853 21.4076 28.4571C22.4356 27.4293 23.827 26.8479 25.2805 26.8389C25.2817 26.8389 74.6209 26.8389 74.6209 26.8389C76.0749 26.8476 77.4668 27.4289 78.495 28.4571V28.4573C79.5232 29.485 80.1044 30.8765 80.1134 32.33C80.1134 32.3313 80.1134 67.5724 80.1134 67.5724C80.1048 69.0263 79.5235 70.4183 78.495 71.4464L78.4949 71.4465C77.4671 72.4746 76.0757 73.0559 74.6223 73.0649H74.6209ZM25.2796 30.7704C24.8663 30.7704 24.4698 30.9347 24.1774 31.2269V31.2271C23.8851 31.5194 23.7209 31.9158 23.7209 32.3292V67.5746C23.7209 67.9879 23.8851 68.3844 24.1773 68.6767C24.4696 68.9692 24.8662 69.1332 25.2796 69.1332H74.6231C75.0365 69.1332 75.433 68.9692 75.7254 68.6769C76.0178 68.3844 76.1819 67.9879 76.1819 67.5746V32.3292C76.1819 31.9158 76.0178 31.5193 75.7254 31.2269C75.433 30.9346 75.0364 30.7704 74.6231 30.7704H25.2796Z" fill="#0090BA"/>
<path d="M39.3777 48.2815C38.1397 48.2815 36.9294 47.9144 35.9 47.2263H35.8999C34.8705 46.5387 34.0682 45.561 33.5944 44.4172C33.1207 43.2733 32.9966 42.0147 33.2382 40.8004C33.4797 39.5861 34.076 38.4706 34.9514 37.5952C35.8268 36.7198 36.9423 36.1235 38.1565 35.882C39.3709 35.6404 40.6295 35.7645 41.7733 36.2383C42.917 36.712 43.8949 37.5143 44.5824 38.5438L44.5825 38.5439C45.2705 39.5733 45.6376 40.7835 45.6376 42.0216C45.6376 43.6818 44.9781 45.274 43.8041 46.4479C42.6301 47.622 41.038 48.2815 39.3777 48.2815ZM39.3777 39.4701C38.8731 39.4701 38.3799 39.6198 37.9603 39.9002C37.5407 40.1806 37.2137 40.579 37.0205 41.0451C36.8274 41.5113 36.7769 42.0245 36.8753 42.5194C36.9737 43.0141 37.2166 43.4685 37.5733 43.8257L37.5737 43.8261C37.9305 44.1827 38.3851 44.4255 38.88 44.5241C39.3749 44.6226 39.8879 44.572 40.3542 44.3787C40.8204 44.1858 41.2189 43.8587 41.4992 43.4392L41.4993 43.4391C41.7796 43.0195 41.9292 42.5262 41.9292 42.0216C41.9292 41.3449 41.6604 40.696 41.1819 40.2175C40.7035 39.739 40.0545 39.4701 39.3777 39.4701Z" fill="#0090BA"/>
<path d="M49.9511 62.51C49.4279 62.5008 48.9284 62.2892 48.5581 61.9188C48.1871 61.5478 47.9753 61.0469 47.9669 60.5225C47.9665 59.4081 47.8208 58.3764 47.1427 57.5281C46.2006 56.3496 44.1061 55.461 39.3777 55.461C34.6494 55.461 32.5549 56.3496 31.6129 57.5281C30.9337 58.3778 30.7886 59.4112 30.7886 60.5257C30.7886 61.0519 30.5796 61.5567 30.2074 61.9286L30.2072 61.9289C29.8351 62.3011 29.3304 62.5101 28.8041 62.5101C28.278 62.5101 27.7731 62.3011 27.401 61.9289L27.4009 61.9286C27.0288 61.5567 26.8197 61.0519 26.8197 60.5257C26.8197 51.3776 36.284 51.4923 39.3777 51.4923C42.4708 51.4923 51.9322 51.3776 51.9357 60.5206C51.9278 61.0461 51.7159 61.5476 51.3445 61.9188C50.9743 62.2892 50.4749 62.5008 49.9516 62.51H49.9511Z" fill="#0090BA"/>
<path d="M67.5741 44.9421H57.0004C56.4597 44.9421 55.9409 44.7273 55.5586 44.3448L55.5584 44.3445C55.1758 43.9622 54.9611 43.4434 54.9611 42.9026C54.9611 42.3618 55.1758 41.8431 55.5584 41.4606L55.5585 41.4605C55.9408 41.078 56.4596 40.8633 57.0004 40.8633H67.5741C68.1149 40.8633 68.6337 41.078 69.016 41.4605L69.0161 41.4606C69.3986 41.8431 69.6134 42.3618 69.6134 42.9026C69.6134 43.4434 69.3986 43.9622 69.0161 44.3445L69.0158 44.3448C68.6335 44.7273 68.1148 44.9421 67.5741 44.9421Z" fill="#0090BA"/>
<path d="M64.0495 55.514H57.0004C56.4601 55.514 55.9417 55.2994 55.5597 54.9173L55.5594 54.9169C55.1773 54.535 54.9626 54.0166 54.9626 53.4763C54.9626 52.9359 55.1773 52.4175 55.5594 52.0357L55.5597 52.0353C55.9417 51.6531 56.4601 51.4385 57.0004 51.4385H64.0495C64.5898 51.4385 65.1082 51.6531 65.4902 52.0353L65.4904 52.0357C65.8727 52.4175 66.0872 52.9359 66.0872 53.4763C66.0872 54.0166 65.8727 54.535 65.4904 54.9169L65.4902 54.9173C65.1082 55.2994 64.5898 55.514 64.0495 55.514Z" fill="#0090BA"/>
</svg>
