<svg width="100" height="100" viewBox="0 0 100 100" fill="none" xmlns="http://www.w3.org/2000/svg">
<circle cx="50" cy="50" r="49" stroke="#0090BA" stroke-width="2"/>
<path d="M50 50.833C47.5277 50.833 45.111 50.1 43.0554 48.7263C40.9998 47.353 39.3976 45.4007 38.4515 43.1165C37.5054 40.8325 37.2579 38.3191 37.7402 35.8944C38.2225 33.4696 39.413 31.2423 41.1612 29.4942C42.9093 27.746 45.1367 26.5555 47.5613 26.0732C49.986 25.5909 52.4993 25.8384 54.7837 26.7845C57.0677 27.7306 59.02 29.3328 60.3933 31.3884C61.767 33.444 62.5 35.8607 62.5 38.333C62.5 41.6482 61.183 44.8277 58.839 47.172C56.4947 49.516 53.3153 50.833 50 50.833ZM50 30.833C48.5167 30.833 47.0667 31.2729 45.8333 32.097C44.6 32.9211 43.6387 34.0924 43.0709 35.4629C42.5033 36.8333 42.3547 38.3413 42.6441 39.7962C42.9335 41.251 43.6477 42.5874 44.6967 43.6363C45.7457 44.6853 47.082 45.3997 48.5367 45.689C49.9917 45.9783 51.4997 45.8297 52.87 45.262C54.2407 44.6943 55.412 43.733 56.236 42.4998C57.06 41.2664 57.5 39.8164 57.5 38.333C57.5 36.3439 56.7097 34.4362 55.3033 33.0297C53.8967 31.6232 51.989 30.833 50 30.833Z" fill="#0090BA"/>
<path d="M73.3334 74.1663C72.673 74.1577 72.042 73.8917 71.575 73.4247C71.108 72.9577 70.842 72.3267 70.8334 71.6663C70.8334 65.1663 67.3 60.833 50 60.833C32.7 60.833 29.1667 65.1663 29.1667 71.6663C29.1667 72.3293 28.9033 72.9653 28.4345 73.434C27.9656 73.903 27.3297 74.1663 26.6667 74.1663C26.0037 74.1663 25.3678 73.903 24.8989 73.434C24.4301 72.9653 24.1667 72.3293 24.1667 71.6663C24.1667 55.833 42.2667 55.833 50 55.833C57.7334 55.833 75.8334 55.833 75.8334 71.6663C75.8247 72.3267 75.5587 72.9577 75.0917 73.4247C74.6247 73.8917 73.9937 74.1577 73.3334 74.1663Z" fill="#0090BA"/>
</svg>
