<svg width="100" height="100" viewBox="0 0 100 100" fill="none" xmlns="http://www.w3.org/2000/svg">
<circle cx="50" cy="50" r="49" stroke="#0090BA" stroke-width="2"/>
<path d="M66.6667 28.1835H62.5V24.6002C62.5 24.03 62.2367 23.4831 61.7677 23.0799C61.299 22.6767 60.663 22.4502 60 22.4502C59.337 22.4502 58.701 22.6767 58.2324 23.0799C57.7634 23.4831 57.5 24.03 57.5 24.6002V28.1835H42.5V24.6002C42.5 24.03 42.2366 23.4831 41.7678 23.0799C41.299 22.6767 40.6631 22.4502 40 22.4502C39.337 22.4502 38.7011 22.6767 38.2323 23.0799C37.7634 23.4831 37.5 24.03 37.5 24.6002V28.1835H33.3334C30.9022 28.1835 28.5706 29.0141 26.8516 30.4925C25.1325 31.9709 24.1667 33.9761 24.1667 36.0669V67.6002C24.1667 69.6909 25.1325 71.6961 26.8516 73.1744C28.5706 74.6531 30.9022 75.4835 33.3334 75.4835H66.6667C69.0977 75.4835 71.4294 74.6531 73.1484 73.1744C74.8677 71.6961 75.8334 69.6909 75.8334 67.6002V36.0669C75.8334 33.9761 74.8677 31.9709 73.1484 30.4925C71.4294 29.0141 69.0977 28.1835 66.6667 28.1835ZM33.3334 32.4835H37.5V36.0669C37.5 36.6371 37.7634 37.1839 38.2323 37.5871C38.7011 37.9903 39.337 38.2169 40 38.2169C40.6631 38.2169 41.299 37.9903 41.7678 37.5871C42.2366 37.1839 42.5 36.6371 42.5 36.0669V32.4835H57.5V36.0669C57.5 36.6371 57.7634 37.1839 58.2324 37.5871C58.701 37.9903 59.337 38.2169 60 38.2169C60.663 38.2169 61.299 37.9903 61.7677 37.5871C62.2367 37.1839 62.5 36.6371 62.5 36.0669V32.4835H66.6667C67.7717 32.4835 68.8317 32.8611 69.613 33.5331C70.3944 34.2051 70.8334 35.1165 70.8334 36.0669V43.9502H29.1667V36.0669C29.1667 35.1165 29.6057 34.2051 30.3871 33.5331C31.1685 32.8611 32.2283 32.4835 33.3334 32.4835ZM66.6667 71.1835H33.3334C32.2283 71.1835 31.1685 70.806 30.3871 70.134C29.6057 69.4621 29.1667 68.5505 29.1667 67.6002V48.2502H70.8334V67.6002C70.8334 68.5505 70.3944 69.4621 69.613 70.134C68.8317 70.806 67.7717 71.1835 66.6667 71.1835Z" fill="#0090BA"/>
</svg>
