<svg width="100" height="100" viewBox="0 0 100 100" fill="none" xmlns="http://www.w3.org/2000/svg">
<circle cx="50" cy="50" r="49" stroke="#0090BA" stroke-width="2"/>
<path fill-rule="evenodd" clip-rule="evenodd" d="M42.381 82.8701C41.0594 82.8701 39.9865 81.7971 39.9865 80.4756C39.9865 79.154 41.0594 78.0811 42.381 78.0811H57.6191C58.9407 78.0811 60.0136 79.154 60.0136 80.4756C60.0136 81.7971 58.9407 82.8701 57.6191 82.8701H42.381Z" fill="#0090BA"/>
<path fill-rule="evenodd" clip-rule="evenodd" d="M50 26.6523C60.7901 26.6523 69.5373 35.3995 69.5373 46.1897C69.5373 53.3184 65.7193 59.5556 60.0164 62.967C60.0164 62.967 60.0135 65.2403 60.0135 65.2373C60.0135 70.7676 55.5303 75.2509 50 75.2509C44.4696 75.2509 39.9864 70.7677 39.9864 65.2379L39.9859 62.9685C34.2816 59.5573 30.4626 53.3194 30.4626 46.1897C30.4626 35.3995 39.2098 26.6523 50 26.6523ZM50 31.4413C41.8547 31.4413 35.2516 38.0444 35.2516 46.1897C35.2516 51.9808 38.5894 56.9922 43.4458 59.4059C44.2597 59.8104 44.7744 60.6408 44.7746 61.5496L44.7754 65.2373C44.7754 68.1227 47.1145 70.4618 50 70.4618C52.8854 70.4618 55.2245 68.1227 55.2245 65.2373V65.2343L55.2292 61.5452C55.2303 60.6375 55.7446 59.8085 56.5574 59.4043C61.412 56.9899 64.7483 51.9795 64.7483 46.1897C64.7483 38.0444 58.1452 31.4413 50 31.4413Z" fill="#0090BA"/>
<path fill-rule="evenodd" clip-rule="evenodd" d="M52.3944 19.5233C52.3944 20.8448 51.3215 21.9178 50 21.9178C48.6784 21.9178 47.6055 20.8448 47.6055 19.5233V15.7138C47.6055 14.3922 48.6784 13.3193 50 13.3193C51.3215 13.3193 52.3944 14.3922 52.3944 15.7138V19.5233Z" fill="#0090BA"/>
<path fill-rule="evenodd" clip-rule="evenodd" d="M70.7407 28.8352C69.8063 29.7697 68.2889 29.7697 67.3544 28.8352C66.4199 27.9007 66.4199 26.3834 67.3544 25.4489L71.1639 21.6393C72.0984 20.7049 73.6158 20.7049 74.5503 21.6393C75.4847 22.5738 75.4847 24.0912 74.5503 25.0257L70.7407 28.8352Z" fill="#0090BA"/>
<path fill-rule="evenodd" clip-rule="evenodd" d="M32.6455 25.4489C33.5799 26.3834 33.5799 27.9007 32.6455 28.8352C31.711 29.7697 30.1936 29.7697 29.2591 28.8352L25.4496 25.0257C24.5151 24.0912 24.5151 22.5738 25.4496 21.6393C26.3841 20.7049 27.9014 20.7049 28.8359 21.6393L32.6455 25.4489Z" fill="#0090BA"/>
<path fill-rule="evenodd" clip-rule="evenodd" d="M67.3544 63.1215C66.4199 62.187 66.4199 60.6696 67.3544 59.7352C68.2889 58.8007 69.8063 58.8007 70.7407 59.7352L74.5503 63.5447C75.4847 64.4792 75.4847 65.9965 74.5503 66.931C73.6158 67.8655 72.0984 67.8655 71.1639 66.931L67.3544 63.1215Z" fill="#0090BA"/>
<path fill-rule="evenodd" clip-rule="evenodd" d="M29.2591 59.7352C30.1936 58.8007 31.711 58.8007 32.6455 59.7352C33.5799 60.6696 33.5799 62.187 32.6455 63.1215L28.8359 66.931C27.9014 67.8655 26.3841 67.8655 25.4496 66.931C24.5151 65.9965 24.5151 64.4792 25.4496 63.5447L29.2591 59.7352Z" fill="#0090BA"/>
<path fill-rule="evenodd" clip-rule="evenodd" d="M23.3333 39.9863C24.6548 39.9863 25.7278 41.0593 25.7278 42.3808C25.7278 43.7024 24.6548 44.7753 23.3333 44.7753H19.5238C18.2022 44.7753 17.1293 43.7024 17.1293 42.3808C17.1293 41.0593 18.2022 39.9863 19.5238 39.9863H23.3333Z" fill="#0090BA"/>
<path fill-rule="evenodd" clip-rule="evenodd" d="M80.4762 39.9863C81.7978 39.9863 82.8707 41.0593 82.8707 42.3808C82.8707 43.7024 81.7978 44.7753 80.4762 44.7753H76.6667C75.3452 44.7753 74.2722 43.7024 74.2722 42.3808C74.2722 41.0593 75.3452 39.9863 76.6667 39.9863H80.4762Z" fill="#0090BA"/>
</svg>
