<svg width="1919" height="71" viewBox="0 0 1919 71" preserveAspectRatio="none" fill="none" xmlns="http://www.w3.org/2000/svg">
  <g clip-path="url(#clip0_30_236)">
    <path fill-rule="evenodd" clip-rule="evenodd" d="M1920 71.0001L1.24142e-05 71.0005C1.24142e-05 71.0005 8.83998 57.8345 97 36.4683C187.42 14.5549 291.03 52.5519 568 49.6939C844.97 46.8354 825.26 14.4566 1078 1.20508C1307.25 -10.8149 1920 71.0001 1920 71.0001Z" fill="#F8F8F8" fill-opacity="0.44"/>
    <path fill-rule="evenodd" clip-rule="evenodd" d="M1920 70.9999L7.86505e-06 71.0003C7.86505e-06 71.0003 187.9 36.6897 390 29.2911C657.73 19.4894 667.03 48.2676 944 45.289C1220.97 42.3105 1393.27 13.1712 1572 32.7191C1750.73 52.2669 1920 70.9999 1920 70.9999Z" fill="white"/>
  </g>
  <defs>
    <clipPath id="clip0_30_236">
      <rect width="1920" height="71" fill="white" transform="translate(0 0.000244141)"/>
    </clipPath>
  </defs>
</svg>