<?xml version="1.0" encoding="UTF-8"?>
<svg id="Layer_1" data-name="Layer 1" xmlns="http://www.w3.org/2000/svg" viewBox="0 0 1840.61 512">
  <path d="M149,512c-1.29-33.14-.2-65.96,13-97.15,14.83-35.05,40.96-58.8,74.82-74.85,23.18-10.98,47.65-17.64,72.82-22.05,1.95-.34,3.89-.76,4.66-.92,5.32-19.59,9.59-38.76,15.78-57.3,10.68-32.01,27.73-60.06,55.3-80.68,21.47-16.06,45.91-24.83,72.26-27.82,17.14-1.94,34.47-2.13,52.15-3.12v46.05c-7.24,0-14.52-.1-21.79.02-19.97.34-39.46,3.15-57.78,11.72-24.91,11.66-41.99,31-52.37,55.9-6.1,14.65-9.88,30.27-14.65,45.46-.33,1.06-.21,2.26-.26,2.92,48.88-.99,97.62-1.98,146.75-2.97v45.79c-51.02.22-102.27-.5-153.91,4.11-4.79,51.7-3.79,103.3-3.78,154.88h-203ZM195.14,466.46h111.17c1.07-34.37,2.12-68.35,3.19-102.59-18.61,3.8-36.64,8.87-53.58,17.24-35.35,17.46-55.56,45.8-60.77,85.35Z" style="fill: #0190ba; stroke-width: 0px;"/>
  <path d="M158,0c.05,25.13.54,50.28.03,75.4-.51,25.11-2.01,50.2-3.1,75.3-.06,1.29-.36,2.57-.67,4.64-18.88.91-37.62,2.24-56.37,2.63-32.28.68-64.57.78-96.86,1.12-.34-.03-.68-.06-1.02-.09v45c.34-.05.69-.1,1.03-.15,29.32-.14,58.63-.04,87.94-.51,19.44-.32,38.87-1.46,58.95-2.27-9.3,41.8-22.78,80.55-63.25,102.71-14.67,8.03-30.64,12.06-47.23,13.14-12.45.81-24.96.76-37.45,1.09v45c.35-.06.7-.12,1.05-.18,19.49.6,38.94.39,58.23-2.88,42.7-7.24,76.8-27.9,100.45-64.69,18.69-29.07,28.1-61.52,33.91-95.16.75-4.34,2.68-5.19,6.16-6.02,16.46-3.94,33.15-7.22,49.24-12.35,29.27-9.34,55.51-24.15,76.11-47.54,23.19-26.33,33.3-57.91,35.73-92.25.99-13.93.78-27.94,1.12-41.92h-204ZM309.47,70.02c-10.11,30.36-31.42,50.32-60.03,63.18-15.53,6.98-31.82,11.51-48.61,14.9,1.02-34.38,2.03-68.27,3.05-102.56h111.8c-2.08,8.32-3.58,16.58-6.21,24.47Z" style="fill: #0ec7fe; stroke-width: 0px;"/>
  <path d="M1260.3,145.39c1.61-.08,3.07-.22,4.52-.22,26.99-.01,53.99-.11,80.98.03,21.36.11,41.8,4.22,60.68,14.72,23.33,12.98,38.78,32.37,46.45,57.83,6.04,20.07,6.84,40.36,2.46,61.02-7.14,33.72-26.2,57.57-57.2,72.38-16.57,7.92-34.1,10.75-52.14,10.92-27.49.27-54.99.09-82.48.08-.98,0-1.95-.13-3.27-.21v-216.55ZM1320.22,308.04c11.28,0,22.15.92,32.8-.23,13.12-1.42,24.53-7.14,33.05-17.91,8.5-10.74,11.03-23.2,11.04-36.34.01-12.41-2.08-24.4-9.59-34.84-8.73-12.14-20.75-18.66-35.42-20.01-10.53-.97-21.12-1.14-31.88-1.67v111Z" style="fill: #0290ba; stroke-width: 0px;"/>
  <path d="M1655.19,274.65c.54,24.15-6.13,44.43-21.46,61.54-12.35,13.77-27.98,21.98-45.9,25.76-16.32,3.44-32.69,3.3-48.9-.92-24.88-6.47-43.44-20.81-54.85-44.13-8.87-18.15-10.08-37.52-7.53-56.87,2.91-22.03,13.33-40.58,31.23-54.37,13.2-10.17,28.37-15.82,44.76-17.4,16.11-1.55,32.25-.97,47.67,4.95,24.46,9.39,41.66,25.79,50.24,51.04,3.54,10.42,5,20.9,4.74,30.4ZM1595.07,274.69c-.52-3.14-1.02-7.76-2.07-12.25-2.68-11.45-9.9-18.95-21.12-22.1-10.18-2.86-22.6,1.82-28.45,10.89-8.96,13.88-8.85,28.8-3.19,43.79,5.88,15.57,24.98,21.84,39.12,13.15,11.98-7.36,14.73-19.18,15.72-33.49Z" style="fill: #0290ba; stroke-width: 0px;"/>
  <path d="M892.9,213.53c0-5.77.15-11.55-.05-17.31-.13-3.63,1.11-5.02,4.88-4.95,11.33.19,22.66.16,33.99.01,3.13-.04,4.47.77,4.47,4.16-.08,54.66-.06,109.31-.08,163.97,0,.64-.18,1.29-.4,2.75-3.57,0-7.16,0-10.75,0-9,0-18-.17-26.99.08-3.86.11-5.38-.92-5.15-5.01.33-5.89.08-11.81.08-17.79-6.72,5.45-12.51,10.81-18.96,15.22-12.73,8.69-27.14,10.55-42.29,9.77-23.96-1.22-42.03-12.56-55.66-31.53-8.42-11.72-13.74-24.88-15.06-39.38-.75-8.25-2-16.62-1.37-24.81,1.86-24.57,10.22-46.48,29.58-62.85,9.32-7.88,20.08-12.86,32.31-15.19,13.56-2.58,26.73-2.14,39.71,2.22,10.66,3.58,19.62,10.01,27.55,17.9,1.03,1.02,1.97,2.14,2.96,3.21.41-.16.82-.31,1.23-.47ZM892.88,276.51c.14-20.62-9.74-38.67-27.61-45.93-14.45-5.87-28.43-4.9-41.31,3.59-11.07,7.3-17.19,18.02-19.66,31.31-2.58,13.86-.84,26.8,6.05,38.8,15.53,27.08,48.34,28.87,67.97,10.59,11.02-10.26,14.56-23.73,14.56-38.36Z" style="fill: #10c8fe; stroke-width: 0px;"/>
  <path d="M1839.14,247c.45,2.71.9,5.42,1.47,8.85h-5.52c-17.5,0-35-.11-52.5.09-3.67.04-5.96-1-7.21-4.4-3.33-9.06-11.03-12.59-19.48-12.74-8.92-.16-16.17,4.62-19.8,13.23-4.49,10.62-5.65,21.69-3.9,33.15,1.19,7.8,3.03,15.11,8.5,21.23,8.85,9.89,29.12,8.33,34.54-5.63,1.34-3.46,3.43-4.92,7.44-4.86,17.5.25,35,.1,52.5.12,1.48,0,2.95.13,5.29.24-.49,3.11-.92,5.92-1.36,8.72-.09.81-.19,1.61-.28,2.42-.52,1.19-1.04,2.39-1.56,3.58-.51,1.43-1.01,2.87-1.52,4.3-.53.9-1.06,1.8-1.58,2.7-.1.54-.2,1.08-.3,1.62-.94,1.79-1.89,3.58-2.83,5.37l-.25.14s.04.28.04.28c-.61.86-1.22,1.72-1.82,2.58-1.04,1.57-2.08,3.13-3.12,4.7-.6.77-1.2,1.53-1.8,2.3-10.37,10.64-21.74,19.71-36.17,24.43-15.82,5.17-31.84,5.89-48.16,3.32-14.13-2.23-26.89-7.48-38.17-16.36-15.89-12.52-24.97-28.87-28.99-48.59-2.6-12.77-3.07-25.56-1.16-38.2,4.84-32.06,22.47-57.59,57-68.09,17.2-5.23,34.87-5.23,52.63-.95,23.91,5.76,41,19.63,52.22,41.2.23.44.55.84.82,1.25.55.9,1.09,1.81,1.64,2.71.48,1.43.96,2.86,1.44,4.29.54,1.21,1.08,2.43,1.61,3.64.11,1.12.23,2.24.34,3.36Z" style="fill: #0391ba; stroke-width: 0px;"/>
  <path d="M969.01,308.28c14.09,0,27.39-.06,40.7.1,1.07.01,2.83,1.34,3.07,2.33,3.39,14.48,18.52,21.14,31.51,20.14,6.18-.48,12.33-1.21,17.92-4.95,8.26-5.53,8.88-20.75-1.66-24.31-12.8-4.34-25.6-8.74-38.55-12.59-14.36-4.27-28.29-9.01-39.05-20.26-10.31-10.78-13.04-30.07-7.26-44.3,8.16-20.12,24.56-30.15,45.19-33.38,9.77-1.53,19.94-2.36,29.75-1.46,22.64,2.09,41.52,11.42,51.81,33.02,3.15,6.6,4.42,14.1,6.66,21.56-1.62.44-2.5.89-3.39.89-11.66.05-23.32-.03-34.98.09-2.7.03-3.85-.99-4.3-3.6-1.98-11.46-13.63-17.53-21.78-17.79-7.1-.22-14.16-.74-21.03,2.59-5.79,2.81-8.71,6.94-8.77,13.08-.07,6.59,3.72,11.31,9.47,13.33,13.71,4.81,27.67,8.92,41.56,13.2,15.08,4.65,29.66,10.64,37.96,24.89,13.32,22.87,4.71,51.94-20.41,65.12-18.42,9.66-38.15,10.53-57.8,7.46-20.62-3.22-38.11-13.13-49.49-31.54-4.3-6.96-6.84-14.65-7.11-23.62Z" style="fill: #11c8fe; stroke-width: 0px;"/>
  <path d="M608.29,362.16v-214.74h131.75c0,8.99.03,17.76,0,26.52-.05,10.52.87,8.66-8.76,8.69-24.82.09-49.65.17-74.47-.09-4.98-.05-6.12,1.55-6.02,6.24.29,14.32.23,28.65.03,42.98-.06,4.2,1.41,5.43,5.51,5.39,19.16-.17,38.32.08,57.47-.19,4.77-.07,5.98,1.53,5.84,6.02-.3,9.12-.09,18.26-.09,27.88-2.2.12-3.97.29-5.73.29-18.83.02-37.65.2-56.48-.11-5.12-.08-6.57,1.54-6.53,6.48.18,26.32-.04,52.65.19,78.97.04,4.75-1.46,5.87-5.95,5.76-12.12-.29-24.26-.1-36.74-.1Z" style="fill: #11c8fe; stroke-width: 0px;"/>
  <path d="M1151.42,226.96h-19.93c0-11.14-.1-21.92.16-32.7.02-1,2.26-2.71,3.54-2.79,5.12-.32,10.27-.13,16.22-.13,0-4.82,0-9.24,0-13.65,0-8-.12-16,.12-23.99.04-1.32,1.62-3.7,2.51-3.72,13.45-.24,26.9-.17,40.84-.17v41.52c4.73,0,8.99,0,13.25,0,6.83,0,13.66.1,20.49-.04,3.38-.07,4.9,1.24,4.88,4.65-.07,9-.13,18,.03,26.99.06,3.47-1.55,4.17-4.58,4.13-9.5-.12-18.99-.04-28.49-.04-1.62,0-3.25,0-5.17,0-.13,1.76-.3,3.05-.3,4.33-.02,25.49,0,50.99,0,76.48,0,6.99,1.42,13.67,8.53,16.48,4.02,1.59,8.83,1.32,13.3,1.57,4.15.23,8.33.13,12.49.03,2.93-.07,4.24,1.08,4.21,4.12-.09,9.33-.09,18.66,0,27.99.03,2.94-1.03,4.28-4.09,4.17-12.47-.45-25.03-.04-37.4-1.35-22.29-2.37-36.91-17.65-39.24-39.95-.81-7.76-1.25-15.59-1.31-23.4-.18-21.33-.06-42.65-.06-63.98,0-1.96,0-3.92,0-6.54Z" style="fill: #10c8fe; stroke-width: 0px;"/>
</svg>