<svg width="130" height="130" viewBox="0 0 130 130" fill="none" xmlns="http://www.w3.org/2000/svg">
  <g clip-path="url(#clip0_17_573)">
    <path d="M65.0022 129.998C100.901 129.998 130.002 100.897 130.002 64.9986C130.002 29.1001 100.901 -0.00134277 65.0022 -0.00134277C29.1036 -0.00134277 0.00195312 29.1001 0.00195312 64.9986C0.00195312 100.897 29.1036 129.998 65.0022 129.998Z" fill="#E9F9FF"/>
    <path fill-rule="evenodd" clip-rule="evenodd" d="M92.8806 47.6387C90.5806 44.8987 87.1406 43.1586 83.2906 43.1586C76.3906 43.1586 70.7906 48.7586 70.7906 55.6585V79.6585C70.7906 87.6585 64.2906 94.1585 56.2906 94.1585C48.2906 94.1585 41.7906 87.6585 41.7906 79.6585V70.4586C34.0706 70.1486 27.8906 63.7786 27.8906 55.9786V38.8787C27.9506 38.4387 28.0906 38.0286 28.2906 37.6586C28.8906 36.5686 30.0407 35.8386 31.3607 35.8386C33.2907 35.8386 34.8607 37.4086 34.8607 39.3386C34.8607 41.2686 33.2907 42.8386 31.3607 42.8386C30.8407 42.8386 30.3406 42.7187 29.8906 42.5187V55.9786C29.8906 62.6686 35.1706 68.1486 41.7906 68.4586C41.9906 68.4686 42.1906 68.4786 42.3906 68.4786C42.8606 68.4786 43.3306 68.4486 43.7906 68.3986C48.6106 67.8586 52.6006 64.5785 54.1706 60.1585C54.4006 59.5185 54.5807 58.8485 54.7007 58.1585C54.8307 57.4485 54.8906 56.7186 54.8906 55.9786V42.5087C54.4406 42.7187 53.9306 42.8386 53.4006 42.8386C51.4706 42.8386 49.9006 41.2686 49.9006 39.3386C49.9006 37.4086 51.4706 35.8386 53.4006 35.8386C54.7206 35.8386 55.8707 36.5686 56.4707 37.6586C56.7007 38.0886 56.8506 38.5686 56.8906 39.0786V55.9786C56.8906 56.7186 56.8407 57.4485 56.7307 58.1585C56.6207 58.8385 56.4706 59.5085 56.2806 60.1585C54.6106 65.6985 49.7206 69.8385 43.7906 70.4085V79.6585C43.7906 86.5585 49.3906 92.1585 56.2906 92.1585C63.1906 92.1585 68.7906 86.5585 68.7906 79.6585V55.6585C68.7906 47.6586 75.2906 41.1586 83.2906 41.1586C87.8206 41.1586 91.8706 43.2386 94.5306 46.4986C94.9606 47.0286 95.3607 47.5986 95.7207 48.1886C95.0607 48.3886 94.4806 48.7886 94.0606 49.3086C93.7106 48.7186 93.3106 48.1587 92.8806 47.6387ZM54.8906 39.1686C54.8106 38.4186 54.1706 37.8386 53.4006 37.8386C52.5706 37.8386 51.9006 38.5086 51.9006 39.3386C51.9006 40.1686 52.5706 40.8386 53.4006 40.8386C54.1706 40.8386 54.8106 40.2587 54.8906 39.5087C54.9006 39.4487 54.9006 39.3986 54.9006 39.3386C54.9006 39.2786 54.9006 39.2286 54.8906 39.1686ZM29.8906 39.0386C29.8706 39.1386 29.8607 39.2386 29.8607 39.3386C29.8607 39.4386 29.8706 39.5387 29.8906 39.6387C30.0306 40.3287 30.6407 40.8386 31.3607 40.8386C32.1907 40.8386 32.8607 40.1686 32.8607 39.3386C32.8607 38.5086 32.1907 37.8386 31.3607 37.8386C30.6407 37.8386 30.0306 38.3486 29.8906 39.0386Z" fill="#4D94CD"/>
    <path fill-rule="evenodd" clip-rule="evenodd" d="M96.7096 46.0387C99.6896 46.0387 102.11 48.4587 102.11 51.4387C102.11 54.4187 99.6896 56.8387 96.7096 56.8387C93.7296 56.8387 91.3097 54.4187 91.3097 51.4387C91.3097 48.4587 93.7296 46.0387 96.7096 46.0387ZM96.7096 48.0387C94.8296 48.0387 93.3097 49.5687 93.3097 51.4387C93.3097 53.3187 94.8296 54.8387 96.7096 54.8387C98.5896 54.8387 100.11 53.3187 100.11 51.4387C100.11 49.5687 98.5896 48.0387 96.7096 48.0387Z" fill="#4D94CD"/>
    <path d="M96.7105 52.9399C97.539 52.9399 98.2105 52.2684 98.2105 51.4399C98.2105 50.6115 97.539 49.9399 96.7105 49.9399C95.8821 49.9399 95.2105 50.6115 95.2105 51.4399C95.2105 52.2684 95.8821 52.9399 96.7105 52.9399Z" fill="#4D94CD"/>
  </g>
  <defs>
    <clipPath id="clip0_17_573">
      <rect width="130" height="130" fill="white"/>
    </clipPath>
  </defs>
</svg>