<svg width="130" height="130" viewBox="0 0 130 130" fill="none" xmlns="http://www.w3.org/2000/svg">
  <g clip-path="url(#clip0_17_508)">
    <path d="M65.0024 129.998C100.901 129.998 130.003 100.897 130.003 64.9986C130.003 29.1001 100.901 -0.00134277 65.0024 -0.00134277C29.1038 -0.00134277 0.00219727 29.1001 0.00219727 64.9986C0.00219727 100.897 29.1038 129.998 65.0024 129.998Z" fill="#E9F9FF"/>
    <path fill-rule="evenodd" clip-rule="evenodd" d="M47.1957 82.2889C46.1437 82.8589 45.0117 83.3788 43.8147 83.8588C43.5787 83.9488 43.3157 83.9488 43.0787 83.8588C37.3057 81.5688 33.0397 78.1688 31.9597 72.8488C31.9467 72.7888 31.9397 72.7189 31.9397 72.6489V60.9388C31.9397 60.6588 32.0537 60.3988 32.2547 60.2088C32.4567 60.0188 32.7267 59.9188 33.0017 59.9388C37.1947 60.1988 40.7087 59.3089 42.7427 57.2889C43.1327 56.8989 43.7617 56.8989 44.1507 57.2889C44.7817 57.9189 45.5557 58.4288 46.4467 58.8388V44.9388C46.4467 41.9388 48.8837 39.4989 51.8847 39.4989C53.1877 39.4989 54.3847 39.9589 55.3217 40.7289V37.9388C55.3217 34.9388 57.7587 32.4989 60.7597 32.4989C62.0647 32.4989 63.2637 32.9589 64.2007 33.7289C64.3107 30.8189 66.7037 28.4989 69.6347 28.4989C72.6357 28.4989 75.0717 30.9388 75.0717 33.9388V36.7289C76.0087 35.9589 77.2057 35.4989 78.5097 35.4989C81.5107 35.4989 83.9467 37.9388 83.9467 40.9388V66.2589L87.7967 59.5988C89.3147 56.9688 92.6817 56.0588 95.3107 57.5788C97.9387 59.0988 98.8407 62.4688 97.3237 65.0988L76.3047 101.499H51.4397C50.8907 101.499 50.4447 101.059 50.4397 100.509C50.3777 94.3288 49.5547 88.2289 47.1957 82.2889ZM48.4467 59.5289C50.0497 59.9289 51.8937 60.0688 53.8917 59.9388C54.1677 59.9188 54.4377 60.0188 54.6387 60.2088C54.8407 60.3988 54.9547 60.6588 54.9547 60.9388V72.6489C54.9547 72.7189 54.9477 72.7888 54.9347 72.8488C54.2067 76.4388 52.0337 79.1488 48.9287 81.2388C48.9987 81.4088 49.0677 81.5788 49.1347 81.7488C51.4017 87.5488 52.2827 93.4888 52.4227 99.4988H75.1497L95.5917 64.0988C96.5577 62.4188 95.9827 60.2789 94.3107 59.3089C92.6377 58.3489 90.4947 58.9188 89.5287 60.5988L84.2007 69.8188C84.1197 69.8388 84.0347 69.8588 83.9467 69.8588C83.9097 69.8588 83.8727 69.8488 83.8347 69.8488C83.8347 69.8488 83.1007 69.7689 81.9467 69.7789H81.9197C80.9277 69.7789 79.6317 69.8588 78.2277 70.1088C75.5497 70.5788 72.4537 71.6688 70.4167 74.2388C69.0667 75.9388 68.1997 78.2888 68.1967 81.4988C68.1967 82.0488 67.7477 82.4988 67.1967 82.4988C66.6447 82.4988 66.1967 82.0488 66.1967 81.4988C66.2067 69.2689 77.2217 67.8389 81.9467 67.7889V40.9388C81.9467 39.0388 80.4067 37.4989 78.5097 37.4989C76.6127 37.4989 75.0717 39.0388 75.0717 40.9388V61.5589C75.0717 61.8089 74.9727 62.0488 74.7957 62.2188C74.6187 62.3988 74.3787 62.4989 74.1287 62.4989H74.1087C73.5367 62.4989 73.0717 62.0388 73.0717 61.4588V33.9388C73.0717 32.0388 71.5317 30.4989 69.6347 30.4989C67.7377 30.4989 66.1967 32.0388 66.1967 33.9388V61.4688C66.1967 62.0388 65.7357 62.4989 65.1677 62.4989C64.9107 62.4989 64.6627 62.3988 64.4807 62.2188C64.2997 62.0288 64.1967 61.7889 64.1967 61.5289V37.9388C64.1967 36.0388 62.6567 34.4989 60.7597 34.4989C58.8627 34.4989 57.3217 36.0388 57.3217 37.9388V61.4289C57.3217 62.0189 56.8427 62.4989 56.2527 62.4989C55.7387 62.4989 55.3217 62.0788 55.3217 61.5688V44.9388C55.3217 43.0388 53.7817 41.4989 51.8847 41.4989C49.9877 41.4989 48.4467 43.0388 48.4467 44.9388V59.5289ZM48.4467 79.1389C50.7407 77.4489 52.3647 75.3189 52.9547 72.5489V61.9788C51.3367 62.0088 49.8237 61.8688 48.4467 61.5688C47.7427 61.4188 47.0747 61.2188 46.4467 60.9888C45.3037 60.5689 44.2947 60.0088 43.4467 59.3388C41.2237 61.1088 37.8917 62.0488 33.9397 61.9788C33.9397 61.9788 33.9397 72.5489 33.9407 72.5589C34.9007 77.0589 38.5907 79.8688 43.4477 81.8488C44.5107 81.4088 45.5177 80.9389 46.4537 80.4189C47.1617 80.0189 47.8287 79.5989 48.4467 79.1389Z" fill="#4D94CD"/>
    <path fill-rule="evenodd" clip-rule="evenodd" d="M41.6967 70.7589H37.6897V67.2389H41.6967V63.2489H45.1967V67.2389H49.2037V70.7589H45.1967V74.7489H41.6967V70.7589Z" fill="#4D94CD"/>
  </g>
  <defs>
    <clipPath id="clip0_17_508">
      <rect width="130" height="130" fill="white"/>
    </clipPath>
  </defs>
</svg>