<svg width="130" height="130" viewBox="0 0 130 130" fill="none" xmlns="http://www.w3.org/2000/svg">
  <g clip-path="url(#clip0_17_558)">
    <path d="M65.0021 129.998C100.901 129.998 130.002 100.897 130.002 64.9986C130.002 29.1001 100.901 -0.00134277 65.0021 -0.00134277C29.1035 -0.00134277 0.00189209 29.1001 0.00189209 64.9986C0.00189209 100.897 29.1035 129.998 65.0021 129.998Z" fill="#E9F9FF"/>
    <path fill-rule="evenodd" clip-rule="evenodd" d="M82.0196 54.4446L72.8272 63.637C72.4382 64.0259 71.8018 64.0259 71.4129 63.637L67.1703 59.3944C66.7814 59.0055 66.7814 58.3691 67.1703 57.9802L76.3627 48.7878C76.7516 48.3989 77.388 48.3989 77.7769 48.7878L82.0196 53.0304C82.4085 53.4193 82.4085 54.0557 82.0196 54.4446ZM79.8982 53.7375L77.0698 50.9091L69.2916 58.6873L72.1201 61.5157L79.8982 53.7375Z" fill="#4D94CD"/>
    <path fill-rule="evenodd" clip-rule="evenodd" d="M82.0188 47.3729L80.6045 45.9587L82.0188 44.5445L83.433 45.9587L84.8472 44.5445L86.2614 45.9587L84.8472 47.3729L86.2614 48.7871L84.8472 50.2013L83.433 48.7871L82.0188 50.2013L80.6045 48.7871L82.0188 47.3729Z" fill="#4D94CD"/>
    <path d="M68.2302 68.2325L62.5733 62.5757L61.1591 63.9899L66.8159 69.6467L68.2302 68.2325Z" fill="#4D94CD"/>
    <path fill-rule="evenodd" clip-rule="evenodd" d="M52.6668 66.896L84.211 35.3519C87.3152 32.2477 92.3498 32.2478 95.454 35.352C98.5582 38.4562 98.5583 43.4907 95.4541 46.5949L63.9099 78.139C61.6966 80.3522 58.5006 80.9885 55.7216 80.034L38.8853 96.8702C37.5206 98.2349 35.3003 98.2349 33.9356 96.8702C32.5708 95.5055 32.5708 93.2852 33.9356 91.9205L50.7719 75.0842C49.8208 72.3088 50.4536 69.1092 52.6668 66.896ZM40.8793 92.0478L55.2761 77.651C55.9338 78.0258 56.6408 78.2804 57.3621 78.3935C59.1793 78.6834 61.1026 78.1178 62.4956 76.7248L91.8831 47.3374L83.4685 38.9228L54.0811 68.3102C52.688 69.7032 52.1267 71.6308 52.4123 73.4438C52.5255 74.165 52.7801 74.8721 53.1548 75.5297L38.758 89.9265L40.8793 92.0478ZM37.3438 91.3407L35.3498 93.3347C34.7629 93.9216 34.7629 94.8691 35.3498 95.456C35.9367 96.0429 36.8842 96.0429 37.4711 95.456L39.4651 93.462L37.3438 91.3407ZM93.2973 45.9232L94.0398 45.1807C96.3592 42.8614 96.3662 39.0926 94.0398 36.7662C91.7205 34.4469 87.9446 34.4468 85.6253 36.7661L84.8828 37.5086L93.2973 45.9232Z" fill="#4D94CD"/>
  </g>
  <defs>
    <clipPath id="clip0_17_558">
      <rect width="130" height="130" fill="white"/>
    </clipPath>
  </defs>
</svg>